<svg width="393" height="164" viewBox="0 0 393 164" fill="none" xmlns="http://www.w3.org/2000/svg">
<path d="M42.7239 54.8075L5.53375 39.2344C3.82527 38.456 2.76575 37.5444 2.35518 36.4997C2.02925 35.5049 2.21593 34.1246 2.91522 32.3588L10.1825 13.9452C10.8818 12.1793 11.8209 11.0708 12.9997 10.6197C14.2631 10.2184 15.7491 10.407 17.4575 11.1854L44.8294 22.5151C46.1993 23.0938 47.3138 23.2352 48.1728 22.9394C49.0318 22.6435 49.8376 21.8577 50.5901 20.5818C51.2925 19.3911 51.523 18.3232 51.2817 17.3784C51.0404 16.4335 50.3696 15.6366 49.2693 14.9876L14.2288 -5.68048C12.6206 -6.62902 11.6364 -7.66816 11.276 -8.79792C11.0504 -9.96281 11.4142 -11.3533 12.3674 -12.9693L21.473 -28.407C22.4262 -30.023 23.4421 -30.9716 24.5205 -31.2527C25.7338 -31.5689 27.1445 -31.2527 28.7526 -30.3042L69.7602 -6.1165C77.9702 -1.27398 83.2489 4.47645 85.5963 11.1348C87.9938 17.7081 87.0604 24.6096 82.7961 31.8393L74.8945 45.2356C70.6803 52.3803 65.8928 56.4353 60.5318 57.4005C55.1709 58.3658 49.2349 57.5014 42.7239 54.8075ZM7.96039 81.2508L-15.273 67.547C-16.8812 66.5984 -17.8654 65.5593 -18.2258 64.4295C-18.4514 63.2646 -18.0876 61.8742 -17.1344 60.2581L-7.27624 43.5446C-6.32303 41.9286 -5.30719 40.98 -4.22873 40.6989C-3.01546 40.3827 -1.60475 40.6989 0.00339551 41.6474L23.2368 55.3513C24.8449 56.2998 25.7618 57.3565 25.9874 58.5214C26.3478 59.6512 26.0514 61.0241 25.0982 62.6401L15.24 79.3536C14.2868 80.9697 13.2036 81.9358 11.9903 82.252C10.9118 82.5331 9.56854 82.1993 7.96039 81.2508Z" fill="#E0F1FA"/>
<path d="M121.545 85.0457L107.615 100.851C106.942 101.562 106.296 101.906 105.677 101.883C105.099 101.826 104.392 101.416 103.559 100.651L94.861 92.6891C94.0273 91.9243 93.5798 91.1842 93.5185 90.4686C93.4966 89.7204 93.8224 88.9904 94.4958 88.2787L104.678 76.6163C105.194 76.0353 105.438 75.4878 105.411 74.9739C105.384 74.4599 105.088 73.8623 104.523 73.1812C103.996 72.5454 103.462 72.183 102.923 72.0939C102.383 72.0048 101.857 72.1727 101.345 72.5975L85.0299 86.1273C84.2811 86.7482 83.5787 87.0241 82.9228 86.9549C82.2686 86.8077 81.5838 86.3026 80.8683 85.4398L74.0335 77.1979C73.318 76.3351 72.9673 75.5913 72.9813 74.9666C72.997 74.2638 73.3793 73.6019 74.1281 72.981L93.2216 57.1473C97.0443 53.9773 100.905 52.538 104.805 52.8294C108.667 53.0755 112.199 55.1284 115.4 58.9883L121.331 66.1404C124.494 69.9548 125.926 73.3657 125.626 76.3731C125.327 79.3804 123.966 82.2713 121.545 85.0457ZM130.345 109.132L119.527 118.102C118.778 118.723 118.076 118.999 117.42 118.93C116.766 118.783 116.081 118.278 115.365 117.415L107.966 108.492C107.25 107.629 106.9 106.885 106.914 106.261C106.929 105.558 107.312 104.896 108.06 104.275L118.878 95.3041C119.627 94.6832 120.328 94.4464 120.982 94.5936C121.638 94.6628 122.324 95.1288 123.04 95.9915L130.439 104.915C131.155 105.777 131.505 106.56 131.489 107.263C131.475 107.888 131.093 108.511 130.345 109.132Z" fill="#CBEBFC"/>
<path d="M303.38 67.0641L275.383 77.1787C274.065 77.6029 273.032 77.5902 272.282 77.1406C271.603 76.6774 271.007 75.6888 270.494 74.1748L265.129 58.4014C264.616 56.8874 264.564 55.6664 264.974 54.7383C265.456 53.7965 266.355 53.1135 267.673 52.6894L288.212 45.1601C289.246 44.7908 289.92 44.2785 290.236 43.6234C290.552 42.9682 290.591 42.0268 290.354 40.7991C290.133 39.6533 289.718 38.8419 289.111 38.3649C288.503 37.888 287.737 37.7386 286.814 37.9168L257.408 43.5919C256.059 43.8523 255.001 43.7168 254.236 43.1855C253.525 42.5585 253.02 41.4675 252.72 39.9125L249.853 25.0576C249.553 23.5026 249.624 22.3428 250.066 21.5784C250.563 20.7184 251.486 20.1582 252.836 19.8978L287.249 13.2563C294.138 11.9266 299.9 12.7673 304.533 15.7782C309.15 18.7073 312.13 23.6502 313.473 30.607L315.961 43.4976C317.288 50.3726 316.744 55.5711 314.329 59.0933C311.915 62.6154 308.265 65.2724 303.38 67.0641ZM297.915 102.882L278.418 106.645C277.068 106.906 276.011 106.77 275.245 106.239C274.535 105.612 274.03 104.521 273.729 102.966L270.626 86.8834C270.326 85.3283 270.396 84.1686 270.838 83.4042C271.335 82.5442 272.259 81.984 273.608 81.7235L293.106 77.9607C294.455 77.7003 295.485 77.8835 296.195 78.5105C296.961 79.0418 297.494 80.0851 297.794 81.6401L300.898 97.7226C301.198 99.2777 301.099 100.485 300.602 101.345C300.16 102.11 299.265 102.622 297.915 102.882Z" fill="#CBEBFC"/>
<path d="M205.708 39.1452L170.23 31.5016C168.593 31.088 167.533 30.4065 167.048 29.4571C166.646 28.5394 166.669 27.1322 167.117 25.2355L171.769 5.46241C172.217 3.56571 172.953 2.27029 173.977 1.57614C175.084 0.913743 176.455 0.789336 178.092 1.20293L204.19 6.69765C205.497 6.98424 206.526 6.89095 207.275 6.41775C208.025 5.94454 208.675 4.99684 209.223 3.57464C209.735 2.24726 209.832 1.14059 209.512 0.254658C209.192 -0.631271 208.497 -1.2806 207.427 -1.69333L173.362 -14.8371C171.799 -15.4404 170.793 -16.2641 170.345 -17.3083C170.016 -18.4156 170.199 -19.87 170.894 -21.6715L177.534 -38.8801C178.229 -40.6815 179.052 -41.8345 180.003 -42.339C181.073 -42.9066 182.39 -42.8888 183.953 -42.2856L223.819 -26.9035C231.8 -23.8239 237.213 -19.2304 240.055 -13.1228C242.935 -7.11002 242.819 -0.0740839 239.71 7.98505L233.948 22.9181C230.875 30.8825 226.952 35.9045 222.179 37.9844C217.406 40.0642 211.916 40.4512 205.708 39.1452ZM176.904 72.6375L154.317 63.9226C152.754 63.3194 151.748 62.4956 151.3 61.4514C150.971 60.3441 151.154 58.8897 151.849 57.0883L159.038 38.4574C159.733 36.656 160.556 35.503 161.507 34.9985C162.577 34.4309 163.893 34.4487 165.457 35.0519L188.043 43.7668C189.607 44.3701 190.553 45.2253 190.882 46.3326C191.33 47.3769 191.206 48.7997 190.511 50.6012L183.323 69.232C182.628 71.0335 181.745 72.218 180.675 72.7855C179.724 73.2901 178.467 73.2407 176.904 72.6375Z" fill="#E0F1FA"/>
<path d="M399.056 102.539L352.642 90.2128C350.504 89.5636 349.145 88.5963 348.565 87.3111C348.091 86.0729 348.209 84.2144 348.92 81.7355L356.308 55.8919C357.019 53.413 358.073 51.7469 359.47 50.8936C360.974 50.0874 362.795 50.0089 364.932 50.6581L399.083 59.5562C400.793 60.0169 402.158 59.9581 403.179 59.3796C404.199 58.8011 405.117 57.5892 405.931 55.7438C406.691 54.0214 406.888 52.5647 406.521 51.3737C406.153 50.1826 405.276 49.2808 403.888 48.6683L359.686 29.1608C357.657 28.2655 356.38 27.1138 355.853 25.7055C355.488 24.2213 355.821 22.3104 356.852 19.9729L366.707 -2.35653C367.738 -4.69405 368.898 -6.16644 370.187 -6.7737C371.636 -7.45687 373.376 -7.35082 375.404 -6.45555L427.133 16.3739C437.49 20.9445 444.355 27.3552 447.73 35.606C451.159 43.7338 450.566 53.0263 445.951 63.4836L437.399 82.8604C432.838 93.1947 427.339 99.5868 420.9 102.037C414.461 104.487 407.18 104.654 399.056 102.539ZM358.885 145.002L329.578 132.068C327.549 131.173 326.271 130.021 325.745 128.613C325.379 127.129 325.712 125.218 326.744 122.88L337.413 98.7054C338.445 96.3678 339.605 94.8954 340.893 94.2882C342.343 93.605 344.082 93.7111 346.11 94.6063L375.418 107.541C377.447 108.436 378.644 109.626 379.009 111.11C379.536 112.518 379.283 114.391 378.252 116.729L367.583 140.903C366.551 143.241 365.311 144.751 363.861 145.434C362.572 146.042 360.914 145.898 358.885 145.002Z" fill="#E0F1FA"/>
</svg>
