<svg width="393" height="156" viewBox="0 0 393 156" fill="none" xmlns="http://www.w3.org/2000/svg">
<path d="M38.8431 112.003L-7.37254 128.872C-9.54666 129.602 -11.2421 129.753 -12.4589 129.323C-13.5588 128.865 -14.5076 127.751 -15.3052 125.98L-23.6452 107.539C-24.4429 105.769 -24.4917 104.283 -23.7917 103.082C-22.9748 101.852 -21.4793 100.872 -19.3052 100.141L14.6025 87.6326C16.309 87.0148 17.4306 86.2798 17.9674 85.4274C18.5041 84.5751 18.5961 83.4168 18.2432 81.9525C17.9139 80.5858 17.2578 79.6594 16.2748 79.1733C15.2918 78.6871 14.0404 78.6272 12.5207 78.9934L-35.8773 90.6558C-38.0984 91.1911 -39.8292 91.195 -41.0695 90.6675C-42.2164 90.0143 -43.0134 88.7604 -43.4603 86.9056L-47.7298 69.1878C-48.1767 67.3331 -48.0266 65.9026 -47.2796 64.8963C-46.4392 63.7642 -44.9084 62.9305 -42.6872 62.3953L13.9524 48.7468C25.2921 46.0143 34.7178 46.1186 42.2295 49.0597C49.7177 51.9032 54.4616 57.4737 56.461 65.7713L60.1659 81.1462C62.1418 89.3462 61.0983 95.7949 57.0352 100.492C52.972 105.19 46.908 109.027 38.8431 112.003ZM28.8361 156.71L-3.25388 164.443C-5.47505 164.978 -7.20579 164.982 -8.4461 164.455C-9.59304 163.801 -10.39 162.547 -10.8369 160.693L-15.4592 141.511C-15.9061 139.656 -15.7561 138.225 -15.009 137.219C-14.1686 136.087 -12.6378 135.253 -10.4167 134.718L21.6733 126.985C23.8945 126.45 25.5785 126.509 26.7254 127.162C27.9658 127.69 28.8094 128.881 29.2563 130.736L33.8786 149.918C34.3256 151.772 34.1288 153.266 33.2884 154.398C32.5413 155.404 31.0572 156.175 28.8361 156.71Z" fill="#E0F1FA"/>
<path d="M114.235 111.391L93.6786 106.781C92.7306 106.533 92.1183 106.132 91.8417 105.579C91.6128 105.044 91.633 104.227 91.9024 103.129L94.6987 91.6737C94.9681 90.5749 95.4017 89.8265 95.9995 89.4286C96.645 89.0495 97.4417 88.9839 98.3896 89.232L113.512 92.5484C114.269 92.7212 114.867 92.672 115.304 92.401C115.742 92.1299 116.123 91.583 116.449 90.7601C116.753 89.9921 116.814 89.3502 116.632 88.8344C116.451 88.3186 116.051 87.9383 115.432 87.6935L95.7223 79.8982C94.8177 79.5404 94.238 79.0574 93.9831 78.4491C93.7975 77.8047 93.9108 76.9614 94.3231 75.9191L98.261 65.9623C98.6732 64.92 99.1566 64.2548 99.711 63.9665C100.335 63.6423 101.099 63.659 102.003 64.0168L125.07 73.1395C129.688 74.966 132.807 77.6587 134.427 81.2178C136.069 84.722 135.968 88.8056 134.124 93.4686L130.707 102.109C128.884 106.717 126.583 109.613 123.802 110.797C121.021 111.981 117.833 112.179 114.235 111.391ZM97.3525 130.692L84.284 125.523C83.3795 125.165 82.7998 124.682 82.5449 124.074C82.3593 123.43 82.4726 122.586 82.8848 121.544L87.1482 110.764C87.5605 109.722 88.0438 109.057 88.5982 108.769C89.222 108.444 89.9861 108.461 90.8907 108.819L103.959 113.987C104.864 114.345 105.409 114.846 105.594 115.491C105.849 116.099 105.771 116.924 105.358 117.966L101.095 128.746C100.683 129.788 100.165 130.472 99.541 130.796C98.9865 131.084 98.257 131.049 97.3525 130.692Z" fill="#CBEBFC"/>
<path d="M306.858 116.23L277.417 120.631C276.041 120.787 275.03 120.571 274.384 119.982C273.81 119.394 273.42 118.308 273.215 116.722L271.063 100.201C270.858 98.6155 271.048 97.4083 271.633 96.5792C272.291 95.7507 273.307 95.2583 274.683 95.1022L296.302 91.7669C297.389 91.6085 298.151 91.2393 298.59 90.6592C299.028 90.079 299.252 89.1638 299.262 87.9135C299.271 86.7466 299.024 85.8694 298.522 85.2821C298.021 84.6947 297.299 84.3974 296.359 84.3902L266.412 84.1606C265.037 84.15 264.027 83.8088 263.381 83.137C262.808 82.3824 262.528 81.2133 262.54 79.6296L262.656 64.501C262.668 62.9173 262.966 61.7943 263.55 61.1319C264.207 60.3867 265.222 60.0194 266.597 60.03L301.644 60.2987C308.661 60.3525 314.143 62.3118 318.093 66.1765C322.042 69.9579 323.99 75.3911 323.936 82.4761L323.835 95.6041C323.781 102.606 322.224 107.595 319.163 110.573C316.102 113.55 312 115.436 306.858 116.23ZM294.443 150.27L274.587 150.117C273.212 150.107 272.202 149.766 271.556 149.094C270.983 148.339 270.703 147.17 270.715 145.586L270.841 129.208C270.853 127.624 271.151 126.501 271.735 125.838C272.391 125.093 273.407 124.726 274.781 124.737L294.638 124.889C296.012 124.899 296.986 125.282 297.559 126.037C298.205 126.708 298.522 127.836 298.509 129.42L298.384 145.799C298.372 147.382 298.037 148.547 297.38 149.292C296.797 149.954 295.818 150.28 294.443 150.27Z" fill="#CBEBFC"/>
<path d="M229.892 159.881L192.209 176.703C190.43 177.423 188.999 177.51 187.917 176.965C186.931 176.393 186.007 175.087 185.144 173.046L176.128 151.781C175.265 149.739 175.07 148.056 175.543 146.732C176.113 145.381 177.287 144.345 179.067 143.625L206.701 131.133C208.093 130.518 208.974 129.741 209.344 128.803C209.713 127.866 209.672 126.56 209.22 124.887C208.799 123.325 208.143 122.245 207.255 121.647C206.366 121.049 205.292 120.92 204.034 121.26L163.952 132.087C162.112 132.584 160.636 132.504 159.524 131.847C158.478 131.052 157.669 129.595 157.097 127.475L151.627 107.227C151.055 105.107 151.035 103.497 151.569 102.395C152.169 101.156 153.389 100.288 155.228 99.7907L202.135 87.1201C211.526 84.5834 219.578 85.1617 226.289 88.8551C232.97 92.4369 237.591 98.9691 240.152 108.452L244.898 126.022C247.43 135.393 247.205 142.636 244.223 147.751C241.242 152.865 236.465 156.909 229.892 159.881ZM225.967 209.958L199.391 217.137C197.552 217.634 196.076 217.554 194.963 216.896C193.917 216.102 193.108 214.644 192.536 212.525L186.614 190.603C186.042 188.484 186.022 186.873 186.556 185.771C187.156 184.532 188.376 183.664 190.215 183.167L216.791 175.988C218.631 175.491 220.073 175.64 221.119 176.435C222.231 177.092 223.074 178.481 223.646 180.6L229.568 202.522C230.14 204.641 230.127 206.321 229.526 207.56C228.993 208.662 227.807 209.461 225.967 209.958Z" fill="#E0F1FA"/>
<path d="M432.446 93.905L390.817 117.848C388.843 118.893 387.197 119.164 385.879 118.66C384.671 118.115 383.446 116.713 382.205 114.452L369.245 90.9041C368.004 88.6435 367.579 86.7183 367.969 85.1285C368.469 83.4969 369.706 82.1589 371.68 81.1144L402.189 63.3759C403.727 62.4984 404.655 61.4949 404.972 60.3653C405.289 59.2358 405.087 57.7292 404.365 55.8456C403.692 54.0876 402.805 52.9152 401.705 52.3285C400.606 51.7418 399.348 51.7199 397.931 52.2627L352.814 69.5501C350.744 70.3435 349.026 70.4258 347.66 69.797C346.355 69.0009 345.245 67.4099 344.331 65.024L335.598 42.2326C334.684 39.8467 334.47 37.9844 334.957 36.6458C335.505 35.1398 336.814 33.9902 338.885 33.1968L391.684 12.9656C402.255 8.91513 411.644 8.62977 419.851 12.1095C428.01 15.4636 434.134 22.4775 438.224 33.1512L445.802 52.9289C449.844 63.477 450.443 71.8883 447.598 78.1627C444.753 84.4371 439.702 89.6845 432.446 93.905ZM433.841 152.342L403.927 163.804C401.857 164.598 400.138 164.68 398.773 164.051C397.468 163.255 396.358 161.664 395.444 159.278L385.989 134.603C385.075 132.217 384.862 130.355 385.348 129.017C385.896 127.511 387.205 126.361 389.276 125.568L419.19 114.105C421.261 113.312 422.948 113.313 424.253 114.109C425.619 114.738 426.759 116.245 427.673 118.631L437.128 143.306C438.042 145.692 438.225 147.638 437.678 149.144C437.191 150.483 435.912 151.549 433.841 152.342Z" fill="#E0F1FA"/>
</svg>
