<svg width="166" height="102" viewBox="0 0 166 102" fill="none" xmlns="http://www.w3.org/2000/svg">
<path d="M148.58 72.9034L119.697 76.8469C118.347 76.989 117.352 76.8114 116.712 76.314C116.144 75.8166 115.753 74.8929 115.54 73.5429L113.302 59.4742C113.089 58.1242 113.266 57.0939 113.835 56.3834C114.474 55.6728 115.469 55.2465 116.819 55.1044L138.029 52.1201C139.094 51.978 139.84 51.6583 140.267 51.1609C140.693 50.6635 140.906 49.8819 140.906 48.8161C140.906 47.8214 140.658 47.0753 140.16 46.5779C139.663 46.0806 138.952 45.8319 138.029 45.8319H108.612C107.262 45.8319 106.267 45.5477 105.628 44.9792C105.06 44.3397 104.775 43.345 104.775 41.995V29.0987C104.775 27.7486 105.06 26.7894 105.628 26.221C106.267 25.5815 107.262 25.2618 108.612 25.2618H143.038C149.93 25.2618 155.33 26.896 159.238 30.1645C163.146 33.3619 165.1 37.9804 165.1 44.02V55.211C165.1 61.1795 163.608 65.4428 160.624 68.0007C157.639 70.5586 153.625 72.1929 148.58 72.9034ZM136.643 102H117.139C115.789 102 114.794 101.716 114.154 101.147C113.586 100.508 113.302 99.5131 113.302 98.1631V84.201C113.302 82.851 113.586 81.8917 114.154 81.3233C114.794 80.6838 115.789 80.3641 117.139 80.3641H136.643C137.993 80.3641 138.952 80.6838 139.521 81.3233C140.16 81.8917 140.48 82.851 140.48 84.201V98.1631C140.48 99.5131 140.16 100.508 139.521 101.147C138.952 101.716 137.993 102 136.643 102Z" fill="#EAEAEA"/>
<path d="M44.6992 52.2701C44.8932 52.5125 44.9853 52.6773 44.9756 52.7646C44.9659 52.8325 44.961 52.9391 44.961 53.0846C44.8641 53.1912 44.7865 53.3124 44.7283 53.4482C44.6798 53.5645 44.5926 53.676 44.4665 53.7827C44.3502 53.8603 44.2484 53.9136 44.1611 53.9427C44.0447 53.9718 43.9526 54.0348 43.8848 54.1318C43.749 54.1802 43.6521 54.2287 43.5939 54.2772C43.526 54.3354 43.4097 54.3548 43.2448 54.3354C42.7794 54.8008 42.3673 55.179 42.0086 55.4698C41.6498 55.7607 41.2765 56.0419 40.8887 56.3134C40.5978 56.5655 40.2923 56.7982 39.9724 57.0115C39.6524 57.2248 39.3276 57.4382 38.9979 57.6515C38.8719 57.7775 38.7846 57.8696 38.7361 57.9278C38.6682 58.0151 38.5713 58.0878 38.4452 58.146C38.2222 58.369 37.9847 58.5775 37.7326 58.7714C37.6065 58.8683 37.4853 58.9604 37.369 59.0477C37.2623 59.1447 37.1556 59.2416 37.049 59.3386C36.8357 59.4937 36.6078 59.6004 36.3654 59.6586C36.1133 59.7167 35.8854 59.7943 35.6818 59.8913C35.3134 60.0561 35.0322 60.0852 34.8383 59.9785L34.3001 60.0804C34.1547 60.1094 33.9753 60.0949 33.762 60.0367C33.7038 60.0173 33.6456 59.9882 33.5875 59.9495C33.5584 59.9301 33.5244 59.9107 33.4856 59.8913C33.4566 59.8719 33.4226 59.8525 33.3838 59.8331C33.1899 59.7555 33.0396 59.6731 32.933 59.5859C32.8263 59.4986 32.7342 59.4162 32.6566 59.3386C32.5984 59.2804 32.5306 59.198 32.453 59.0913C32.3754 58.9847 32.3173 58.8926 32.2785 58.815C32.1815 58.6599 32.1185 58.4708 32.0894 58.2478C32.0603 58.0248 32.0167 57.8066 31.9585 57.5933C31.9197 57.3994 31.8615 57.1861 31.784 56.9533C31.7161 56.74 31.687 56.517 31.6967 56.2843C31.7064 56.2067 31.7209 56.1292 31.7403 56.0516C31.7597 55.974 31.7791 55.9013 31.7985 55.8334L31.9294 55.3826C31.9876 55.2468 32.0409 55.1159 32.0894 54.9899C32.1379 54.8638 32.1815 54.7426 32.2203 54.6263C32.2882 54.413 32.3754 54.1899 32.4821 53.9572C32.5403 53.8603 32.6033 53.7827 32.6712 53.7245C32.739 53.6664 32.8021 53.5888 32.8602 53.4918C32.8893 53.4627 32.9136 53.4046 32.933 53.3173C32.9524 53.2203 32.9766 53.1525 33.0057 53.1137L33.5002 52.5755C33.5875 52.4786 33.6699 52.3816 33.7474 52.2847C33.825 52.1877 33.8977 52.0859 33.9656 51.9792C34.0141 51.9114 34.0626 51.8483 34.111 51.7901C34.1692 51.7223 34.2226 51.6641 34.271 51.6156C34.3195 51.5671 34.368 51.5138 34.4165 51.4556C34.4747 51.3878 34.528 51.3199 34.5765 51.252C34.6831 51.1066 34.7655 51.0145 34.8237 50.9757C34.8722 50.9466 34.9158 50.903 34.9546 50.8448C35.071 50.7284 35.1776 50.6072 35.2746 50.4812C35.3715 50.3551 35.4685 50.2242 35.5655 50.0885C35.6333 50.0206 35.7012 49.9527 35.7691 49.8849C35.8467 49.8073 35.9194 49.7297 35.9873 49.6521C36.123 49.5067 36.2733 49.3807 36.4381 49.274C36.6224 49.1673 36.8017 49.0801 36.9763 49.0122C37.0732 48.9734 37.1702 48.9346 37.2671 48.8958C37.3641 48.8474 37.4659 48.7989 37.5726 48.7504C37.6792 48.7019 37.7713 48.6534 37.8489 48.605C37.9265 48.5565 38.0186 48.508 38.1253 48.4595C38.2416 48.411 38.3483 48.382 38.4452 48.3723C38.5325 48.3626 38.6198 48.3141 38.707 48.2268C38.8234 48.2462 38.93 48.2268 39.027 48.1686C39.124 48.1105 39.2209 48.062 39.3179 48.0232C39.4148 48.0135 39.507 48.0135 39.5942 48.0232C39.6815 48.0426 39.7542 48.0232 39.8124 47.965C39.8609 48.0038 39.9239 48.0232 40.0015 48.0232C40.0693 48.0232 40.1227 48.0426 40.1614 48.0814C40.3457 48.1299 40.462 48.2656 40.5105 48.4886C40.5493 48.7795 40.4766 49.0801 40.2923 49.3904C40.1081 49.7006 39.9481 49.9333 39.8124 50.0885C39.6475 50.36 39.4051 50.5927 39.0852 50.7866C38.8622 50.7866 38.6246 50.8011 38.3725 50.8302C38.1107 50.8593 37.8925 50.8545 37.718 50.8157C37.6695 50.903 37.6162 50.9563 37.558 50.9757C37.4805 51.0048 37.4659 51.0581 37.5144 51.1357C36.8551 51.698 36.2733 52.2943 35.7691 52.9246C35.2649 53.5548 34.8673 54.2966 34.5765 55.1499C34.4698 55.4989 34.3728 55.7365 34.2856 55.8625C34.1886 55.9983 34.1401 56.1486 34.1401 56.3134C34.2565 56.7206 34.4504 57.0649 34.7219 57.346C34.9934 57.6272 35.2649 57.7872 35.5364 57.826C35.8467 57.8648 36.123 57.8066 36.3654 57.6515C36.6175 57.4866 36.8454 57.3509 37.049 57.2442C37.1847 57.1473 37.3205 57.0552 37.4562 56.9679C37.592 56.8806 37.7229 56.7982 37.8489 56.7206L38.6779 56.2261C38.7555 56.1874 38.8331 56.1437 38.9106 56.0952C38.9882 56.0468 39.0658 55.9934 39.1433 55.9353C39.3761 55.7704 39.6039 55.6007 39.8269 55.4262C39.9336 55.3486 40.0354 55.2711 40.1324 55.1935C40.239 55.1062 40.3457 55.0238 40.4523 54.9462C40.5396 54.9365 40.6123 54.9026 40.6705 54.8444C40.719 54.796 40.7917 54.7717 40.8887 54.7717C41.2377 54.4614 41.6159 54.1851 42.0231 53.9427C42.4303 53.7003 42.857 53.453 43.303 53.2009C43.4581 53.0458 43.5987 52.9246 43.7248 52.8373C43.8508 52.7501 43.9914 52.6289 44.1466 52.4737C44.2823 52.4737 44.3793 52.4398 44.4374 52.3719C44.4956 52.304 44.5829 52.2701 44.6992 52.2701ZM51.7386 50.8739L51.7096 51.1066C51.7289 51.1744 51.7096 51.2908 51.6514 51.4556C51.5544 51.572 51.4962 51.698 51.4768 51.8338C51.4381 51.9114 51.4041 51.9792 51.375 52.0374C51.3459 52.0956 51.3217 52.1731 51.3023 52.2701C51.2635 52.3865 51.249 52.5222 51.2587 52.6773C51.2684 52.7549 51.2684 52.8325 51.2587 52.9101C51.2587 52.9779 51.2538 53.0458 51.2441 53.1137C51.2054 53.327 51.1763 53.5355 51.1569 53.7391C51.1375 53.9427 51.1181 54.1512 51.0987 54.3645C51.0987 54.5778 51.0793 54.8202 51.0405 55.0917C51.0017 55.3632 50.9629 55.6056 50.9242 55.8189C51.0114 55.974 51.0599 56.1195 51.0696 56.2552C51.0793 56.4007 51.1472 56.5267 51.2732 56.6334C51.6611 56.5752 51.9713 56.4831 52.2041 56.357C52.4368 56.231 52.6598 56.0516 52.8731 55.8189C53.0282 55.751 53.1494 55.6832 53.2367 55.6153C53.3143 55.5474 53.4258 55.4698 53.5712 55.3826L53.8039 55.1499C54.0366 55.0238 54.1675 54.9462 54.1966 54.9172C54.216 54.8978 54.2402 54.8784 54.2693 54.859C54.3081 54.8396 54.3469 54.8202 54.3857 54.8008C54.7154 54.5875 54.9675 54.3645 55.142 54.1318C55.2874 54.0154 55.4086 53.8942 55.5056 53.7682C55.5832 53.6615 55.7335 53.5597 55.9565 53.4627C56.0825 53.3076 56.2231 53.1767 56.3782 53.07C56.5334 52.9634 56.674 52.8325 56.8 52.6773C56.9067 52.6773 56.9843 52.6967 57.0327 52.7355C57.0618 52.7549 57.0909 52.7743 57.12 52.7937C57.1588 52.8131 57.1976 52.8325 57.2364 52.8519C57.2945 53.007 57.3042 53.167 57.2654 53.3318C57.2267 53.4967 57.1588 53.647 57.0618 53.7827C56.9649 53.9088 56.9164 53.9863 56.9164 54.0154C56.9164 54.0348 56.9067 54.0542 56.8873 54.0736C56.8291 54.1415 56.7564 54.2142 56.6691 54.2918C56.5819 54.3596 56.5091 54.4323 56.451 54.5099C56.354 54.6844 56.2764 54.7717 56.2183 54.7717C56.1601 54.7717 56.1116 54.7911 56.0728 54.8299C55.8983 54.9365 55.7771 55.0141 55.7092 55.0626C55.6316 55.1305 55.5201 55.208 55.3747 55.2953C55.1711 55.402 55.045 55.4795 54.9965 55.528C54.9481 55.5765 54.9093 55.6056 54.8802 55.6153C54.6475 55.8771 54.4196 56.0952 54.1966 56.2698C53.993 56.4249 53.7748 56.6431 53.5421 56.9243C53.4646 56.9824 53.387 57.0406 53.3094 57.0988C53.2318 57.157 53.164 57.2345 53.1058 57.3315C52.9313 57.4479 52.7907 57.5642 52.684 57.6806C52.5774 57.7969 52.4562 57.9327 52.3204 58.0878C52.2041 58.146 52.078 58.2284 51.9423 58.335C51.7774 58.4611 51.632 58.5532 51.5059 58.6114C51.4575 58.6405 51.375 58.6841 51.2587 58.7423C51.1617 58.7908 51.0696 58.815 50.9823 58.815C50.7593 58.8538 50.546 58.8344 50.3424 58.7568C50.1582 58.689 49.9739 58.6308 49.7897 58.5823C49.7121 58.4659 49.6152 58.369 49.4988 58.2914C49.3243 58.0781 49.1983 57.826 49.1207 57.5351C49.0431 57.2442 48.9655 56.934 48.888 56.6043C48.7134 56.7206 48.568 56.8467 48.4516 56.9824C48.3353 57.1279 48.1608 57.2539 47.9281 57.3606C47.7341 57.5448 47.5354 57.729 47.3317 57.9133C47.1281 58.0878 46.9148 58.2575 46.6918 58.4223C46.4785 58.5871 46.2603 58.7617 46.0373 58.9459C45.8143 59.1204 45.5913 59.2998 45.3683 59.484C45.2131 59.6392 45.1065 59.6974 45.0483 59.6586C44.8738 59.8719 44.5635 59.9398 44.1175 59.8622C43.9623 59.7846 43.7878 59.7167 43.5939 59.6586C43.4581 59.6198 43.303 59.5616 43.1285 59.484C42.7988 59.4259 42.5225 59.2804 42.2994 59.0477C42.0764 58.815 41.8874 58.5435 41.7322 58.2332C41.674 58.0684 41.6304 57.923 41.6013 57.7969C41.5916 57.729 41.5771 57.6563 41.5577 57.5787C41.5383 57.5012 41.5189 57.4188 41.4995 57.3315C41.4898 57.1667 41.4607 57.0358 41.4122 56.9388C41.3735 56.8321 41.3735 56.7303 41.4122 56.6334C41.3735 56.5849 41.3638 56.5219 41.3832 56.4443C41.4025 56.3473 41.4122 56.2746 41.4122 56.2261C41.3929 55.9546 41.4171 55.6638 41.485 55.3535C41.5528 55.0432 41.645 54.762 41.7613 54.5099C41.8195 54.413 41.8971 54.316 41.994 54.219C42.0425 54.1609 42.0716 54.1027 42.0813 54.0445C42.091 53.996 42.1201 53.9475 42.1685 53.8991C42.217 53.8409 42.2752 53.7827 42.3431 53.7245C42.44 53.647 42.5079 53.5888 42.5467 53.55C42.5952 53.4821 42.6437 53.4191 42.6921 53.3609C42.7503 53.2931 42.8133 53.2349 42.8812 53.1864C42.9491 53.1379 43.0121 53.0846 43.0703 53.0264C43.1285 52.9682 43.1866 52.9101 43.2448 52.8519C43.3127 52.784 43.366 52.7161 43.4048 52.6483C43.4533 52.5707 43.526 52.5125 43.623 52.4737C43.7005 52.338 43.7878 52.2265 43.8848 52.1392C43.9817 52.0519 44.0884 51.9598 44.2047 51.8629C44.5344 51.4653 44.9416 51.126 45.4264 50.8448C45.921 50.5636 46.3573 50.2533 46.7354 49.9139C46.8712 49.8558 46.9875 49.7879 47.0845 49.7103C47.1815 49.6328 47.2784 49.5552 47.3754 49.4776C47.6178 49.2643 47.8796 49.1964 48.1608 49.274L48.9171 49.4776C49.111 49.6521 49.3001 49.8267 49.4843 50.0012C49.6685 50.1757 49.8285 50.3697 49.9642 50.583C50.0321 50.5733 50.1048 50.5684 50.1824 50.5684C50.26 50.5587 50.3424 50.5587 50.4297 50.5684C50.6042 50.5878 50.7884 50.5733 50.9823 50.5248C51.0405 50.5248 51.0987 50.5103 51.1569 50.4812C51.215 50.4521 51.2635 50.4375 51.3023 50.4375C51.5932 50.5345 51.7386 50.6799 51.7386 50.8739ZM47.899 51.3102C47.3754 51.5623 46.9003 51.858 46.4736 52.1974C46.047 52.5368 45.6398 52.9004 45.2519 53.2882C45.2034 53.3367 45.1501 53.3852 45.0919 53.4336C45.0435 53.4724 44.995 53.5161 44.9465 53.5645C44.898 53.6033 44.8495 53.647 44.801 53.6954C44.7526 53.7439 44.7089 53.7924 44.6702 53.8409C44.5926 53.9378 44.5199 54.0542 44.452 54.1899C44.3841 54.3257 44.3211 54.4517 44.2629 54.5681C44.2435 54.6069 44.2241 54.6457 44.2047 54.6844C44.1853 54.7135 44.166 54.7378 44.1466 54.7572C44.1272 54.7766 44.1078 54.8008 44.0884 54.8299C44.069 54.859 44.0496 54.8881 44.0302 54.9172C43.9914 55.0141 43.9769 55.1111 43.9866 55.208C43.9963 55.2759 44.0011 55.3826 44.0011 55.528V55.8189C44.0011 55.8771 44.0108 55.974 44.0302 56.1098C44.0884 56.3231 44.1175 56.5364 44.1175 56.7497C44.1175 56.9049 44.132 57.0939 44.1611 57.317C44.1902 57.54 44.2629 57.6903 44.3793 57.7678C44.5053 57.8454 44.6265 57.8648 44.7429 57.826C44.8786 57.7775 44.9901 57.7484 45.0774 57.7387C45.7561 57.2151 46.3961 56.6673 46.9972 56.0952C47.5984 55.5232 48.1317 54.8784 48.5971 54.1609C48.5583 53.6857 48.5535 53.1961 48.5825 52.6919C48.6116 52.2168 48.568 51.7756 48.4516 51.3684C48.3741 51.3199 48.282 51.3053 48.1753 51.3247C48.0977 51.3344 48.0056 51.3296 47.899 51.3102ZM57.2364 55.3826C57.3915 55.2856 57.5175 55.1596 57.6145 55.0044C57.663 54.9269 57.7163 54.8493 57.7745 54.7717C57.8327 54.6941 57.8957 54.6166 57.9636 54.539C58.2157 54.2481 58.4872 54.0057 58.778 53.8118C58.9138 53.6082 59.0835 53.4579 59.2871 53.3609C59.4907 53.2543 59.6507 53.0943 59.7671 52.881C59.7961 52.8422 59.8301 52.784 59.8689 52.7064C59.9076 52.6289 59.9416 52.5707 59.9707 52.5319C60.3391 52.018 60.7367 51.5914 61.1633 51.252C61.2215 51.2035 61.2797 51.1551 61.3378 51.1066C61.396 51.0581 61.4493 51.0096 61.4978 50.9611C61.5754 50.8836 61.7063 50.7866 61.8905 50.6702C61.9778 50.6218 62.065 50.5684 62.1523 50.5103C62.2396 50.4424 62.322 50.3697 62.3996 50.2921C62.5547 50.137 62.7341 50.0206 62.9377 49.943C63.0637 49.8849 63.1898 49.8412 63.3158 49.8121C63.374 49.7927 63.4322 49.7782 63.4904 49.7685C63.5582 49.7491 63.6261 49.7297 63.694 49.7103C63.8297 49.6715 63.9509 49.6376 64.0576 49.6085C64.1643 49.5794 64.2855 49.5843 64.4212 49.6231C64.7315 49.7491 64.9642 50.0109 65.1193 50.4084C65.1775 50.5539 65.1436 50.8593 65.0175 51.3247C64.9012 51.7901 64.7606 52.275 64.5957 52.7792C64.4309 53.2737 64.3145 53.6567 64.2467 53.9281C64.2079 54.0736 64.1982 54.156 64.2176 54.1754C64.237 54.1948 64.2467 54.219 64.2467 54.2481C64.2079 54.3451 64.1788 54.4323 64.1594 54.5099C64.14 54.5875 64.1206 54.6748 64.1012 54.7717C64.0624 54.9269 64.0334 55.1353 64.014 55.3971C63.9946 55.6589 64.0043 55.8674 64.0431 56.0225C64.237 56.0128 64.3485 55.9934 64.3776 55.9643C64.397 55.9449 64.4212 55.9353 64.4503 55.9353C64.5279 55.9159 64.5909 55.911 64.6394 55.9207C64.6878 55.9304 64.7509 55.9256 64.8284 55.9062C65.226 55.7995 65.5847 55.5862 65.9047 55.2662C66.0792 55.1886 66.2441 55.1111 66.3992 55.0335C66.564 54.9559 66.7192 54.8784 66.8646 54.8008C67.1361 54.6069 67.3543 54.4663 67.5191 54.379C67.684 54.2918 67.9312 54.1706 68.2609 54.0154C68.3869 53.87 68.5566 53.7488 68.7699 53.6518C68.9638 53.5645 69.1529 53.4433 69.3371 53.2882C69.3953 53.23 69.4438 53.1767 69.4826 53.1282C69.5408 53.0506 69.5989 53.0361 69.6571 53.0846C69.7541 53.1815 69.8171 53.2834 69.8462 53.39C69.8753 53.4967 69.8801 53.5694 69.8607 53.6082C69.7153 53.7536 69.6329 53.87 69.6135 53.9572C69.5941 54.0445 69.5699 54.1027 69.5408 54.1318C69.4438 54.2287 69.2984 54.316 69.1044 54.3936C68.9396 54.4614 68.8378 54.5245 68.799 54.5826C68.7602 54.6408 68.7263 54.6844 68.6972 54.7135C68.639 54.7717 68.5857 54.8153 68.5372 54.8444C68.4887 54.8735 68.4354 54.9172 68.3772 54.9753C68.3384 55.0335 68.2851 55.0674 68.2172 55.0771L68.0282 55.1208C67.9118 55.2177 67.8149 55.305 67.7373 55.3826C67.6597 55.4601 67.5724 55.5474 67.4755 55.6444C67.33 55.7898 67.2331 55.9013 67.1846 55.9789C67.1458 56.0468 67.0392 56.1389 66.8646 56.2552L66.2829 56.6043C66.0114 56.74 65.7399 56.9049 65.4684 57.0988C65.1969 57.2927 64.9254 57.4866 64.6539 57.6806C64.4794 57.7872 64.2806 57.889 64.0576 57.986C63.854 58.0733 63.6649 58.1751 63.4904 58.2914C63.4031 58.2914 63.3498 58.2866 63.3304 58.2769C63.3013 58.2575 63.248 58.272 63.1704 58.3205C63.0734 58.272 62.9765 58.2672 62.8795 58.306C62.7729 58.3544 62.6759 58.3593 62.5886 58.3205C62.4917 58.2429 62.4093 58.1799 62.3414 58.1314C62.2832 58.0829 62.2347 58.049 62.1959 58.0296C62.1378 57.9908 62.0844 57.9424 62.0359 57.8842C61.9972 57.7872 61.9826 57.6806 61.9923 57.5642C62.002 57.4479 61.9778 57.3509 61.9196 57.2733C61.9196 56.8467 61.9341 56.4395 61.9632 56.0516C61.9923 55.6638 62.0553 55.2565 62.1523 54.8299C62.1717 54.6941 62.2202 54.4614 62.2977 54.1318C62.3753 53.7924 62.4383 53.4676 62.4868 53.1573C62.5353 52.847 62.5208 52.6677 62.4432 52.6192C62.2299 52.7355 62.0117 52.9101 61.7887 53.1428C61.682 53.2591 61.5754 53.3658 61.4687 53.4627C61.3621 53.5597 61.2603 53.647 61.1633 53.7245L60.7124 54.0445C60.6446 54.093 60.5718 54.1463 60.4943 54.2045C60.4167 54.253 60.3391 54.3063 60.2616 54.3645C60.1258 54.4614 60.0095 54.5584 59.9125 54.6554C59.8155 54.7523 59.7089 54.8687 59.5925 55.0044C59.5246 55.0723 59.4568 55.1402 59.3889 55.208C59.3307 55.2662 59.2725 55.3292 59.2144 55.3971C59.098 55.5232 58.9623 55.6444 58.8071 55.7607C58.7102 55.8577 58.6375 55.9207 58.589 55.9498C58.5405 55.9789 58.4775 56.0322 58.3999 56.1098L58.1236 56.3861C58.0363 56.4734 57.9248 56.5461 57.789 56.6043C57.4788 57.0212 57.1297 57.4236 56.7419 57.8115C56.3637 58.1993 56.0631 58.592 55.8401 58.9895C55.6074 59.1835 55.3602 59.3531 55.0984 59.4986C54.8366 59.644 54.5214 59.6586 54.153 59.5422C53.9591 59.4259 53.833 59.3289 53.7748 59.2513C53.7167 59.1835 53.6488 59.1253 53.5712 59.0768C53.5906 58.8635 53.61 58.6599 53.6294 58.4659C53.6488 58.272 53.707 58.0684 53.8039 57.8551L53.9785 57.5642C54.0754 57.3994 54.1384 57.2054 54.1675 56.9824C54.1966 56.7497 54.2596 56.5461 54.3566 56.3716C54.473 56.1777 54.5457 56.0177 54.5748 55.8916C54.6039 55.7753 54.6475 55.6638 54.7057 55.5571C54.7541 55.4407 54.8075 55.3486 54.8657 55.2808C54.9238 55.2129 54.9772 55.1208 55.0256 55.0044C55.0741 54.8978 55.142 54.7863 55.2293 54.6699C55.3165 54.5536 55.3844 54.442 55.4329 54.3354C55.5492 53.9185 55.7044 53.4918 55.8983 53.0555C55.9371 52.9198 55.9759 52.7889 56.0146 52.6628C56.0534 52.5368 56.1019 52.4156 56.1601 52.2992C56.2086 52.1925 56.257 52.0859 56.3055 51.9792C56.354 51.8726 56.4025 51.7708 56.451 51.6738C56.4995 51.5671 56.5479 51.4653 56.5964 51.3684C56.6449 51.2617 56.6934 51.1551 56.7419 51.0484C56.8 50.932 56.8534 50.8302 56.9018 50.743C56.9503 50.6557 57.0133 50.5636 57.0909 50.4666C57.12 50.4181 57.1491 50.3697 57.1782 50.3212C57.2073 50.2727 57.2315 50.2242 57.2509 50.1757C57.2703 50.1273 57.2945 50.0788 57.3236 50.0303C57.3527 49.9818 57.3818 49.9333 57.4109 49.8849C57.44 49.8364 57.4691 49.7879 57.4982 49.7394C57.5272 49.6812 57.5515 49.6182 57.5709 49.5503C57.6097 49.4243 57.6824 49.3031 57.789 49.1867C57.8569 49.1092 57.9151 49.0364 57.9636 48.9686C58.0217 48.891 58.0702 48.8183 58.109 48.7504C58.1769 48.6244 58.3029 48.5371 58.4872 48.4886C58.652 48.5662 58.8217 48.5371 58.9962 48.4013C59.1804 48.2559 59.3307 48.2656 59.4471 48.4304C59.7186 48.605 59.9028 48.7407 59.9998 48.8377C60.1161 48.9443 60.1937 49.051 60.2325 49.1576C60.3294 49.3322 60.3391 49.5116 60.2616 49.6958C60.184 49.88 60.0482 50.04 59.8543 50.1757C59.7864 50.4763 59.6507 50.7866 59.4471 51.1066C59.3501 51.252 59.258 51.3975 59.1707 51.5429C59.0835 51.6786 59.0011 51.8144 58.9235 51.9501L58.6908 52.5319C58.5744 52.8034 58.4532 53.0749 58.3272 53.3464C58.2011 53.6179 58.0605 53.8797 57.9054 54.1318C57.7793 54.3936 57.6824 54.5632 57.6145 54.6408C57.5563 54.7184 57.503 54.796 57.4545 54.8735C57.4157 54.9414 57.343 55.1111 57.2364 55.3826ZM79.9544 56.6625C80.1387 56.7012 80.3132 56.6528 80.478 56.517C80.6525 56.3716 80.8174 56.2552 80.9725 56.168C81.0501 56.071 81.1422 55.9692 81.2489 55.8625C81.3555 55.7559 81.467 55.6638 81.5834 55.5862C81.7191 55.4117 81.8597 55.242 82.0052 55.0771C82.1603 54.9123 82.3203 54.7523 82.4851 54.5972C82.5627 54.5002 82.6403 54.4081 82.7178 54.3208C82.7954 54.2239 82.873 54.1318 82.9505 54.0445C83.0281 53.9572 83.1057 53.87 83.1832 53.7827C83.2608 53.6857 83.3384 53.5888 83.4159 53.4918C83.4935 53.3852 83.5711 53.2591 83.6487 53.1137C83.6777 53.0555 83.7068 52.9973 83.7359 52.9391C83.7747 52.881 83.8135 52.8228 83.8523 52.7646C83.9589 52.5901 84.0704 52.4349 84.1868 52.2992C84.3128 52.1441 84.405 51.9598 84.4631 51.7465C84.5407 51.6205 84.6425 51.5235 84.7686 51.4556C84.8946 51.3878 84.9964 51.2908 85.074 51.1647C85.1225 51.1066 85.171 51.0193 85.2194 50.903C85.2582 50.806 85.3164 50.7284 85.394 50.6702C85.4715 50.6121 85.5152 50.5636 85.5249 50.5248C85.5443 50.4763 85.5685 50.4375 85.5976 50.4084C85.6558 50.3018 85.7285 50.2145 85.8157 50.1467C85.9127 50.0594 85.9951 49.9721 86.063 49.8849C86.3054 49.6909 86.4799 49.5406 86.5866 49.434C86.6932 49.3273 86.8387 49.2158 87.0229 49.0995C87.372 48.9831 87.7259 48.9443 88.0846 48.9831C88.4434 49.0219 88.7003 49.1479 88.8555 49.3613C88.8652 49.4873 88.8797 49.6134 88.8991 49.7394C88.9185 49.8558 88.9379 49.9673 88.9573 50.0739C89.0058 50.3066 88.9718 50.5927 88.8555 50.932C88.7779 51.126 88.681 51.3199 88.5646 51.5138C88.4579 51.6883 88.3707 51.8823 88.3028 52.0956L88.1865 52.2701C88.1283 52.3477 88.0895 52.3962 88.0701 52.4156C87.8859 52.9391 87.6823 53.4482 87.4592 53.9427C87.3526 54.1851 87.2459 54.4323 87.1393 54.6844C87.0326 54.9365 86.926 55.1886 86.8193 55.4407C87.3332 55.1886 87.7016 54.985 87.9247 54.8299C88.0507 54.7426 88.1816 54.6602 88.3174 54.5826C88.4531 54.4954 88.5937 54.413 88.7391 54.3354L89.2627 53.9863C89.35 53.9281 89.4373 53.87 89.5245 53.8118C89.6215 53.7536 89.7184 53.6954 89.8154 53.6373C89.9705 53.4433 90.1451 53.2834 90.339 53.1573C90.5329 53.0313 90.7365 52.9004 90.9499 52.7646C91.0856 52.6289 91.2213 52.5174 91.3571 52.4301C91.4928 52.3428 91.6383 52.2507 91.7934 52.1538C91.8419 52.115 91.8904 52.0762 91.9389 52.0374C91.9873 51.9986 92.031 51.9598 92.0698 51.921C92.1861 51.8241 92.2782 51.7562 92.3461 51.7174L92.5643 51.4847C92.6612 51.3878 92.7436 51.3199 92.8115 51.2811C92.986 51.2132 93.1606 51.126 93.3351 51.0193C93.4321 50.9611 93.5048 50.9126 93.5533 50.8739C93.6211 50.8157 93.7036 50.7672 93.8005 50.7284L94.0041 50.4521C94.0817 50.3357 94.1884 50.3018 94.3241 50.3503C94.3726 50.2921 94.4453 50.263 94.5423 50.263C94.6586 50.263 94.741 50.2824 94.7895 50.3212C94.7895 50.3891 94.8041 50.4472 94.8332 50.4957C94.8622 50.5442 94.8574 50.6121 94.8186 50.6993C94.7217 50.7672 94.6344 50.8399 94.5568 50.9175C94.4986 50.9757 94.4017 51.029 94.2659 51.0775C94.0235 51.3393 93.8054 51.5332 93.6114 51.6593C93.4272 51.7756 93.2769 51.9404 93.1606 52.1538C92.8309 52.4834 92.4915 52.8131 92.1425 53.1428C91.7934 53.4724 91.4444 53.7924 91.0953 54.1027C90.9886 54.1027 90.882 54.1415 90.7753 54.219C90.6687 54.2966 90.5717 54.316 90.4844 54.2772C90.3681 54.2287 90.2711 54.3063 90.1936 54.5099C89.6894 55.0432 89.127 55.5183 88.5064 55.9353C88.1283 56.3328 87.6919 56.6867 87.1974 56.997C86.6932 57.317 86.2569 57.6612 85.8885 58.0296C85.8497 58.4078 85.7479 58.7811 85.583 59.1495C85.4182 59.518 85.2873 59.8719 85.1903 60.2113C85.1128 60.3761 85.0449 60.5312 84.9867 60.6767C84.9382 60.8221 84.8946 60.9579 84.8558 61.0839C84.7783 61.3457 84.6764 61.5881 84.5504 61.8111C84.4922 62.1408 84.3953 62.4462 84.2595 62.7274C84.1238 63.0086 83.9783 63.2849 83.8232 63.5564C83.7747 63.7891 83.6777 63.9927 83.5323 64.1673C83.3966 64.3321 83.2705 64.5454 83.1542 64.8072C83.1057 64.9139 83.0572 65.006 83.0087 65.0836C82.9602 65.1611 82.9117 65.2532 82.8633 65.3599C82.8051 65.4569 82.7566 65.5538 82.7178 65.6508C82.679 65.7478 82.6306 65.8447 82.5724 65.9417L82.456 66.0726C82.4366 66.092 82.4172 66.1114 82.3979 66.1307C82.3785 66.1598 82.3591 66.1841 82.3397 66.2035L81.9906 66.8143C81.8258 67.1634 81.627 67.4397 81.3943 67.6433C81.2683 67.75 81.1422 67.8664 81.0162 67.9924C80.8901 68.1185 80.7592 68.2494 80.6235 68.3851C80.5362 68.4724 80.4538 68.5693 80.3762 68.676C80.3083 68.7729 80.2259 68.8699 80.129 68.9669C80.0029 69.0929 79.9059 69.185 79.8381 69.2432C79.7896 69.282 79.7411 69.3256 79.6926 69.3741C79.6441 69.4323 79.5957 69.4905 79.5472 69.5486C79.392 69.6068 79.266 69.6989 79.169 69.825C79.0721 69.951 78.9751 70.0819 78.8782 70.2177C78.7812 70.2759 78.7182 70.3195 78.6891 70.3486C78.66 70.3777 78.597 70.4213 78.5 70.4795C78.3643 70.528 78.2673 70.5716 78.2091 70.6104C78.1412 70.6588 78.1025 70.6831 78.0928 70.6831C77.9667 70.751 77.8213 70.7946 77.6564 70.814C77.4916 70.8334 77.3559 70.8867 77.2492 70.974C77.0553 70.974 76.9147 70.9352 76.8274 70.8576C76.7402 70.7801 76.6577 70.6928 76.5802 70.5958C76.4444 70.3437 76.4008 70.0819 76.4493 69.8104C76.4881 69.5389 76.5511 69.2529 76.6383 68.9523C76.7256 68.6517 76.7547 68.3366 76.7256 68.007C76.8323 67.6967 76.8904 67.4349 76.9001 67.2216C76.9098 67.0276 76.9486 66.8337 77.0165 66.6398C77.1619 66.3974 77.2395 66.2423 77.2492 66.1744C77.2589 66.0871 77.3171 66.0192 77.4237 65.9708C77.4431 65.8447 77.4722 65.7478 77.511 65.6799C77.5595 65.6023 77.5886 65.515 77.5983 65.4181C77.6564 65.3793 77.7049 65.3308 77.7437 65.2726C77.7825 65.2242 77.8407 65.1757 77.9182 65.1272C78.0152 64.9333 78.1025 64.7539 78.18 64.5891C78.2576 64.4242 78.3206 64.2739 78.3691 64.1382C78.4176 64.0024 78.4709 63.8667 78.5291 63.731C78.597 63.5952 78.6648 63.4595 78.7327 63.3237C78.7618 63.2461 78.786 63.1686 78.8054 63.091C78.8345 63.0231 78.8588 62.9553 78.8782 62.8874C78.8975 62.8195 78.9169 62.7516 78.9363 62.6838C78.9654 62.6256 78.9945 62.5674 79.0236 62.5092C79.1109 62.3153 79.2418 62.102 79.4163 61.8693L79.8962 61.2293C79.9641 61.1421 80.0223 61.0645 80.0708 60.9966C80.1193 60.9385 80.1532 60.89 80.1726 60.8512C80.2308 60.7542 80.2744 60.6864 80.3035 60.6476C80.4683 60.5312 80.541 60.4585 80.5216 60.4294C80.512 60.4003 80.5168 60.3858 80.5362 60.3858C80.798 60.124 81.0501 59.8913 81.2925 59.6877C81.4088 59.5519 81.5252 59.4259 81.6416 59.3095C81.7579 59.1932 81.8937 59.0865 82.0488 58.9895C82.1651 58.8538 82.2815 58.7277 82.3979 58.6114C82.5142 58.495 82.65 58.3884 82.8051 58.2914C82.9602 58.1848 83.1057 58.0733 83.2414 57.9569C83.3869 57.8308 83.5226 57.7048 83.6487 57.5787C83.7747 57.443 83.9056 57.317 84.0413 57.2006C84.1771 57.0842 84.3177 56.9727 84.4631 56.8661C84.5116 56.5752 84.5795 56.3328 84.6668 56.1389C84.754 55.9546 84.8219 55.7219 84.8704 55.4407C84.9479 55.305 85.0158 55.1499 85.074 54.9753C85.1322 54.8008 85.1806 54.636 85.2194 54.4808C85.2776 54.4227 85.3212 54.3451 85.3503 54.2481C85.3891 54.1124 85.4231 54.0057 85.4521 53.9281C85.5491 53.7439 85.5976 53.5791 85.5976 53.4336C85.617 53.2785 85.6267 53.1767 85.6267 53.1282C85.6267 53.0313 85.6461 52.9294 85.6848 52.8228C85.7042 52.687 85.7139 52.5513 85.7139 52.4156C85.5491 52.561 85.4279 52.6967 85.3503 52.8228C85.2534 52.9779 85.1516 53.1234 85.0449 53.2591C85.0061 53.2979 84.9625 53.3415 84.914 53.39C84.8655 53.4385 84.8316 53.5112 84.8122 53.6082C84.6958 53.7342 84.628 53.8021 84.6086 53.8118C84.5698 53.8215 84.5504 53.8506 84.5504 53.8991C84.3274 54.1512 84.1044 54.4081 83.8814 54.6699C83.668 54.922 83.4499 55.1838 83.2269 55.4553C83.0136 55.7268 82.7954 55.9934 82.5724 56.2552C82.3494 56.5073 82.1264 56.7594 81.9033 57.0115C81.7288 57.1667 81.5446 57.317 81.3507 57.4624C81.1567 57.6078 80.9531 57.7581 80.7398 57.9133C80.6622 57.9714 80.575 58.0393 80.478 58.1169C80.3908 58.1848 80.2938 58.2575 80.1871 58.335C79.9641 58.4999 79.7023 58.5338 79.4017 58.4369C78.9557 58.6114 78.5921 58.5775 78.3109 58.335C78.0297 58.0926 77.8116 57.826 77.6564 57.5351C77.5789 57.4188 77.5158 57.317 77.4674 57.2297C77.4189 57.1424 77.4043 56.9921 77.4237 56.7788C77.4431 56.6722 77.4674 56.5655 77.4965 56.4588C77.5158 56.3425 77.5401 56.231 77.5692 56.1243C77.5983 56.0177 77.6273 55.9013 77.6564 55.7753C77.6758 55.6492 77.6952 55.5183 77.7146 55.3826C77.734 55.2759 77.7534 55.1693 77.7728 55.0626C77.7922 54.9559 77.8067 54.8493 77.8164 54.7426C77.8455 54.539 77.8891 54.316 77.9473 54.0736C78.0055 53.8021 78.0831 53.5403 78.18 53.2882C78.277 53.0361 78.3933 52.8228 78.5291 52.6483C78.5776 52.5028 78.6261 52.3622 78.6745 52.2265C78.723 52.081 78.7666 51.9453 78.8054 51.8192C78.8539 51.6835 78.8975 51.5526 78.9363 51.4265C78.9848 51.2908 79.0333 51.1551 79.0818 51.0193C79.1787 50.709 79.2951 50.4084 79.4308 50.1176C79.5666 49.8267 79.712 49.5455 79.8672 49.274C79.9641 49.1383 80.0562 49.0171 80.1435 48.9104C80.2308 48.8037 80.3229 48.6922 80.4198 48.5759C80.6138 48.5565 80.7689 48.5225 80.8853 48.4741C81.0016 48.4256 81.118 48.3723 81.2343 48.3141C81.3022 48.2947 81.3701 48.2753 81.4379 48.2559C81.5058 48.2365 81.5737 48.222 81.6416 48.2123C81.7094 48.1929 81.7725 48.1783 81.8306 48.1686C81.8985 48.1492 81.9615 48.1299 82.0197 48.1105C82.233 48.0135 82.3688 47.9699 82.4269 47.9796C82.4754 47.9893 82.5239 47.965 82.5724 47.9068C82.6112 48.0038 82.6693 48.0668 82.7469 48.0959C82.8342 48.125 82.8827 48.188 82.8924 48.285C82.8924 48.4207 82.839 48.5856 82.7324 48.7795C82.6354 48.9637 82.5627 49.1092 82.5142 49.2158C82.4754 49.2837 82.4366 49.3564 82.3979 49.434C82.3591 49.5116 82.3203 49.594 82.2815 49.6812C82.2039 49.8655 82.1167 50.0206 82.0197 50.1467C82.0003 50.2339 81.9761 50.3212 81.947 50.4084C81.9276 50.4957 81.8985 50.5781 81.8597 50.6557C81.8209 50.7333 81.787 50.8157 81.7579 50.903C81.7288 50.9902 81.6997 51.0775 81.6706 51.1647C81.4767 51.3781 81.307 51.6205 81.1616 51.892C81.0162 52.1635 80.8659 52.4543 80.7107 52.7646C80.6719 52.8616 80.6283 52.9488 80.5798 53.0264C80.541 53.0943 80.4974 53.1815 80.4489 53.2882C80.4295 53.3755 80.4101 53.4627 80.3908 53.55C80.3811 53.6373 80.3665 53.7245 80.3471 53.8118C80.3374 53.8991 80.3229 53.9863 80.3035 54.0736C80.2841 54.1609 80.2647 54.2481 80.2453 54.3354C80.1677 54.539 80.1096 54.762 80.0708 55.0044C80.032 55.2759 80.0029 55.5474 79.9835 55.8189C79.9641 56.0904 79.9544 56.3716 79.9544 56.6625ZM84.1141 59.1641H84.085C83.7068 59.4065 83.3675 59.6828 83.0669 59.9931C82.9214 60.1482 82.7712 60.2985 82.616 60.444C82.4706 60.5991 82.3203 60.7542 82.1651 60.9094C82.0973 60.9869 82.0294 61.0597 81.9615 61.1275C81.8937 61.2051 81.8258 61.2827 81.7579 61.3602C81.6125 61.5251 81.4864 61.6851 81.3798 61.8402C81.2828 62.0147 81.181 62.1941 81.0743 62.3783C80.9677 62.5626 80.8368 62.7322 80.6816 62.8874C80.4392 63.1104 80.2938 63.2801 80.2453 63.3964C80.2162 63.4643 80.1871 63.5225 80.158 63.571C80.129 63.6291 80.0999 63.6825 80.0708 63.731L79.8526 64.1818C79.8138 64.2497 79.775 64.3176 79.7363 64.3854C79.6975 64.463 79.6538 64.5357 79.6054 64.6036C79.5181 64.7684 79.4308 64.9624 79.3436 65.1854C79.2563 65.4084 79.169 65.6023 79.0818 65.7671C78.946 66.1162 78.8394 66.4507 78.7618 66.7707C78.6842 67.0907 78.6551 67.4155 78.6745 67.7452V67.9633C78.6745 68.0215 78.7036 68.0748 78.7618 68.1233C78.8491 68.1233 78.9945 68.0845 79.1981 68.007C79.3533 67.8712 79.5036 67.7355 79.649 67.5997C79.7944 67.464 79.935 67.3185 80.0708 67.1634C80.3423 66.8531 80.6332 66.5428 80.9434 66.2326C81.2149 65.9223 81.4573 65.5878 81.6706 65.229C81.884 64.8703 82.0682 64.4679 82.2233 64.0218C82.2815 63.9152 82.3348 63.8037 82.3833 63.6873C82.4318 63.5807 82.4754 63.4643 82.5142 63.3383C82.5821 63.1056 82.679 62.8874 82.8051 62.6838C82.9117 62.3735 83.0184 62.0681 83.1251 61.7675C83.2414 61.4669 83.3578 61.176 83.4741 60.8948C83.7262 60.2937 83.9395 59.7167 84.1141 59.1641ZM105.581 50.5539C105.678 50.5636 105.741 50.6024 105.77 50.6702C105.8 50.7284 105.853 50.7575 105.93 50.7575C105.969 50.9417 105.93 51.0726 105.814 51.1502C105.698 51.2181 105.659 51.3296 105.698 51.4847C105.523 51.6011 105.31 51.6738 105.058 51.7029C104.796 51.732 104.602 51.8338 104.476 52.0083C104.137 52.1731 103.783 52.275 103.414 52.3137C103.23 52.3331 103.036 52.3622 102.832 52.401C102.639 52.4301 102.44 52.464 102.236 52.5028C102.023 52.6483 101.892 52.7258 101.843 52.7355C101.776 52.7452 101.703 52.7743 101.625 52.8228C101.422 52.7452 101.218 52.7064 101.014 52.7064C100.811 52.7064 100.598 52.6773 100.375 52.6192C100.268 52.658 100.156 52.6773 100.04 52.6773C99.9236 52.6773 99.8121 52.6967 99.7055 52.7355C99.6279 52.9101 99.5891 53.0846 99.5891 53.2591C99.5891 53.4433 99.56 53.6179 99.5019 53.7827L99.3273 54.1318L99.2837 54.4081C99.2643 54.5245 99.2401 54.6166 99.211 54.6844C99.1722 54.7426 99.1286 54.8105 99.0801 54.8881C99.0316 54.9656 99.0074 55.0529 99.0074 55.1499C98.8716 55.3244 98.7746 55.5038 98.7165 55.688C98.6583 55.9013 98.5516 56.071 98.3965 56.197C98.3383 56.4007 98.2462 56.5558 98.1202 56.6625C97.9941 56.7788 97.8729 56.9146 97.7566 57.0697C97.5432 57.3606 97.3542 57.6127 97.1893 57.826C97.0245 58.0393 96.8063 58.2235 96.5348 58.3787C96.4379 58.5338 96.3215 58.6405 96.1858 58.6987C96.0888 58.7956 96.0112 58.8926 95.9531 58.9895L95.3713 59.3386C95.1386 59.484 94.9156 59.581 94.7023 59.6295C94.3726 59.7071 94.0526 59.6974 93.7423 59.6004C93.4321 59.5034 93.1412 59.3677 92.8697 59.1932C92.6855 59.2125 92.5449 59.1786 92.4479 59.0913C92.351 59.0138 92.2201 58.9508 92.0552 58.9023C91.8419 58.7083 91.6092 58.5338 91.3571 58.3787C91.0953 58.2138 90.9111 58.0005 90.8044 57.7387L90.6735 57.0988C90.6347 56.9049 90.5911 56.7109 90.5426 56.517C90.5038 56.3522 90.499 56.168 90.5281 55.9643C90.5572 55.7898 90.562 55.5959 90.5426 55.3826C90.5426 55.2759 90.5426 55.179 90.5426 55.0917C90.5426 54.9947 90.5378 54.9123 90.5281 54.8444C90.5184 54.699 90.562 54.5196 90.659 54.3063C90.7172 54.1802 90.7656 54.0639 90.8044 53.9572C90.8432 53.8506 90.8723 53.7585 90.8917 53.6809C90.9111 53.6033 90.9305 53.5306 90.9499 53.4627C90.9693 53.3852 90.9886 53.3173 91.008 53.2591C91.0371 53.2106 91.0662 53.1622 91.0953 53.1137C91.1244 53.0555 91.1535 52.9973 91.1826 52.9391C91.2117 52.881 91.2407 52.8276 91.2698 52.7792C91.3086 52.721 91.3474 52.6677 91.3862 52.6192C91.5025 52.4446 91.6383 52.2701 91.7934 52.0956C91.9486 51.921 92.1037 51.7562 92.2588 51.6011C92.3655 51.4556 92.4722 51.3296 92.5788 51.2229C92.7533 51.0484 92.9182 50.903 93.0733 50.7866C93.2285 50.6702 93.403 50.5151 93.5969 50.3212C93.6357 50.263 93.6842 50.2145 93.7423 50.1757L93.9169 50.0594C94.1108 49.943 94.2902 49.8461 94.455 49.7685C94.6199 49.6909 94.8089 49.6037 95.0222 49.5067C95.2065 49.4194 95.3568 49.3661 95.4731 49.3467C95.5507 49.3273 95.6282 49.3128 95.7058 49.3031C95.7931 49.2837 95.8852 49.2643 95.9822 49.2449H96.3312C96.4379 49.2449 96.5348 49.2255 96.6221 49.1867C96.5639 49.0316 96.6318 48.9249 96.8257 48.8668C97.0196 48.8086 97.1651 48.7892 97.262 48.8086C97.456 48.8086 97.6111 48.8522 97.7275 48.9395C97.8438 49.0267 97.9505 49.1286 98.0474 49.2449C98.2414 49.3807 98.4547 49.5843 98.6874 49.8558C98.7359 49.9042 98.7843 49.9333 98.8328 49.943C98.8813 49.9527 98.9298 49.9818 98.9783 50.0303C99.0558 50.1467 99.1092 50.2533 99.1383 50.3503C99.1673 50.4666 99.2304 50.5733 99.3273 50.6702C99.3855 50.709 99.4437 50.7575 99.5019 50.8157C99.56 50.8739 99.5988 50.9514 99.6182 51.0484C99.8218 51.126 100.006 51.1841 100.171 51.2229C100.258 51.2617 100.36 51.2714 100.476 51.252C100.583 51.2326 100.704 51.2326 100.84 51.252C100.927 51.2617 101.014 51.2859 101.102 51.3247C101.179 51.3538 101.267 51.3684 101.364 51.3684C101.509 51.3587 101.669 51.3199 101.843 51.252C102.008 51.1938 102.197 51.1841 102.411 51.2229C102.702 51.2908 103.007 51.2617 103.327 51.1357C103.647 50.9999 103.972 50.9126 104.301 50.8739C104.398 50.8739 104.466 50.869 104.505 50.8593C104.544 50.8496 104.612 50.8448 104.709 50.8448C104.806 50.7672 104.932 50.709 105.087 50.6702C105.242 50.6315 105.407 50.5927 105.581 50.5539ZM97.262 51.4265C97.0681 51.252 96.9566 51.1405 96.9275 51.092C96.8887 51.0338 96.8548 50.9999 96.8257 50.9902C96.7385 50.903 96.6415 50.8545 96.5348 50.8448C96.4767 50.8351 96.4185 50.8254 96.3603 50.8157C96.3118 50.806 96.2633 50.7963 96.2149 50.7866C95.9046 50.7284 95.6476 50.7624 95.444 50.8884C95.3471 50.9563 95.2453 51.0193 95.1386 51.0775C95.0416 51.1357 94.9447 51.1938 94.8477 51.252C94.5374 51.4459 94.2659 51.6883 94.0332 51.9792C93.9751 52.0762 93.912 52.1828 93.8442 52.2992C93.7763 52.4156 93.723 52.5416 93.6842 52.6773C93.6066 52.8325 93.5387 52.9731 93.4806 53.0991C93.4224 53.2252 93.3739 53.3755 93.3351 53.55C93.2381 53.7342 93.18 53.8942 93.1606 54.03C93.1509 54.0978 93.1412 54.1609 93.1315 54.219C93.1218 54.2675 93.1121 54.316 93.1024 54.3645C93.0927 54.4614 93.0782 54.5632 93.0588 54.6699C93.0394 54.7669 93.02 54.8687 93.0006 54.9753C92.9521 55.2177 92.9279 55.402 92.9279 55.528C92.9473 55.5862 92.9764 55.6638 93.0151 55.7607C93.0539 55.8577 93.0927 55.9256 93.1315 55.9643C93.1703 56.0613 93.2139 56.168 93.2624 56.2843C93.3109 56.4007 93.3545 56.4879 93.3933 56.5461C93.4999 56.6819 93.626 56.7691 93.7714 56.8079C93.849 56.8273 93.9314 56.8515 94.0187 56.8806C94.106 56.9 94.1981 56.9243 94.295 56.9533C94.5083 57.0697 94.6538 57.1182 94.7314 57.0988C94.8283 57.0794 94.8865 57.0697 94.9059 57.0697C95.1677 57.0212 95.3907 56.9146 95.5749 56.7497C95.7398 56.5946 95.9337 56.4588 96.1567 56.3425C96.2343 56.2261 96.3118 56.1049 96.3894 55.9789C96.4767 55.8528 96.5688 55.7268 96.6657 55.6007C96.7627 55.465 96.85 55.3341 96.9275 55.208C97.0148 55.0723 97.0972 54.9365 97.1748 54.8008C97.2233 54.7426 97.2717 54.6554 97.3202 54.539C97.3396 54.4905 97.359 54.4469 97.3784 54.4081C97.3978 54.3596 97.4172 54.316 97.4366 54.2772C97.5723 54.1124 97.6354 54.0251 97.6257 54.0154C97.616 54.0057 97.6208 53.9766 97.6402 53.9281C97.7662 53.6373 97.8244 53.4143 97.8147 53.2591C97.805 53.104 97.805 52.9488 97.8147 52.7937C97.7662 52.687 97.7226 52.5755 97.6838 52.4592C97.645 52.3428 97.6063 52.2216 97.5675 52.0956C97.4899 51.8338 97.3881 51.6108 97.262 51.4265ZM109.508 58.7568L109.334 58.1169C109.217 57.8745 109.198 57.4963 109.276 56.9824L109.377 56.4734C109.397 56.4055 109.411 56.3182 109.421 56.2116C109.44 56.1049 109.46 55.974 109.479 55.8189C109.499 55.6735 109.518 55.528 109.537 55.3826C109.566 55.2274 109.6 55.0723 109.639 54.9172C109.678 54.762 109.707 54.6069 109.726 54.4517C109.756 54.2966 109.78 54.1415 109.799 53.9863C109.654 54.2093 109.513 54.4372 109.377 54.6699C109.242 54.9026 109.111 55.145 108.985 55.3971C108.742 55.8722 108.442 56.2843 108.083 56.6334C108.005 56.8661 107.908 57.0164 107.792 57.0842C107.676 57.1424 107.559 57.2006 107.443 57.2588C107.327 57.317 107.23 57.4575 107.152 57.6806C107.055 57.7775 106.963 57.8793 106.876 57.986C106.789 58.0926 106.725 58.2235 106.687 58.3787C106.59 58.4175 106.493 58.495 106.396 58.6114C106.212 58.7956 106.095 58.8926 106.047 58.9023C105.998 58.912 105.95 58.9411 105.901 58.9895C105.707 59.1447 105.538 59.261 105.392 59.3386C105.247 59.4162 105.077 59.4646 104.883 59.484C104.67 59.5228 104.394 59.5519 104.054 59.5713C103.889 59.581 103.739 59.5907 103.603 59.6004C103.468 59.6101 103.351 59.6198 103.254 59.6295C103.128 59.5325 103.031 59.4743 102.963 59.455C102.934 59.4453 102.891 59.4307 102.832 59.4113C102.784 59.3919 102.721 59.3677 102.643 59.3386C102.362 59.2222 102.226 59.1689 102.236 59.1786C102.226 59.1689 102.212 59.1592 102.193 59.1495C102.163 59.1398 102.13 59.1253 102.091 59.1059C101.936 58.9895 101.829 58.8974 101.771 58.8296C101.732 58.7811 101.664 58.7083 101.567 58.6114C101.247 58.1169 101.063 57.4769 101.014 56.6916C100.995 56.4201 101.044 56.1486 101.16 55.8771C101.276 55.6056 101.383 55.3632 101.48 55.1499C101.596 54.9075 101.722 54.6844 101.858 54.4808C101.936 54.3645 102.008 54.253 102.076 54.1463C102.134 54.0397 102.188 53.9378 102.236 53.8409C102.353 53.6082 102.372 53.4579 102.294 53.39C102.226 53.3124 102.246 53.1622 102.353 52.9391C102.401 52.784 102.459 52.6483 102.527 52.5319L102.789 52.0665C102.963 51.7562 103.148 51.4799 103.342 51.2375C103.516 51.0242 103.661 50.7381 103.778 50.3794C103.875 50.1079 104.006 49.8994 104.171 49.754C104.335 49.6085 104.534 49.4776 104.767 49.3613C104.864 49.4 105.004 49.3855 105.189 49.3176C105.373 49.2498 105.513 49.177 105.61 49.0995C105.746 49.0995 105.853 49.0607 105.93 48.9831C106.144 48.9443 106.255 48.9443 106.265 48.9831C106.275 49.0219 106.299 49.0413 106.338 49.0413C106.376 49.051 106.43 49.051 106.498 49.0413C106.565 49.0316 106.619 49.0316 106.658 49.0413C106.725 49.2449 106.774 49.371 106.803 49.4194C106.842 49.4679 106.861 49.5164 106.861 49.5649C106.861 49.6231 106.856 49.7006 106.847 49.7976C106.837 49.8946 106.822 49.9624 106.803 50.0012C106.696 50.1467 106.633 50.2388 106.614 50.2776L106.57 50.3794C106.512 50.4569 106.444 50.549 106.367 50.6557C106.299 50.7527 106.221 50.869 106.134 51.0048L105.669 51.6883C105.562 51.8532 105.465 51.9598 105.378 52.0083C105.271 52.0665 105.184 52.1731 105.116 52.3283C105.077 52.3962 105.048 52.4689 105.029 52.5464C105.019 52.6143 104.99 52.687 104.941 52.7646C104.718 53.23 104.466 53.7003 104.185 54.1754C104.04 54.4178 103.899 54.6602 103.763 54.9026C103.637 55.1353 103.516 55.3632 103.4 55.5862C103.39 55.6638 103.375 55.7413 103.356 55.8189C103.337 55.8868 103.317 55.9595 103.298 56.0371C103.249 56.2019 103.225 56.3425 103.225 56.4588C103.225 56.4879 103.215 56.6382 103.196 56.9097C103.177 57.1812 103.186 57.3412 103.225 57.3897C103.342 57.5545 103.409 57.6272 103.429 57.6078C103.448 57.5884 103.468 57.5933 103.487 57.6224C103.565 57.8163 103.618 57.9278 103.647 57.9569C103.676 57.986 103.739 58.0199 103.836 58.0587C103.914 58.0781 104.025 58.0636 104.171 58.0151C104.316 57.9666 104.427 57.923 104.505 57.8842C104.738 57.7678 104.912 57.6466 105.029 57.5206C105.145 57.3945 105.261 57.2636 105.378 57.1279C105.669 56.7788 105.979 56.3716 106.309 55.9062C106.638 55.4407 106.948 55.0335 107.239 54.6844C107.346 54.4517 107.487 54.219 107.661 53.9863C107.845 53.7342 107.986 53.5112 108.083 53.3173L108.49 52.5319C108.548 52.4252 108.611 52.3089 108.679 52.1828C108.747 52.0568 108.82 51.921 108.897 51.7756C109.014 51.6108 109.135 51.4605 109.261 51.3247C109.387 51.189 109.479 50.9902 109.537 50.7284C109.586 50.5927 109.659 50.4618 109.756 50.3357C109.804 50.2679 109.848 50.2097 109.886 50.1612C109.935 50.103 109.974 50.0497 110.003 50.0012C110.148 49.8655 110.24 49.7588 110.279 49.6812C110.318 49.6037 110.381 49.5358 110.468 49.4776C110.682 49.4194 110.846 49.3758 110.963 49.3467C111.079 49.3176 111.224 49.3225 111.399 49.3613C111.554 49.2643 111.719 49.2158 111.894 49.2158C111.981 49.2158 112.063 49.2207 112.141 49.2304C112.228 49.2304 112.31 49.2352 112.388 49.2449C112.388 49.3419 112.412 49.4049 112.461 49.434C112.509 49.4631 112.533 49.5164 112.533 49.594C112.611 49.7685 112.611 49.9818 112.533 50.2339C112.446 50.5151 112.398 50.7672 112.388 50.9902C112.34 51.1938 112.267 51.3732 112.17 51.5284C112.063 51.7029 111.981 51.892 111.923 52.0956C111.884 52.241 111.85 52.3574 111.821 52.4446C111.801 52.5319 111.787 52.5901 111.777 52.6192L111.69 52.9391C111.651 53.1137 111.612 53.2834 111.574 53.4482C111.535 53.6033 111.496 53.7585 111.457 53.9136C111.38 54.2239 111.321 54.5681 111.283 54.9462C111.283 55.0432 111.268 55.145 111.239 55.2517C111.21 55.3486 111.195 55.4407 111.195 55.528C111.195 55.625 111.2 55.7413 111.21 55.8771C111.22 56.0128 111.273 56.1001 111.37 56.1389C111.477 56.1777 111.569 56.168 111.646 56.1098C111.743 56.0322 111.845 55.9643 111.952 55.9062C112.02 55.8577 112.117 55.7704 112.243 55.6444C112.369 55.5183 112.466 55.4311 112.533 55.3826C112.63 55.2856 112.737 55.208 112.853 55.1499C112.97 55.0917 113.076 55.0141 113.173 54.9172C113.329 54.7814 113.479 54.6457 113.624 54.5099C113.779 54.3645 113.925 54.219 114.061 54.0736C114.351 53.773 114.657 53.5306 114.977 53.3464C115.287 53.0167 115.602 52.7113 115.922 52.4301C116.242 52.1489 116.606 51.9114 117.013 51.7174C117.168 51.9695 117.207 52.178 117.129 52.3428C117.052 52.5077 116.955 52.6677 116.839 52.8228C116.79 52.8713 116.722 52.9198 116.635 52.9682C116.528 53.0264 116.451 53.0749 116.402 53.1137L116.257 53.2591C116.199 53.3173 116.15 53.3464 116.111 53.3464C116.111 53.4239 116.087 53.487 116.039 53.5355L115.908 53.6664C115.782 53.8603 115.646 54.0445 115.5 54.219C115.365 54.3839 115.219 54.5439 115.064 54.699C114.909 54.8541 114.754 55.0093 114.599 55.1644C114.453 55.3099 114.308 55.4601 114.162 55.6153C114.027 55.6638 113.944 55.7268 113.915 55.8044C113.886 55.9013 113.823 55.9837 113.726 56.0516C113.687 56.1001 113.649 56.1437 113.61 56.1825C113.571 56.2213 113.532 56.2601 113.493 56.2989C113.455 56.3376 113.416 56.3764 113.377 56.4152C113.338 56.454 113.299 56.4976 113.261 56.5461C113.144 56.6722 113.043 56.8031 112.955 56.9388C112.868 57.0649 112.747 57.1861 112.592 57.3024C112.495 57.3994 112.422 57.5012 112.373 57.6078C112.335 57.7048 112.262 57.8066 112.155 57.9133C112 58.0684 111.889 58.1411 111.821 58.1314C111.763 58.1217 111.709 58.2138 111.661 58.4078C111.506 58.5241 111.418 58.6065 111.399 58.655C111.389 58.6938 111.36 58.7083 111.312 58.6987C111.263 58.718 111.195 58.7326 111.108 58.7423C111.011 58.752 110.963 58.7762 110.963 58.815C110.837 58.8732 110.735 58.9314 110.657 58.9895C110.58 59.0574 110.488 59.0962 110.381 59.1059C110.129 59.1447 109.949 59.1301 109.843 59.0623C109.736 58.9944 109.625 58.8926 109.508 58.7568Z" fill="black"/>
<path d="M23.3388 87.9526H13.9262C13.5489 87.9526 13.2709 87.8732 13.0922 87.7143C12.9333 87.5356 12.8539 87.2576 12.8539 86.8803V83.3953C12.8539 83.018 12.9333 82.7499 13.0922 82.5911C13.2709 82.4123 13.5489 82.323 13.9262 82.323H21.9388C22.197 82.323 22.3856 82.2435 22.5048 82.0847C22.6438 81.906 22.7133 81.6975 22.7133 81.4592C22.7133 81.1216 22.6438 80.8734 22.5048 80.7145C22.3856 80.5556 22.197 80.4663 21.9388 80.4464L17.4708 79.8209C16.0808 79.6223 14.9588 79.1656 14.1049 78.4507C13.2709 77.7358 12.8539 76.5444 12.8539 74.8763V71.7487C12.8539 70.0608 13.4 68.7701 14.4922 67.8765C15.5843 66.963 17.0935 66.5063 19.0197 66.5063H27.36C27.7373 66.5063 28.0053 66.5957 28.1642 66.7744C28.3429 66.9333 28.4323 67.2013 28.4323 67.5786V71.1232C28.4323 71.5005 28.3429 71.7785 28.1642 71.9573C28.0053 72.1161 27.7373 72.1955 27.36 72.1955H20.4197C20.1615 72.1955 19.963 72.2849 19.824 72.4636C19.685 72.6225 19.6155 72.831 19.6155 73.0891C19.6155 73.3473 19.685 73.5657 19.824 73.7444C19.963 73.9232 20.1615 74.0225 20.4197 74.0423L24.8579 74.638C26.2479 74.8366 27.3699 75.2933 28.2238 76.0082C29.0777 76.7231 29.5046 77.9146 29.5046 79.5826V82.7102C29.5046 84.3981 28.9486 85.6988 27.8365 86.6122C26.7444 87.5058 25.2451 87.9526 23.3388 87.9526ZM38.4522 87.9526H33.8353C33.458 87.9526 33.18 87.8732 33.0013 87.7143C32.8424 87.5356 32.763 87.2576 32.763 86.8803V67.5786C32.763 67.2013 32.8424 66.9333 33.0013 66.7744C33.18 66.5957 33.458 66.5063 33.8353 66.5063H42.95C45.6506 66.5063 47.4974 67.0425 48.4903 68.1148C49.4832 69.1871 49.9796 70.5871 49.9796 72.3147V76.1274C49.9796 77.855 49.4832 79.255 48.4903 80.3273C47.4974 81.3996 45.6506 81.9358 42.95 81.9358H39.5245V86.8803C39.5245 87.2576 39.4352 87.5356 39.2564 87.7143C39.0976 87.8732 38.8295 87.9526 38.4522 87.9526ZM39.4649 72.0764V76.5742H42.1457C42.7216 76.5742 43.0989 76.4252 43.2776 76.1274C43.4563 75.8295 43.5457 75.4919 43.5457 75.1146V73.5359C43.5457 73.1586 43.4563 72.8211 43.2776 72.5232C43.0989 72.2253 42.7216 72.0764 42.1457 72.0764H39.4649ZM71.2365 82.323C71.2365 83.2364 71.0975 84.0705 70.8195 84.825C70.5613 85.5598 70.0847 86.1952 69.3897 86.7314C68.7146 87.2477 67.7713 87.6548 66.56 87.9526C65.3685 88.2505 63.8494 88.3994 62.0027 88.3994C60.1559 88.3994 58.6269 88.2505 57.4155 87.9526C56.2042 87.6548 55.251 87.2477 54.556 86.7314C53.8809 86.1952 53.4043 85.5598 53.1263 84.825C52.8681 84.0705 52.739 83.2364 52.739 82.323V72.1658C52.739 71.2523 52.8681 70.4282 53.1263 69.6935C53.4043 68.9389 53.8809 68.2935 54.556 67.7573C55.251 67.2212 56.2042 66.8042 57.4155 66.5063C58.6269 66.2084 60.1559 66.0595 62.0027 66.0595C63.8494 66.0595 65.3685 66.2084 66.56 66.5063C67.7713 66.8042 68.7146 67.2212 69.3897 67.7573C70.0847 68.2935 70.5613 68.9389 70.8195 69.6935C71.0975 70.4282 71.2365 71.2523 71.2365 72.1658V82.323ZM59.5006 81.2507C59.5006 81.6478 59.6495 81.9854 59.9474 82.2634C60.2453 82.5216 60.9303 82.6506 62.0027 82.6506C63.075 82.6506 63.7601 82.5216 64.0579 82.2634C64.3558 81.9854 64.5047 81.6478 64.5047 81.2507V73.2381C64.5047 72.8608 64.3558 72.5431 64.0579 72.2849C63.7601 72.0069 63.075 71.8679 62.0027 71.8679C60.9303 71.8679 60.2453 72.0069 59.9474 72.2849C59.6495 72.5431 59.5006 72.8608 59.5006 73.2381V81.2507ZM85.0105 87.9526H80.185C79.8077 87.9526 79.5297 87.8732 79.351 87.7143C79.1921 87.5356 79.1127 87.2576 79.1127 86.8803V72.2551H74.7341C74.3568 72.2551 74.0788 72.1757 73.9001 72.0168C73.7412 71.8381 73.6618 71.5601 73.6618 71.1828V67.5786C73.6618 67.2013 73.7412 66.9333 73.9001 66.7744C74.0788 66.5957 74.3568 66.5063 74.7341 66.5063H90.4614C90.8387 66.5063 91.1068 66.5957 91.2656 66.7744C91.4444 66.9333 91.5337 67.2013 91.5337 67.5786V71.1828C91.5337 71.5601 91.4444 71.8381 91.2656 72.0168C91.1068 72.1757 90.8387 72.2551 90.4614 72.2551H86.0828V86.8803C86.0828 87.2576 85.9934 87.5356 85.8147 87.7143C85.6558 87.8732 85.3878 87.9526 85.0105 87.9526ZM101.426 87.9526C101.048 87.9526 100.77 87.8732 100.592 87.7143C100.433 87.5356 100.353 87.2576 100.353 86.8803V83.3357C100.353 82.9584 100.433 82.6903 100.592 82.5315C100.77 82.3528 101.048 82.2634 101.426 82.2634H104.375V72.2551H101.426C101.048 72.2551 100.77 72.1757 100.592 72.0168C100.433 71.8381 100.353 71.5601 100.353 71.1828V67.5786C100.353 67.2013 100.433 66.9333 100.592 66.7744C100.77 66.5957 101.048 66.5063 101.426 66.5063H114.115C114.492 66.5063 114.76 66.5957 114.919 66.7744C115.098 66.9333 115.187 67.2013 115.187 67.5786V71.1828C115.187 71.5601 115.098 71.8381 114.919 72.0168C114.76 72.1757 114.492 72.2551 114.115 72.2551H111.225V82.2634H114.115C114.492 82.2634 114.76 82.3528 114.919 82.5315C115.098 82.6903 115.187 82.9584 115.187 83.3357V86.8803C115.187 87.2576 115.098 87.5356 114.919 87.7143C114.76 87.8732 114.492 87.9526 114.115 87.9526H101.426ZM128.992 87.9526H124.167C123.789 87.9526 123.511 87.8732 123.333 87.7143C123.174 87.5356 123.094 87.2576 123.094 86.8803V72.2551H118.716C118.339 72.2551 118.061 72.1757 117.882 72.0168C117.723 71.8381 117.643 71.5601 117.643 71.1828V67.5786C117.643 67.2013 117.723 66.9333 117.882 66.7744C118.061 66.5957 118.339 66.5063 118.716 66.5063H134.443C134.82 66.5063 135.088 66.5957 135.247 66.7744C135.426 66.9333 135.515 67.2013 135.515 67.5786V71.1828C135.515 71.5601 135.426 71.8381 135.247 72.0168C135.088 72.1757 134.82 72.2551 134.443 72.2551H130.064V86.8803C130.064 87.2576 129.975 87.5356 129.796 87.7143C129.638 87.8732 129.369 87.9526 128.992 87.9526Z" fill="black"/>
</svg>
