<svg width="142" height="88" viewBox="0 0 142 88" fill="none" xmlns="http://www.w3.org/2000/svg">
<path d="M127.592 63.0136L102.788 66.4C101.629 66.522 100.775 66.3695 100.226 65.9424C99.7376 65.5153 99.402 64.722 99.219 63.5627L97.2969 51.4814C97.1139 50.3221 97.2664 49.4373 97.7546 48.8271C98.3037 48.217 99.158 47.8509 100.317 47.7288L118.531 45.1661C119.446 45.0441 120.087 44.7695 120.453 44.3424C120.819 43.9153 121.002 43.2441 121.002 42.3288C121.002 41.4746 120.788 40.8339 120.361 40.4068C119.934 39.9797 119.324 39.7661 118.531 39.7661H93.2698C92.1105 39.7661 91.2563 39.5221 90.7071 39.0339C90.219 38.4848 89.9749 37.6305 89.9749 36.4712V25.3966C89.9749 24.2373 90.219 23.4136 90.7071 22.9254C91.2563 22.3763 92.1105 22.1017 93.2698 22.1017H122.833C128.751 22.1017 133.388 23.5051 136.744 26.3119C140.1 29.0577 141.778 33.0238 141.778 38.2102V47.8204C141.778 52.9458 140.497 56.6068 137.934 58.8034C135.372 61 131.924 62.4034 127.592 63.0136ZM117.341 88H100.592C99.4325 88 98.5783 87.7559 98.0291 87.2678C97.541 86.7187 97.2969 85.8644 97.2969 84.7051V72.7153C97.2969 71.5559 97.541 70.7322 98.0291 70.2441C98.5783 69.6949 99.4325 69.4204 100.592 69.4204H117.341C118.5 69.4204 119.324 69.6949 119.812 70.2441C120.361 70.7322 120.636 71.5559 120.636 72.7153V84.7051C120.636 85.8644 120.361 86.7187 119.812 87.2678C119.324 87.7559 118.5 88 117.341 88Z" fill="#EAEAEA"/>
<path d="M19.1552 75.625H11.0723C10.7483 75.625 10.5095 75.5568 10.356 75.4204C10.2196 75.2669 10.1514 75.0282 10.1514 74.7042V71.7114C10.1514 71.3874 10.2196 71.1572 10.356 71.0208C10.5095 70.8673 10.7483 70.7906 11.0723 70.7906H17.953C18.1747 70.7906 18.3367 70.7224 18.439 70.586C18.5584 70.4325 18.618 70.2534 18.618 70.0488C18.618 69.7589 18.5584 69.5458 18.439 69.4093C18.3367 69.2729 18.1747 69.1962 17.953 69.1791L14.1161 68.642C12.9225 68.4714 11.959 68.0792 11.2257 67.4653C10.5095 66.8514 10.1514 65.8283 10.1514 64.3959V61.7101C10.1514 60.2606 10.6204 59.1522 11.5583 58.3848C12.4961 57.6004 13.7921 57.2082 15.4463 57.2082H22.6084C22.9324 57.2082 23.1626 57.2849 23.299 57.4384C23.4525 57.5748 23.5292 57.805 23.5292 58.129V61.1729C23.5292 61.4969 23.4525 61.7356 23.299 61.8891C23.1626 62.0255 22.9324 62.0938 22.6084 62.0938H16.6485C16.4268 62.0938 16.2563 62.1705 16.1369 62.324C16.0175 62.4604 15.9578 62.6394 15.9578 62.8611C15.9578 63.0828 16.0175 63.2704 16.1369 63.4239C16.2563 63.5773 16.4268 63.6626 16.6485 63.6796L20.4597 64.1912C21.6534 64.3618 22.6169 64.754 23.3501 65.3679C24.0834 65.9818 24.45 67.0049 24.45 68.4373V71.1231C24.45 72.5726 23.9726 73.6895 23.0176 74.474C22.0797 75.2413 20.7923 75.625 19.1552 75.625ZM32.1337 75.625H28.169C27.845 75.625 27.6062 75.5568 27.4528 75.4204C27.3163 75.2669 27.2481 75.0282 27.2481 74.7042V58.129C27.2481 57.805 27.3163 57.5748 27.4528 57.4384C27.6062 57.2849 27.845 57.2082 28.169 57.2082H35.9961C38.3153 57.2082 39.9012 57.6686 40.7538 58.5894C41.6065 59.5103 42.0328 60.7125 42.0328 62.1961V65.4702C42.0328 66.9538 41.6065 68.156 40.7538 69.0768C39.9012 69.9976 38.3153 70.4581 35.9961 70.4581H33.0546V74.7042C33.0546 75.0282 32.9778 75.2669 32.8243 75.4204C32.6879 75.5568 32.4577 75.625 32.1337 75.625ZM33.0034 61.9914V65.8539H35.3055C35.8 65.8539 36.124 65.726 36.2775 65.4702C36.431 65.2144 36.5077 64.9245 36.5077 64.6005V63.2448C36.5077 62.9208 36.431 62.6309 36.2775 62.3751C36.124 62.1193 35.8 61.9914 35.3055 61.9914H33.0034ZM60.2869 70.7906C60.2869 71.575 60.1676 72.2912 59.9288 72.9392C59.7072 73.5702 59.2979 74.1159 58.701 74.5763C58.1213 75.0196 57.3113 75.3692 56.271 75.625C55.2479 75.8808 53.9434 76.0087 52.3575 76.0087C50.7716 76.0087 49.4585 75.8808 48.4183 75.625C47.3781 75.3692 46.5596 75.0196 45.9627 74.5763C45.3829 74.1159 44.9737 73.5702 44.7349 72.9392C44.5133 72.2912 44.4024 71.575 44.4024 70.7906V62.0682C44.4024 61.2838 44.5133 60.5761 44.7349 59.9451C44.9737 59.2971 45.3829 58.7429 45.9627 58.2825C46.5596 57.8221 47.3781 57.464 48.4183 57.2082C49.4585 56.9524 50.7716 56.8245 52.3575 56.8245C53.9434 56.8245 55.2479 56.9524 56.271 57.2082C57.3113 57.464 58.1213 57.8221 58.701 58.2825C59.2979 58.7429 59.7072 59.2971 59.9288 59.9451C60.1676 60.5761 60.2869 61.2838 60.2869 62.0682V70.7906ZM50.2088 69.8698C50.2088 70.2108 50.3367 70.5007 50.5925 70.7394C50.8483 70.9611 51.4366 71.072 52.3575 71.072C53.2783 71.072 53.8666 70.9611 54.1224 70.7394C54.3782 70.5007 54.5061 70.2108 54.5061 69.8698V62.989C54.5061 62.665 54.3782 62.3922 54.1224 62.1705C53.8666 61.9318 53.2783 61.8124 52.3575 61.8124C51.4366 61.8124 50.8483 61.9318 50.5925 62.1705C50.3367 62.3922 50.2088 62.665 50.2088 62.989V69.8698ZM72.1152 75.625H67.9714C67.6474 75.625 67.4087 75.5568 67.2552 75.4204C67.1188 75.2669 67.0506 75.0282 67.0506 74.7042V62.1449H63.2905C62.9665 62.1449 62.7277 62.0767 62.5743 61.9403C62.4378 61.7868 62.3696 61.5481 62.3696 61.2241V58.129C62.3696 57.805 62.4378 57.5748 62.5743 57.4384C62.7277 57.2849 62.9665 57.2082 63.2905 57.2082H76.7962C77.1202 57.2082 77.3504 57.2849 77.4868 57.4384C77.6403 57.5748 77.717 57.805 77.717 58.129V61.2241C77.717 61.5481 77.6403 61.7868 77.4868 61.9403C77.3504 62.0767 77.1202 62.1449 76.7962 62.1449H73.0361V74.7042C73.0361 75.0282 72.9593 75.2669 72.8058 75.4204C72.6694 75.5568 72.4392 75.625 72.1152 75.625ZM92.2512 62.5798L91.049 66.4678H95.0649L93.8627 62.5798C93.7945 62.4263 93.7178 62.3154 93.6325 62.2472C93.5643 62.179 93.479 62.1449 93.3767 62.1449H92.7372C92.6349 62.1449 92.5411 62.179 92.4559 62.2472C92.3877 62.3154 92.3194 62.4263 92.2512 62.5798ZM90.7932 74.7042C90.7932 75.0282 90.7165 75.2669 90.563 75.4204C90.4266 75.5568 90.1964 75.625 89.8724 75.625H86.1123C85.7883 75.625 85.5495 75.5568 85.3961 75.4204C85.2597 75.2669 85.1914 75.0282 85.1914 74.7042V67.9513C85.1914 67.4398 85.2682 66.8514 85.4217 66.1864C85.5922 65.5213 85.848 64.7454 86.189 63.8587L88.4144 58.0523C88.5167 57.7624 88.6702 57.5492 88.8748 57.4128C89.0965 57.2764 89.3779 57.2082 89.7189 57.2082H96.5997C96.9237 57.2082 97.188 57.2764 97.3926 57.4128C97.6143 57.5492 97.7763 57.7624 97.8786 58.0523L100.104 63.8587C100.445 64.7454 100.692 65.5213 100.846 66.1864C101.016 66.8514 101.102 67.4398 101.102 67.9513V74.7042C101.102 75.0282 101.025 75.2669 100.871 75.4204C100.735 75.5568 100.505 75.625 100.181 75.625H96.3183C95.9772 75.625 95.7214 75.5568 95.5509 75.4204C95.3974 75.2669 95.3207 75.0282 95.3207 74.7042V71.1231H90.7932V74.7042ZM104.771 75.625C104.447 75.625 104.209 75.5568 104.055 75.4204C103.919 75.2669 103.85 75.0282 103.85 74.7042V71.6603C103.85 71.3363 103.919 71.1061 104.055 70.9696C104.209 70.8162 104.447 70.7394 104.771 70.7394H107.304V62.1449H104.771C104.447 62.1449 104.209 62.0767 104.055 61.9403C103.919 61.7868 103.85 61.5481 103.85 61.2241V58.129C103.85 57.805 103.919 57.5748 104.055 57.4384C104.209 57.2849 104.447 57.2082 104.771 57.2082H115.668C115.992 57.2082 116.222 57.2849 116.359 57.4384C116.512 57.5748 116.589 57.805 116.589 58.129V61.2241C116.589 61.5481 116.512 61.7868 116.359 61.9403C116.222 62.0767 115.992 62.1449 115.668 62.1449H113.187V70.7394H115.668C115.992 70.7394 116.222 70.8162 116.359 70.9696C116.512 71.1061 116.589 71.3363 116.589 71.6603V74.7042C116.589 75.0282 116.512 75.2669 116.359 75.4204C116.222 75.5568 115.992 75.625 115.668 75.625H104.771Z" fill="#08609F"/>
<path d="M38.3851 44.9718C38.5516 45.18 38.6307 45.3216 38.6224 45.3965C38.6141 45.4548 38.6099 45.5464 38.6099 45.6713C38.5266 45.7629 38.46 45.8669 38.4101 45.9835C38.3684 46.0834 38.2935 46.1792 38.1852 46.2708C38.0853 46.3374 37.9979 46.3832 37.923 46.4082C37.823 46.4331 37.7439 46.4873 37.6857 46.5705C37.5691 46.6122 37.4858 46.6538 37.4359 46.6954C37.3776 46.7454 37.2777 46.762 37.1361 46.7454C36.7364 47.145 36.3826 47.4698 36.0745 47.7196C35.7664 47.9694 35.4458 48.2108 35.1128 48.444C34.863 48.6605 34.6007 48.8603 34.3259 49.0435C34.0512 49.2267 33.7722 49.4099 33.4891 49.593C33.3809 49.7013 33.3059 49.7804 33.2643 49.8303C33.206 49.9053 33.1227 49.9677 33.0145 50.0177C32.823 50.2092 32.619 50.3882 32.4025 50.5547C32.2943 50.638 32.1902 50.7171 32.0903 50.792C31.9987 50.8753 31.9071 50.9586 31.8155 51.0418C31.6323 51.1751 31.4366 51.2667 31.2285 51.3166C31.012 51.3666 30.8163 51.4332 30.6415 51.5165C30.3251 51.658 30.0836 51.683 29.9171 51.5914L29.4549 51.6788C29.33 51.7038 29.176 51.6913 28.9928 51.6413C28.9429 51.6247 28.8929 51.5997 28.8429 51.5664C28.818 51.5498 28.7888 51.5331 28.7555 51.5165C28.7305 51.4998 28.7014 51.4831 28.6681 51.4665C28.5016 51.3999 28.3725 51.3291 28.2809 51.2542C28.1893 51.1792 28.1102 51.1085 28.0436 51.0418C27.9936 50.9919 27.9354 50.9211 27.8687 50.8295C27.8021 50.7379 27.7522 50.6588 27.7189 50.5922C27.6356 50.459 27.5815 50.2966 27.5565 50.1051C27.5315 49.9136 27.494 49.7263 27.4441 49.5431C27.4108 49.3765 27.3608 49.1934 27.2942 48.9935C27.2359 48.8103 27.2109 48.6188 27.2193 48.419C27.2276 48.3524 27.2401 48.2858 27.2567 48.2192C27.2734 48.1526 27.29 48.0901 27.3067 48.0318L27.4191 47.6446C27.4691 47.5281 27.5149 47.4157 27.5565 47.3074C27.5981 47.1992 27.6356 47.0951 27.6689 46.9952C27.7272 46.812 27.8021 46.6205 27.8937 46.4206C27.9437 46.3374 27.9978 46.2708 28.0561 46.2208C28.1144 46.1709 28.1685 46.1042 28.2185 46.021C28.2434 45.996 28.2642 45.946 28.2809 45.8711C28.2976 45.7878 28.3184 45.7295 28.3433 45.6962L28.768 45.2341C28.8429 45.1509 28.9137 45.0676 28.9803 44.9843C29.0469 44.9011 29.1094 44.8136 29.1677 44.722C29.2093 44.6638 29.2509 44.6096 29.2926 44.5597C29.3425 44.5014 29.3883 44.4514 29.43 44.4098C29.4716 44.3682 29.5132 44.3224 29.5549 44.2724C29.6048 44.2141 29.6506 44.1558 29.6922 44.0976C29.7838 43.9727 29.8546 43.8936 29.9046 43.8603C29.9462 43.8353 29.9837 43.7978 30.017 43.7478C30.1169 43.6479 30.2085 43.5438 30.2917 43.4356C30.375 43.3274 30.4583 43.215 30.5415 43.0984C30.5998 43.0401 30.6581 42.9818 30.7164 42.9235C30.783 42.8569 30.8455 42.7903 30.9037 42.7237C31.0203 42.5988 31.1494 42.4905 31.2909 42.399C31.4491 42.3074 31.6032 42.2324 31.753 42.1741C31.8363 42.1408 31.9196 42.1075 32.0028 42.0742C32.0861 42.0326 32.1735 41.991 32.2651 41.9493C32.3567 41.9077 32.4358 41.8661 32.5024 41.8244C32.569 41.7828 32.6481 41.7412 32.7397 41.6995C32.8396 41.6579 32.9312 41.6329 33.0145 41.6246C33.0894 41.6163 33.1644 41.5746 33.2393 41.4997C33.3392 41.5163 33.4308 41.4997 33.5141 41.4497C33.5974 41.3998 33.6806 41.3581 33.7639 41.3248C33.8472 41.3165 33.9263 41.3165 34.0012 41.3248C34.0761 41.3415 34.1386 41.3248 34.1885 41.2749C34.2302 41.3082 34.2843 41.3248 34.3509 41.3248C34.4092 41.3248 34.455 41.3415 34.4883 41.3748C34.6465 41.4164 34.7464 41.533 34.788 41.7245C34.8214 41.9743 34.7589 42.2324 34.6007 42.4989C34.4425 42.7653 34.3051 42.9652 34.1885 43.0984C34.047 43.3315 33.8388 43.5314 33.5641 43.6979C33.3725 43.6979 33.1685 43.7104 32.9521 43.7354C32.7272 43.7603 32.5399 43.7562 32.39 43.7229C32.3484 43.7978 32.3026 43.8436 32.2526 43.8603C32.186 43.8852 32.1735 43.931 32.2152 43.9976C31.649 44.4806 31.1494 44.9927 30.7164 45.5339C30.2834 46.0751 29.942 46.7121 29.6922 47.4448C29.6006 47.7446 29.5174 47.9486 29.4424 48.0568C29.3592 48.1734 29.3175 48.3024 29.3175 48.444C29.4175 48.7937 29.584 49.0893 29.8171 49.3308C30.0503 49.5722 30.2834 49.7096 30.5166 49.7429C30.783 49.7762 31.0203 49.7263 31.2285 49.593C31.445 49.4515 31.6406 49.3349 31.8155 49.2433C31.9321 49.1601 32.0486 49.081 32.1652 49.006C32.2818 48.9311 32.3942 48.8603 32.5024 48.7937L33.2143 48.369C33.281 48.3357 33.3476 48.2983 33.4142 48.2566C33.4808 48.215 33.5474 48.1692 33.614 48.1192C33.8138 47.9777 34.0095 47.832 34.201 47.6821C34.2926 47.6155 34.38 47.5489 34.4633 47.4823C34.5549 47.4073 34.6465 47.3366 34.7381 47.2699C34.813 47.2616 34.8755 47.2325 34.9254 47.1825C34.9671 47.1409 35.0295 47.1201 35.1128 47.1201C35.4125 46.8536 35.7373 46.6163 36.087 46.4082C36.4367 46.2 36.8031 45.9877 37.1861 45.7712C37.3193 45.638 37.44 45.5339 37.5483 45.4589C37.6565 45.384 37.7773 45.2799 37.9105 45.1467C38.027 45.1467 38.1103 45.1176 38.1603 45.0593C38.2102 45.001 38.2852 44.9718 38.3851 44.9718ZM44.4301 43.7728L44.4051 43.9727C44.4218 44.0309 44.4051 44.1309 44.3552 44.2724C44.2719 44.3723 44.2219 44.4806 44.2053 44.5971C44.172 44.6638 44.1428 44.722 44.1179 44.772C44.0929 44.822 44.0721 44.8886 44.0554 44.9718C44.0221 45.0718 44.0096 45.1883 44.0179 45.3216C44.0263 45.3882 44.0263 45.4548 44.0179 45.5214C44.0179 45.5797 44.0138 45.638 44.0055 45.6962C43.9722 45.8794 43.9472 46.0584 43.9305 46.2333C43.9139 46.4082 43.8972 46.5872 43.8806 46.7704C43.8806 46.9535 43.8639 47.1617 43.8306 47.3948C43.7973 47.628 43.764 47.8361 43.7307 48.0193C43.8056 48.1526 43.8473 48.2775 43.8556 48.394C43.8639 48.5189 43.9222 48.6272 44.0304 48.7188C44.3635 48.6688 44.6299 48.5897 44.8298 48.4814C45.0296 48.3732 45.2211 48.2192 45.4043 48.0193C45.5375 47.961 45.6416 47.9028 45.7166 47.8445C45.7832 47.7862 45.8789 47.7196 46.0038 47.6446L46.2036 47.4448C46.4035 47.3366 46.5159 47.2699 46.5409 47.245C46.5575 47.2283 46.5783 47.2117 46.6033 47.195C46.6366 47.1784 46.6699 47.1617 46.7032 47.145C46.9863 46.9619 47.2028 46.7704 47.3527 46.5705C47.4776 46.4706 47.5817 46.3665 47.6649 46.2583C47.7316 46.1667 47.8606 46.0793 48.0521 45.996C48.1604 45.8628 48.2811 45.7504 48.4143 45.6588C48.5476 45.5672 48.6683 45.4548 48.7765 45.3216C48.8681 45.3216 48.9347 45.3382 48.9764 45.3715C49.0013 45.3882 49.0263 45.4048 49.0513 45.4215C49.0846 45.4381 49.1179 45.4548 49.1512 45.4714C49.2012 45.6047 49.2095 45.742 49.1762 45.8836C49.1429 46.0251 49.0846 46.1542 49.0013 46.2708C48.9181 46.379 48.8764 46.4456 48.8764 46.4706C48.8764 46.4873 48.8681 46.5039 48.8515 46.5206C48.8015 46.5788 48.7391 46.6413 48.6641 46.7079C48.5892 46.7662 48.5267 46.8286 48.4768 46.8953C48.3935 47.0451 48.3269 47.1201 48.2769 47.1201C48.227 47.1201 48.1854 47.1367 48.152 47.17C48.0022 47.2616 47.8981 47.3282 47.8398 47.3699C47.7732 47.4282 47.6774 47.4948 47.5525 47.5697C47.3777 47.6613 47.2694 47.7279 47.2278 47.7695C47.1862 47.8112 47.1529 47.8361 47.1279 47.8445C46.9281 48.0693 46.7324 48.2566 46.5409 48.4065C46.366 48.5397 46.1787 48.7271 45.9788 48.9685C45.9122 49.0185 45.8456 49.0685 45.779 49.1184C45.7124 49.1684 45.6541 49.235 45.6041 49.3183C45.4543 49.4182 45.3335 49.5181 45.2419 49.618C45.1503 49.7179 45.0463 49.8345 44.9297 49.9677C44.8298 50.0177 44.7215 50.0885 44.605 50.1801C44.4634 50.2883 44.3385 50.3674 44.2303 50.4174C44.1886 50.4423 44.1179 50.4798 44.0179 50.5298C43.9347 50.5714 43.8556 50.5922 43.7806 50.5922C43.5891 50.6255 43.406 50.6089 43.2311 50.5423C43.0729 50.484 42.9147 50.434 42.7565 50.3924C42.6899 50.2925 42.6066 50.2092 42.5067 50.1426C42.3568 49.9594 42.2486 49.7429 42.182 49.4931C42.1153 49.2433 42.0487 48.9769 41.9821 48.6938C41.8322 48.7937 41.7074 48.9019 41.6074 49.0185C41.5075 49.1434 41.3576 49.2516 41.1578 49.3432C40.9913 49.5014 40.8206 49.6596 40.6457 49.8178C40.4709 49.9677 40.2877 50.1134 40.0962 50.255C39.913 50.3965 39.7256 50.5464 39.5341 50.7046C39.3426 50.8545 39.1511 51.0085 38.9596 51.1667C38.8264 51.3 38.7348 51.3499 38.6848 51.3166C38.535 51.4998 38.2685 51.5581 37.8855 51.4915C37.7523 51.4249 37.6024 51.3666 37.4359 51.3166C37.3193 51.2833 37.1861 51.2334 37.0362 51.1667C36.7531 51.1168 36.5158 50.9919 36.3243 50.792C36.1328 50.5922 35.9704 50.3591 35.8372 50.0926C35.7872 49.9511 35.7498 49.8262 35.7248 49.7179C35.7164 49.6596 35.704 49.5972 35.6873 49.5306C35.6707 49.464 35.654 49.3932 35.6373 49.3183C35.629 49.1767 35.604 49.0643 35.5624 48.981C35.5291 48.8894 35.5291 48.802 35.5624 48.7188C35.5291 48.6771 35.5208 48.623 35.5374 48.5564C35.5541 48.4731 35.5624 48.4107 35.5624 48.369C35.5458 48.1359 35.5666 47.8861 35.6249 47.6197C35.6831 47.3532 35.7622 47.1117 35.8622 46.8953C35.9121 46.812 35.9787 46.7287 36.062 46.6455C36.1036 46.5955 36.1286 46.5455 36.1369 46.4956C36.1453 46.454 36.1702 46.4123 36.2119 46.3707C36.2535 46.3207 36.3035 46.2708 36.3617 46.2208C36.445 46.1542 36.5033 46.1042 36.5366 46.0709C36.5782 46.0126 36.6199 45.9585 36.6615 45.9086C36.7115 45.8503 36.7656 45.8003 36.8239 45.7587C36.8822 45.7171 36.9363 45.6713 36.9862 45.6213C37.0362 45.5713 37.0862 45.5214 37.1361 45.4714C37.1944 45.4131 37.2402 45.3549 37.2735 45.2966C37.3151 45.23 37.3776 45.18 37.4608 45.1467C37.5275 45.0301 37.6024 44.9344 37.6857 44.8594C37.7689 44.7845 37.8605 44.7054 37.9604 44.6221C38.2435 44.2807 38.5932 43.9893 39.0096 43.7478C39.4342 43.5064 39.8089 43.2399 40.1336 42.9485C40.2502 42.8985 40.3501 42.8403 40.4334 42.7736C40.5167 42.707 40.5999 42.6404 40.6832 42.5738C40.8914 42.3906 41.1162 42.3323 41.3576 42.399L42.0071 42.5738C42.1736 42.7237 42.336 42.8736 42.4942 43.0234C42.6524 43.1733 42.7898 43.3398 42.9064 43.523C42.9646 43.5147 43.0271 43.5105 43.0937 43.5105C43.1603 43.5022 43.2311 43.5022 43.306 43.5105C43.4559 43.5272 43.6141 43.5147 43.7806 43.4731C43.8306 43.4731 43.8806 43.4606 43.9305 43.4356C43.9805 43.4106 44.0221 43.3981 44.0554 43.3981C44.3052 43.4814 44.4301 43.6063 44.4301 43.7728ZM41.1328 44.1475C40.6832 44.364 40.2752 44.618 39.9088 44.9094C39.5425 45.2008 39.1928 45.5131 38.8597 45.8461C38.8181 45.8878 38.7723 45.9294 38.7223 45.971C38.6807 46.0043 38.639 46.0418 38.5974 46.0834C38.5558 46.1167 38.5141 46.1542 38.4725 46.1958C38.4309 46.2375 38.3934 46.2791 38.3601 46.3207C38.2935 46.404 38.231 46.5039 38.1728 46.6205C38.1145 46.7371 38.0604 46.8453 38.0104 46.9452C37.9937 46.9785 37.9771 47.0118 37.9604 47.0451C37.9438 47.0701 37.9271 47.0909 37.9105 47.1076C37.8938 47.1242 37.8772 47.145 37.8605 47.17C37.8439 47.195 37.8272 47.22 37.8106 47.245C37.7773 47.3282 37.7648 47.4115 37.7731 47.4948C37.7814 47.553 37.7856 47.6446 37.7856 47.7695V48.0193C37.7856 48.0693 37.7939 48.1526 37.8106 48.2691C37.8605 48.4523 37.8855 48.6355 37.8855 48.8187C37.8855 48.9519 37.898 49.1143 37.923 49.3058C37.9479 49.4973 38.0104 49.6263 38.1103 49.693C38.2186 49.7596 38.3226 49.7762 38.4226 49.7429C38.5391 49.7013 38.6349 49.6763 38.7098 49.668C39.2927 49.2183 39.8422 48.7479 40.3585 48.2566C40.8747 47.7654 41.3327 47.2117 41.7323 46.5955C41.699 46.1875 41.6949 45.767 41.7198 45.334C41.7448 44.926 41.7074 44.5472 41.6074 44.1975C41.5408 44.1558 41.4617 44.1434 41.3701 44.16C41.3035 44.1683 41.2244 44.1642 41.1328 44.1475ZM49.1512 47.6446C49.2844 47.5614 49.3927 47.4531 49.476 47.3199C49.5176 47.2533 49.5634 47.1867 49.6133 47.1201C49.6633 47.0535 49.7174 46.9868 49.7757 46.9202C49.9922 46.6704 50.2253 46.4623 50.4751 46.2957C50.5917 46.1209 50.7374 45.9918 50.9123 45.9086C51.0871 45.817 51.2245 45.6796 51.3244 45.4964C51.3494 45.4631 51.3786 45.4131 51.4119 45.3465C51.4452 45.2799 51.4743 45.23 51.4993 45.1967C51.8157 44.7553 52.1571 44.389 52.5234 44.0976C52.5734 44.0559 52.6234 44.0143 52.6733 43.9727C52.7233 43.931 52.7691 43.8894 52.8107 43.8478C52.8773 43.7812 52.9897 43.6979 53.1479 43.598C53.2229 43.5563 53.2978 43.5105 53.3727 43.4606C53.4477 43.4023 53.5185 43.3398 53.5851 43.2732C53.7183 43.14 53.8723 43.0401 54.0472 42.9735C54.1554 42.9235 54.2637 42.8861 54.3719 42.8611C54.4219 42.8444 54.4718 42.8319 54.5218 42.8236C54.5801 42.807 54.6384 42.7903 54.6967 42.7736C54.8132 42.7403 54.9173 42.7112 55.0089 42.6862C55.1005 42.6612 55.2046 42.6654 55.3211 42.6987C55.5876 42.807 55.7874 43.0318 55.9207 43.3732C55.9706 43.4981 55.9415 43.7603 55.8332 44.16C55.7333 44.5597 55.6126 44.976 55.471 45.409C55.3295 45.8336 55.2296 46.1625 55.1713 46.3957C55.138 46.5206 55.1296 46.5913 55.1463 46.608C55.1629 46.6246 55.1713 46.6455 55.1713 46.6704C55.138 46.7537 55.113 46.8286 55.0963 46.8953C55.0797 46.9619 55.063 47.0368 55.0464 47.1201C55.0131 47.2533 54.9881 47.4323 54.9714 47.6571C54.9548 47.8819 54.9631 48.061 54.9964 48.1942C55.1629 48.1859 55.2587 48.1692 55.2837 48.1442C55.3003 48.1276 55.3211 48.1192 55.3461 48.1192C55.4127 48.1026 55.4669 48.0984 55.5085 48.1068C55.5501 48.1151 55.6042 48.1109 55.6709 48.0943C56.0122 48.0027 56.3203 47.8195 56.5951 47.5447C56.745 47.4781 56.8865 47.4115 57.0197 47.3449C57.1613 47.2783 57.2945 47.2117 57.4194 47.145C57.6526 46.9785 57.8399 46.8578 57.9815 46.7828C58.123 46.7079 58.3353 46.6038 58.6184 46.4706C58.7267 46.3457 58.8724 46.2416 59.0556 46.1584C59.2221 46.0834 59.3845 45.9793 59.5427 45.8461C59.5926 45.7962 59.6343 45.7504 59.6676 45.7087C59.7175 45.6421 59.7675 45.6296 59.8174 45.6713C59.9007 45.7545 59.9548 45.842 59.9798 45.9335C60.0048 46.0251 60.009 46.0876 59.9923 46.1209C59.8674 46.2458 59.7966 46.3457 59.78 46.4206C59.7633 46.4956 59.7425 46.5455 59.7175 46.5705C59.6343 46.6538 59.5094 46.7287 59.3428 46.7953C59.2013 46.8536 59.1139 46.9077 59.0806 46.9577C59.0472 47.0077 59.0181 47.0451 58.9931 47.0701C58.9432 47.1201 58.8974 47.1575 58.8557 47.1825C58.8141 47.2075 58.7683 47.245 58.7183 47.2949C58.685 47.3449 58.6392 47.374 58.581 47.3824L58.4186 47.4198C58.3187 47.5031 58.2354 47.578 58.1688 47.6446C58.1022 47.7113 58.0273 47.7862 57.944 47.8695C57.8191 47.9944 57.7358 48.0901 57.6942 48.1567C57.6609 48.215 57.5693 48.2941 57.4194 48.394L56.9198 48.6938C56.6867 48.8103 56.4535 48.9519 56.2204 49.1184C55.9873 49.285 55.7541 49.4515 55.521 49.618C55.3711 49.7096 55.2004 49.797 55.0089 49.8803C54.834 49.9552 54.6717 50.0427 54.5218 50.1426C54.4469 50.1426 54.4011 50.1384 54.3844 50.1301C54.3594 50.1134 54.3136 50.1259 54.247 50.1676C54.1638 50.1259 54.0805 50.1218 53.9972 50.1551C53.9056 50.1967 53.8224 50.2009 53.7474 50.1676C53.6642 50.101 53.5934 50.0468 53.5351 50.0052C53.4852 49.9636 53.4435 49.9344 53.4102 49.9178C53.3603 49.8845 53.3145 49.8428 53.2728 49.7929C53.2395 49.7096 53.227 49.618 53.2354 49.5181C53.2437 49.4182 53.2229 49.3349 53.1729 49.2683C53.1729 48.9019 53.1854 48.5522 53.2104 48.2192C53.2354 47.8861 53.2895 47.5364 53.3727 47.17C53.3894 47.0535 53.431 46.8536 53.4976 46.5705C53.5643 46.2791 53.6184 46.0002 53.66 45.7337C53.7016 45.4673 53.6892 45.3132 53.6225 45.2716C53.4394 45.3715 53.252 45.5214 53.0605 45.7212C52.9689 45.8211 52.8773 45.9127 52.7857 45.996C52.6941 46.0793 52.6067 46.1542 52.5234 46.2208L52.1363 46.4956C52.078 46.5372 52.0155 46.583 51.9489 46.633C51.8823 46.6746 51.8157 46.7204 51.7491 46.7704C51.6325 46.8536 51.5326 46.9369 51.4493 47.0202C51.3661 47.1034 51.2745 47.2033 51.1746 47.3199C51.1163 47.3782 51.058 47.4365 50.9997 47.4948C50.9497 47.5447 50.8998 47.5988 50.8498 47.6571C50.7499 47.7654 50.6333 47.8695 50.5001 47.9694C50.4168 48.0526 50.3544 48.1068 50.3128 48.1317C50.2711 48.1567 50.217 48.2025 50.1504 48.2691L49.9131 48.5064C49.8382 48.5814 49.7424 48.6438 49.6258 48.6938C49.3594 49.0518 49.0596 49.3974 48.7266 49.7304C48.4018 50.0635 48.1437 50.4007 47.9522 50.7421C47.7524 50.9086 47.54 51.0543 47.3152 51.1792C47.0904 51.3041 46.8198 51.3166 46.5034 51.2167C46.3369 51.1168 46.2286 51.0335 46.1787 50.9669C46.1287 50.9086 46.0704 50.8587 46.0038 50.817C46.0205 50.6338 46.0371 50.459 46.0538 50.2925C46.0704 50.1259 46.1204 49.9511 46.2036 49.7679L46.3535 49.5181C46.4368 49.3765 46.4909 49.21 46.5159 49.0185C46.5409 48.8187 46.595 48.6438 46.6783 48.4939C46.7782 48.3274 46.8406 48.19 46.8656 48.0818C46.8906 47.9819 46.9281 47.8861 46.978 47.7945C47.0196 47.6946 47.0654 47.6155 47.1154 47.5572C47.1654 47.4989 47.2112 47.4198 47.2528 47.3199C47.2944 47.2283 47.3527 47.1326 47.4276 47.0326C47.5026 46.9327 47.5609 46.837 47.6025 46.7454C47.7024 46.3873 47.8356 46.021 48.0022 45.6463C48.0355 45.5297 48.0688 45.4173 48.1021 45.3091C48.1354 45.2008 48.177 45.0967 48.227 44.9968C48.2686 44.9052 48.3102 44.8136 48.3519 44.722C48.3935 44.6305 48.4351 44.543 48.4768 44.4598C48.5184 44.3682 48.56 44.2807 48.6017 44.1975C48.6433 44.1059 48.6849 44.0143 48.7266 43.9227C48.7765 43.8228 48.8223 43.7354 48.864 43.6604C48.9056 43.5855 48.9597 43.5064 49.0263 43.4231C49.0513 43.3815 49.0763 43.3398 49.1013 43.2982C49.1262 43.2566 49.1471 43.215 49.1637 43.1733C49.1804 43.1317 49.2012 43.0901 49.2262 43.0484C49.2511 43.0068 49.2761 42.9652 49.3011 42.9235C49.3261 42.8819 49.3511 42.8403 49.376 42.7986C49.401 42.7487 49.4218 42.6945 49.4385 42.6363C49.4718 42.528 49.5342 42.4239 49.6258 42.324C49.6841 42.2574 49.7341 42.195 49.7757 42.1367C49.8257 42.0701 49.8673 42.0076 49.9006 41.9493C49.9589 41.8411 50.0671 41.7661 50.2253 41.7245C50.3669 41.7911 50.5126 41.7661 50.6625 41.6496C50.8207 41.5247 50.9497 41.533 51.0497 41.6746C51.2828 41.8244 51.441 41.941 51.5243 42.0243C51.6242 42.1159 51.6908 42.2074 51.7241 42.299C51.8074 42.4489 51.8157 42.603 51.7491 42.7612C51.6825 42.9194 51.5659 43.0567 51.3994 43.1733C51.3411 43.4314 51.2245 43.6979 51.0497 43.9727C50.9664 44.0976 50.8873 44.2225 50.8124 44.3474C50.7374 44.4639 50.6666 44.5805 50.6 44.6971L50.4002 45.1967C50.3003 45.4298 50.1962 45.6629 50.088 45.8961C49.9797 46.1292 49.859 46.354 49.7258 46.5705C49.6175 46.7953 49.5342 46.9411 49.476 47.0077C49.426 47.0743 49.3802 47.1409 49.3386 47.2075C49.3053 47.2658 49.2428 47.4115 49.1512 47.6446ZM68.6602 48.7437C68.8184 48.777 68.9682 48.7354 69.1098 48.6188C69.2597 48.4939 69.4012 48.394 69.5344 48.3191C69.6011 48.2358 69.6802 48.1484 69.7718 48.0568C69.8633 47.9652 69.9591 47.8861 70.059 47.8195C70.1756 47.6696 70.2963 47.5239 70.4212 47.3824C70.5544 47.2408 70.6918 47.1034 70.8334 46.9702C70.9 46.8869 70.9666 46.8078 71.0332 46.7329C71.0998 46.6496 71.1664 46.5705 71.233 46.4956C71.2997 46.4206 71.3663 46.3457 71.4329 46.2708C71.4995 46.1875 71.5661 46.1042 71.6327 46.021C71.6993 45.9294 71.7659 45.8211 71.8326 45.6962C71.8575 45.6463 71.8825 45.5963 71.9075 45.5464C71.9408 45.4964 71.9741 45.4464 72.0074 45.3965C72.099 45.2466 72.1948 45.1134 72.2947 44.9968C72.4029 44.8636 72.482 44.7054 72.532 44.5222C72.5986 44.414 72.686 44.3307 72.7943 44.2724C72.9025 44.2141 72.9899 44.1309 73.0565 44.0226C73.0982 43.9727 73.1398 43.8977 73.1814 43.7978C73.2148 43.7145 73.2647 43.6479 73.3313 43.598C73.3979 43.548 73.4354 43.5064 73.4437 43.4731C73.4604 43.4314 73.4812 43.3981 73.5062 43.3732C73.5561 43.2816 73.6186 43.2066 73.6935 43.1483C73.7768 43.0734 73.8476 42.9985 73.9058 42.9235C74.114 42.757 74.2639 42.6279 74.3555 42.5363C74.4471 42.4448 74.572 42.349 74.7302 42.2491C75.0299 42.1492 75.3338 42.1159 75.6419 42.1492C75.95 42.1825 76.1707 42.2907 76.3039 42.4739C76.3122 42.5821 76.3247 42.6904 76.3413 42.7986C76.358 42.8985 76.3746 42.9943 76.3913 43.0859C76.4329 43.2857 76.4038 43.5314 76.3039 43.8228C76.2373 43.9893 76.154 44.1558 76.0541 44.3224C75.9625 44.4722 75.8876 44.6388 75.8293 44.822L75.7293 44.9718C75.6794 45.0385 75.6461 45.0801 75.6294 45.0967C75.4712 45.5464 75.2964 45.9835 75.1049 46.4082C75.0133 46.6163 74.9217 46.8286 74.8301 47.0451C74.7385 47.2616 74.6469 47.4781 74.5553 47.6946C74.9966 47.4781 75.313 47.3033 75.5045 47.17C75.6128 47.0951 75.7252 47.0243 75.8418 46.9577C75.9583 46.8828 76.0791 46.812 76.204 46.7454L76.6536 46.4456C76.7285 46.3957 76.8035 46.3457 76.8784 46.2957C76.9617 46.2458 77.0449 46.1958 77.1282 46.1459C77.2614 45.9793 77.4113 45.842 77.5778 45.7337C77.7444 45.6255 77.9192 45.5131 78.1024 45.3965C78.219 45.2799 78.3355 45.1842 78.4521 45.1092C78.5687 45.0343 78.6936 44.9552 78.8268 44.8719C78.8684 44.8386 78.9101 44.8053 78.9517 44.772C78.9933 44.7387 79.0308 44.7054 79.0641 44.6721C79.164 44.5888 79.2431 44.5305 79.3014 44.4972L79.4888 44.2974C79.572 44.2141 79.6428 44.1558 79.7011 44.1225C79.851 44.0643 80.0008 43.9893 80.1507 43.8977C80.234 43.8478 80.2964 43.8061 80.3381 43.7728C80.3963 43.7229 80.4671 43.6812 80.5504 43.6479L80.7252 43.4106C80.7918 43.3107 80.8834 43.2816 81 43.3232C81.0416 43.2732 81.1041 43.2483 81.1874 43.2483C81.2873 43.2483 81.358 43.2649 81.3997 43.2982C81.3997 43.3565 81.4122 43.4065 81.4371 43.4481C81.4621 43.4897 81.458 43.548 81.4247 43.6229C81.3414 43.6812 81.2665 43.7437 81.1998 43.8103C81.1499 43.8603 81.0666 43.906 80.9501 43.9477C80.7419 44.1725 80.5545 44.339 80.388 44.4473C80.2298 44.5472 80.1007 44.6887 80.0008 44.8719C79.7177 45.155 79.4263 45.4381 79.1266 45.7212C78.8268 46.0043 78.527 46.2791 78.2273 46.5455C78.1357 46.5455 78.0441 46.5788 77.9525 46.6455C77.8609 46.7121 77.7777 46.7287 77.7027 46.6954C77.6028 46.6538 77.5195 46.7204 77.4529 46.8953C77.02 47.3532 76.537 47.7612 76.0041 48.1192C75.6794 48.4606 75.3047 48.7646 74.88 49.031C74.4471 49.3058 74.0724 49.6014 73.756 49.9178C73.7227 50.2425 73.6352 50.5631 73.4937 50.8795C73.3521 51.1959 73.2397 51.4998 73.1565 51.7912C73.0899 51.9328 73.0316 52.066 72.9816 52.1909C72.94 52.3158 72.9025 52.4324 72.8692 52.5406C72.8026 52.7654 72.7152 52.9736 72.6069 53.1651C72.557 53.4482 72.4737 53.7105 72.3571 53.9519C72.2406 54.1934 72.1157 54.4307 71.9824 54.6639C71.9408 54.8637 71.8575 55.0386 71.7326 55.1884C71.6161 55.33 71.5078 55.5132 71.4079 55.738C71.3663 55.8296 71.3246 55.9087 71.283 55.9753C71.2414 56.0419 71.1997 56.121 71.1581 56.2126C71.1082 56.2959 71.0665 56.3791 71.0332 56.4624C70.9999 56.5456 70.9583 56.6289 70.9083 56.7122L70.8084 56.8246C70.7917 56.8412 70.7751 56.8579 70.7584 56.8745C70.7418 56.8995 70.7251 56.9203 70.7085 56.937L70.4087 57.4616C70.2672 57.7613 70.0965 57.9986 69.8966 58.1735C69.7884 58.2651 69.6802 58.365 69.5719 58.4732C69.4637 58.5815 69.3513 58.6939 69.2347 58.8104C69.1598 58.8854 69.089 58.9687 69.0224 59.0602C68.9641 59.1435 68.8933 59.2268 68.81 59.31C68.7018 59.4183 68.6185 59.4974 68.5602 59.5473C68.5186 59.5806 68.477 59.6181 68.4354 59.6597C68.3937 59.7097 68.3521 59.7597 68.3105 59.8096C68.1772 59.8596 68.069 59.9387 67.9857 60.0469C67.9025 60.1552 67.8192 60.2676 67.7359 60.3842C67.6527 60.4341 67.5985 60.4716 67.5736 60.4966C67.5486 60.5215 67.4945 60.559 67.4112 60.609C67.2946 60.6506 67.2114 60.6881 67.1614 60.7214C67.1031 60.763 67.0698 60.7838 67.0615 60.7838C66.9532 60.8421 66.8283 60.8796 66.6868 60.8962C66.5452 60.9129 66.4287 60.9587 66.3371 61.0336C66.1705 61.0336 66.0498 61.0003 65.9749 60.9337C65.8999 60.8671 65.8292 60.7922 65.7626 60.7089C65.646 60.4924 65.6085 60.2676 65.6501 60.0344C65.6834 59.8013 65.7376 59.5557 65.8125 59.2975C65.8874 59.0394 65.9124 58.7688 65.8874 58.4857C65.979 58.2193 66.029 57.9945 66.0373 57.8113C66.0457 57.6447 66.079 57.4782 66.1372 57.3117C66.2621 57.1035 66.3288 56.9703 66.3371 56.912C66.3454 56.8371 66.3954 56.7788 66.487 56.7372C66.5036 56.6289 66.5286 56.5456 66.5619 56.4874C66.6035 56.4207 66.6285 56.3458 66.6368 56.2625C66.6868 56.2292 66.7284 56.1876 66.7617 56.1376C66.795 56.096 66.845 56.0544 66.9116 56.0128C66.9949 55.8462 67.0698 55.6922 67.1364 55.5506C67.203 55.4091 67.2572 55.28 67.2988 55.1635C67.3404 55.0469 67.3862 54.9303 67.4362 54.8137C67.4945 54.6972 67.5527 54.5806 67.611 54.464C67.636 54.3974 67.6568 54.3308 67.6735 54.2642C67.6985 54.2059 67.7193 54.1476 67.7359 54.0893C67.7526 54.031 67.7692 53.9728 67.7859 53.9145C67.8109 53.8645 67.8358 53.8146 67.8608 53.7646C67.9358 53.5981 68.0482 53.4149 68.198 53.2151L68.6102 52.6655C68.6685 52.5906 68.7185 52.524 68.7601 52.4657C68.8017 52.4157 68.8309 52.3741 68.8475 52.3408C68.8975 52.2575 68.9349 52.1992 68.9599 52.1659C69.1015 52.066 69.1639 52.0036 69.1473 51.9786C69.1389 51.9536 69.1431 51.9411 69.1598 51.9411C69.3846 51.7163 69.6011 51.5165 69.8092 51.3416C69.9091 51.225 70.0091 51.1168 70.109 51.0169C70.2089 50.9169 70.3255 50.8254 70.4587 50.7421C70.5586 50.6255 70.6585 50.5173 70.7584 50.4174C70.8584 50.3174 70.9749 50.2258 71.1082 50.1426C71.2414 50.051 71.3663 49.9552 71.4828 49.8553C71.6077 49.7471 71.7243 49.6388 71.8326 49.5306C71.9408 49.414 72.0532 49.3058 72.1698 49.2059C72.2863 49.1059 72.4071 49.0102 72.532 48.9186C72.5736 48.6688 72.6319 48.4606 72.7068 48.2941C72.7818 48.1359 72.8401 47.9361 72.8817 47.6946C72.9483 47.578 73.0066 47.4448 73.0565 47.2949C73.1065 47.145 73.1481 47.0035 73.1814 46.8703C73.2314 46.8203 73.2689 46.7537 73.2939 46.6704C73.3272 46.5539 73.3563 46.4623 73.3813 46.3957C73.4645 46.2375 73.5062 46.0959 73.5062 45.971C73.5228 45.8378 73.5312 45.7504 73.5312 45.7087C73.5312 45.6255 73.5478 45.538 73.5811 45.4464C73.5978 45.3299 73.6061 45.2133 73.6061 45.0967C73.4645 45.2216 73.3605 45.3382 73.2939 45.4464C73.2106 45.5797 73.1232 45.7046 73.0316 45.8211C72.9983 45.8544 72.9608 45.8919 72.9192 45.9335C72.8775 45.9752 72.8484 46.0376 72.8317 46.1209C72.7318 46.2291 72.6735 46.2874 72.6569 46.2957C72.6236 46.3041 72.6069 46.3291 72.6069 46.3707C72.4154 46.5872 72.2239 46.8078 72.0324 47.0326C71.8492 47.2491 71.6619 47.4739 71.4704 47.7071C71.2872 47.9402 71.0998 48.1692 70.9083 48.394C70.7168 48.6105 70.5253 48.827 70.3338 49.0435C70.1839 49.1767 70.0257 49.3058 69.8592 49.4307C69.6926 49.5556 69.5178 49.6846 69.3346 49.8178C69.268 49.8678 69.1931 49.9261 69.1098 49.9927C69.0349 50.051 68.9516 50.1134 68.86 50.1801C68.6685 50.3216 68.4437 50.3507 68.1856 50.2675C67.8025 50.4174 67.4903 50.3882 67.2488 50.1801C67.0074 49.9719 66.82 49.7429 66.6868 49.4931C66.6202 49.3932 66.5661 49.3058 66.5244 49.2308C66.4828 49.1559 66.4703 49.0268 66.487 48.8437C66.5036 48.7521 66.5244 48.6605 66.5494 48.5689C66.5661 48.469 66.5869 48.3732 66.6119 48.2816C66.6368 48.19 66.6618 48.0901 66.6868 47.9819C66.7034 47.8736 66.7201 47.7612 66.7367 47.6446C66.7534 47.553 66.7701 47.4615 66.7867 47.3699C66.8034 47.2783 66.8159 47.1867 66.8242 47.0951C66.8492 46.9202 66.8866 46.7287 66.9366 46.5206C66.9865 46.2874 67.0532 46.0626 67.1364 45.8461C67.2197 45.6296 67.3196 45.4464 67.4362 45.2966C67.4778 45.1717 67.5194 45.0509 67.5611 44.9344C67.6027 44.8095 67.6402 44.6929 67.6735 44.5847C67.7151 44.4681 67.7526 44.3557 67.7859 44.2474C67.8275 44.1309 67.8692 44.0143 67.9108 43.8977C67.994 43.6313 68.094 43.3732 68.2105 43.1234C68.3271 42.8736 68.452 42.6321 68.5852 42.399C68.6685 42.2824 68.7476 42.1783 68.8225 42.0867C68.8975 41.9951 68.9766 41.8994 69.0598 41.7994C69.2264 41.7828 69.3596 41.7537 69.4595 41.712C69.5594 41.6704 69.6593 41.6246 69.7593 41.5746C69.8175 41.558 69.8758 41.5413 69.9341 41.5247C69.9924 41.508 70.0507 41.4955 70.109 41.4872C70.1673 41.4706 70.2214 41.4581 70.2713 41.4497C70.3296 41.4331 70.3837 41.4164 70.4337 41.3998C70.6169 41.3165 70.7335 41.279 70.7834 41.2874C70.8251 41.2957 70.8667 41.2749 70.9083 41.2249C70.9416 41.3082 70.9916 41.3623 71.0582 41.3873C71.1331 41.4123 71.1748 41.4664 71.1831 41.5497C71.1831 41.6662 71.1373 41.8078 71.0457 41.9743C70.9624 42.1325 70.9 42.2574 70.8584 42.349C70.8251 42.4073 70.7917 42.4697 70.7584 42.5363C70.7251 42.603 70.6918 42.6737 70.6585 42.7487C70.5919 42.9069 70.517 43.0401 70.4337 43.1483C70.4171 43.2233 70.3962 43.2982 70.3713 43.3732C70.3546 43.4481 70.3296 43.5189 70.2963 43.5855C70.263 43.6521 70.2339 43.7229 70.2089 43.7978C70.1839 43.8727 70.1589 43.9477 70.134 44.0226C69.9674 44.2058 69.8217 44.414 69.6968 44.6471C69.5719 44.8802 69.4429 45.13 69.3096 45.3965C69.2763 45.4798 69.2389 45.5547 69.1972 45.6213C69.1639 45.6796 69.1264 45.7545 69.0848 45.8461C69.0682 45.9211 69.0515 45.996 69.0349 46.0709C69.0265 46.1459 69.014 46.2208 68.9974 46.2957C68.9891 46.3707 68.9766 46.4456 68.9599 46.5206C68.9433 46.5955 68.9266 46.6704 68.91 46.7454C68.8433 46.9202 68.7934 47.1117 68.7601 47.3199C68.7268 47.553 68.7018 47.7862 68.6851 48.0193C68.6685 48.2525 68.6602 48.4939 68.6602 48.7437ZM72.2322 50.892H72.2072C71.8825 51.1001 71.5911 51.3374 71.333 51.6039C71.2081 51.7371 71.079 51.8662 70.9458 51.9911C70.8209 52.1243 70.6918 52.2575 70.5586 52.3907C70.5003 52.4573 70.442 52.5198 70.3837 52.5781C70.3255 52.6447 70.2672 52.7113 70.2089 52.7779C70.084 52.9195 69.9757 53.0569 69.8842 53.1901C69.8009 53.34 69.7135 53.494 69.6219 53.6522C69.5303 53.8104 69.4179 53.9561 69.2847 54.0893C69.0765 54.2808 68.9516 54.4266 68.91 54.5265C68.885 54.5848 68.86 54.6347 68.835 54.6764C68.81 54.7263 68.7851 54.7721 68.7601 54.8137L68.5727 55.2009C68.5394 55.2592 68.5061 55.3175 68.4728 55.3758C68.4395 55.4424 68.402 55.5048 68.3604 55.5631C68.2855 55.7047 68.2105 55.8712 68.1356 56.0627C68.0607 56.2542 67.9857 56.4207 67.9108 56.5623C67.7942 56.8621 67.7026 57.1493 67.636 57.4241C67.5694 57.6989 67.5444 57.9778 67.5611 58.2609V58.4482C67.5611 58.4982 67.5861 58.544 67.636 58.5856C67.7109 58.5856 67.8358 58.5523 68.0107 58.4857C68.1439 58.3691 68.273 58.2526 68.3979 58.136C68.5228 58.0194 68.6435 57.8945 68.7601 57.7613C68.9932 57.4949 69.243 57.2284 69.5095 56.962C69.7426 56.6955 69.9508 56.4083 70.134 56.1002C70.3171 55.7921 70.4753 55.4466 70.6086 55.0635C70.6585 54.9719 70.7043 54.8762 70.7459 54.7763C70.7876 54.6847 70.8251 54.5848 70.8584 54.4765C70.9166 54.2767 70.9999 54.0893 71.1082 53.9145C71.1997 53.648 71.2913 53.3857 71.3829 53.1276C71.4828 52.8695 71.5828 52.6197 71.6827 52.3782C71.8992 51.862 72.0823 51.3666 72.2322 50.892ZM90.6671 43.4981C90.7503 43.5064 90.8044 43.5397 90.8294 43.598C90.8544 43.6479 90.9002 43.6729 90.9668 43.6729C91.0001 43.8311 90.9668 43.9435 90.8669 44.0101C90.767 44.0684 90.7337 44.1642 90.767 44.2974C90.6171 44.3973 90.4339 44.4598 90.2174 44.4847C89.9926 44.5097 89.8261 44.5971 89.7178 44.747C89.4264 44.8886 89.1225 44.976 88.8061 45.0093C88.6479 45.026 88.4814 45.0509 88.3065 45.0842C88.14 45.1092 87.9693 45.1384 87.7944 45.1717C87.6112 45.2966 87.4988 45.3632 87.4572 45.3715C87.3989 45.3798 87.3365 45.4048 87.2699 45.4464C87.095 45.3798 86.9201 45.3465 86.7453 45.3465C86.5704 45.3465 86.3872 45.3216 86.1957 45.2716C86.1041 45.3049 86.0084 45.3216 85.9085 45.3216C85.8086 45.3216 85.7128 45.3382 85.6212 45.3715C85.5546 45.5214 85.5213 45.6713 85.5213 45.8211C85.5213 45.9793 85.4963 46.1292 85.4464 46.2708L85.2965 46.5705L85.259 46.8078C85.2424 46.9077 85.2215 46.9868 85.1966 47.0451C85.1633 47.0951 85.1258 47.1534 85.0842 47.22C85.0425 47.2866 85.0217 47.3615 85.0217 47.4448C84.9051 47.5947 84.8219 47.7487 84.7719 47.9069C84.7219 48.0901 84.6304 48.2358 84.4971 48.3441C84.4472 48.5189 84.3681 48.6521 84.2598 48.7437C84.1516 48.8437 84.0475 48.9602 83.9476 49.0934C83.7644 49.3432 83.602 49.5597 83.4605 49.7429C83.3189 49.9261 83.1316 50.0843 82.8984 50.2175C82.8152 50.3507 82.7153 50.4423 82.5987 50.4923C82.5154 50.5756 82.4488 50.6588 82.3989 50.7421L81.8993 51.0418C81.6994 51.1667 81.5079 51.25 81.3247 51.2916C81.0416 51.3582 80.7669 51.3499 80.5004 51.2667C80.234 51.1834 79.9842 51.0668 79.751 50.9169C79.5928 50.9336 79.4721 50.9045 79.3888 50.8295C79.3056 50.7629 79.1932 50.7088 79.0516 50.6672C78.8684 50.5006 78.6686 50.3507 78.4521 50.2175C78.2273 50.076 78.0691 49.8928 77.9775 49.668L77.8651 49.1184C77.8318 48.9519 77.7943 48.7854 77.7527 48.6188C77.7194 48.4773 77.7152 48.3191 77.7402 48.1442C77.7652 47.9944 77.7693 47.8278 77.7527 47.6446C77.7527 47.553 77.7527 47.4698 77.7527 47.3948C77.7527 47.3116 77.7485 47.2408 77.7402 47.1825C77.7319 47.0576 77.7693 46.9036 77.8526 46.7204C77.9026 46.6122 77.9442 46.5122 77.9775 46.4206C78.0108 46.3291 78.0358 46.25 78.0524 46.1833C78.0691 46.1167 78.0857 46.0543 78.1024 45.996C78.119 45.9294 78.1357 45.8711 78.1524 45.8211C78.1773 45.7795 78.2023 45.7379 78.2273 45.6962C78.2523 45.6463 78.2773 45.5963 78.3022 45.5464C78.3272 45.4964 78.3522 45.4506 78.3772 45.409C78.4105 45.359 78.4438 45.3132 78.4771 45.2716C78.577 45.1217 78.6936 44.9718 78.8268 44.822C78.96 44.6721 79.0932 44.5305 79.2265 44.3973C79.3181 44.2724 79.4097 44.1642 79.5012 44.0726C79.6511 43.9227 79.7927 43.7978 79.9259 43.6979C80.0591 43.598 80.209 43.4647 80.3755 43.2982C80.4088 43.2483 80.4505 43.2066 80.5004 43.1733L80.6503 43.0734C80.8168 42.9735 80.9709 42.8902 81.1124 42.8236C81.254 42.757 81.4163 42.6821 81.5995 42.5988C81.7577 42.5239 81.8868 42.4781 81.9867 42.4614C82.0533 42.4448 82.1199 42.4323 82.1865 42.4239C82.2615 42.4073 82.3406 42.3906 82.4238 42.374H82.7236C82.8152 42.374 82.8984 42.3573 82.9734 42.324C82.9234 42.1908 82.9817 42.0992 83.1482 42.0492C83.3148 41.9993 83.4397 41.9826 83.5229 41.9993C83.6895 41.9993 83.8227 42.0368 83.9226 42.1117C84.0225 42.1866 84.1141 42.2741 84.1974 42.374C84.3639 42.4905 84.5471 42.6654 84.7469 42.8985C84.7886 42.9402 84.8302 42.9652 84.8718 42.9735C84.9135 42.9818 84.9551 43.0068 84.9967 43.0484C85.0633 43.1483 85.1091 43.2399 85.1341 43.3232C85.1591 43.4231 85.2132 43.5147 85.2965 43.598C85.3464 43.6313 85.3964 43.6729 85.4464 43.7229C85.4963 43.7728 85.5296 43.8394 85.5463 43.9227C85.7211 43.9893 85.8793 44.0393 86.0209 44.0726C86.0958 44.1059 86.1832 44.1142 86.2832 44.0976C86.3748 44.0809 86.4788 44.0809 86.5954 44.0976C86.6703 44.1059 86.7453 44.1267 86.8202 44.16C86.8868 44.185 86.9618 44.1975 87.045 44.1975C87.1699 44.1891 87.3073 44.1558 87.4572 44.0976C87.5987 44.0476 87.7611 44.0393 87.9443 44.0726C88.1941 44.1309 88.4564 44.1059 88.7311 43.9976C89.0059 43.8811 89.2849 43.8061 89.568 43.7728C89.6512 43.7728 89.7095 43.7687 89.7428 43.7603C89.7761 43.752 89.8344 43.7478 89.9177 43.7478C90.0009 43.6812 90.1092 43.6313 90.2424 43.598C90.3756 43.5647 90.5172 43.5314 90.6671 43.4981ZM83.5229 44.2474C83.3564 44.0976 83.2607 44.0018 83.2357 43.9602C83.2024 43.9102 83.1732 43.8811 83.1482 43.8727C83.0733 43.7978 82.99 43.7562 82.8984 43.7478C82.8485 43.7395 82.7985 43.7312 82.7486 43.7229C82.7069 43.7145 82.6653 43.7062 82.6237 43.6979C82.3572 43.6479 82.1366 43.6771 81.9617 43.7853C81.8785 43.8436 81.791 43.8977 81.6994 43.9477C81.6162 43.9976 81.5329 44.0476 81.4496 44.0976C81.1832 44.2641 80.9501 44.4722 80.7502 44.722C80.7003 44.8053 80.6461 44.8969 80.5879 44.9968C80.5296 45.0967 80.4838 45.205 80.4505 45.3216C80.3839 45.4548 80.3256 45.5755 80.2756 45.6838C80.2256 45.792 80.184 45.9211 80.1507 46.0709C80.0674 46.2291 80.0175 46.3665 80.0008 46.4831C79.9925 46.5414 79.9842 46.5955 79.9759 46.6455C79.9675 46.6871 79.9592 46.7287 79.9509 46.7704C79.9425 46.8536 79.9301 46.9411 79.9134 47.0326C79.8968 47.1159 79.8801 47.2033 79.8634 47.2949C79.8218 47.5031 79.801 47.6613 79.801 47.7695C79.8177 47.8195 79.8426 47.8861 79.8759 47.9694C79.9092 48.0526 79.9425 48.1109 79.9759 48.1442C80.0092 48.2275 80.0466 48.3191 80.0883 48.419C80.1299 48.5189 80.1674 48.5939 80.2007 48.6438C80.2923 48.7604 80.4005 48.8353 80.5254 48.8686C80.592 48.8853 80.6628 48.9061 80.7377 48.9311C80.8127 48.9477 80.8918 48.9685 80.975 48.9935C81.1582 49.0934 81.2831 49.1351 81.3497 49.1184C81.433 49.1018 81.4829 49.0934 81.4996 49.0934C81.7244 49.0518 81.9159 48.9602 82.0741 48.8187C82.2157 48.6854 82.3822 48.5689 82.5737 48.469C82.6403 48.369 82.7069 48.265 82.7736 48.1567C82.8485 48.0485 82.9276 47.9402 83.0109 47.832C83.0941 47.7154 83.1691 47.603 83.2357 47.4948C83.3106 47.3782 83.3814 47.2616 83.448 47.145C83.4896 47.0951 83.5313 47.0202 83.5729 46.9202C83.5895 46.8786 83.6062 46.8411 83.6229 46.8078C83.6395 46.7662 83.6562 46.7287 83.6728 46.6954C83.7894 46.5539 83.8435 46.4789 83.8352 46.4706C83.8269 46.4623 83.831 46.4373 83.8477 46.3957C83.9559 46.1459 84.0059 45.9544 83.9975 45.8211C83.9892 45.6879 83.9892 45.5547 83.9975 45.4215C83.9559 45.3299 83.9184 45.2341 83.8851 45.1342C83.8518 45.0343 83.8185 44.9302 83.7852 44.822C83.7186 44.5971 83.6312 44.4056 83.5229 44.2474ZM94.0393 50.5423L93.8894 49.9927C93.7895 49.7845 93.7728 49.4598 93.8394 49.0185L93.9269 48.5814C93.9435 48.5231 93.956 48.4481 93.9643 48.3566C93.981 48.265 93.9976 48.1526 94.0143 48.0193C94.031 47.8944 94.0476 47.7695 94.0643 47.6446C94.0892 47.5114 94.1184 47.3782 94.1517 47.245C94.185 47.1117 94.21 46.9785 94.2266 46.8453C94.2516 46.7121 94.2724 46.5788 94.2891 46.4456C94.1642 46.6371 94.0434 46.8328 93.9269 47.0326C93.8103 47.2325 93.6979 47.4406 93.5896 47.6571C93.3815 48.0651 93.1234 48.419 92.8153 48.7188C92.7487 48.9186 92.6654 49.0477 92.5655 49.1059C92.4656 49.1559 92.3657 49.2059 92.2657 49.2558C92.1658 49.3058 92.0826 49.4265 92.0159 49.618C91.9327 49.7013 91.8536 49.7887 91.7786 49.8803C91.7037 49.9719 91.6496 50.0843 91.6163 50.2175C91.533 50.2508 91.4497 50.3174 91.3665 50.4174C91.2083 50.5756 91.1084 50.6588 91.0667 50.6672C91.0251 50.6755 90.9835 50.7005 90.9418 50.7421C90.7753 50.8753 90.6296 50.9752 90.5047 51.0418C90.3798 51.1085 90.2341 51.1501 90.0675 51.1667C89.8844 51.2 89.6471 51.225 89.3556 51.2417C89.2141 51.25 89.085 51.2583 88.9685 51.2667C88.8519 51.275 88.752 51.2833 88.6687 51.2916C88.5605 51.2084 88.4772 51.1584 88.4189 51.1418C88.3939 51.1334 88.3565 51.1209 88.3065 51.1043C88.2649 51.0876 88.2107 51.0668 88.1441 51.0418C87.9027 50.9419 87.7861 50.8961 87.7944 50.9045C87.7861 50.8961 87.7736 50.8878 87.7569 50.8795C87.732 50.8711 87.7028 50.8587 87.6695 50.842C87.5363 50.7421 87.4447 50.663 87.3947 50.6047C87.3614 50.5631 87.3032 50.5006 87.2199 50.4174C86.9451 49.9927 86.7869 49.4432 86.7453 48.7687C86.7286 48.5356 86.7703 48.3024 86.8702 48.0693C86.9701 47.8361 87.0617 47.628 87.145 47.4448C87.2449 47.2366 87.3531 47.0451 87.4697 46.8703C87.5363 46.7704 87.5987 46.6746 87.657 46.583C87.707 46.4914 87.7528 46.404 87.7944 46.3207C87.8943 46.1209 87.911 45.9918 87.8444 45.9335C87.7861 45.8669 87.8027 45.7379 87.8943 45.5464C87.936 45.4131 87.9859 45.2966 88.0442 45.1967L88.269 44.797C88.4189 44.5305 88.5771 44.2932 88.7436 44.0851C88.8935 43.9019 89.0184 43.6563 89.1183 43.3482C89.2016 43.115 89.314 42.936 89.4556 42.8111C89.5971 42.6862 89.7678 42.5738 89.9676 42.4739C90.0509 42.5072 90.1716 42.4947 90.3298 42.4364C90.488 42.3781 90.6088 42.3157 90.692 42.2491C90.8086 42.2491 90.9002 42.2158 90.9668 42.1492C91.15 42.1159 91.2457 42.1159 91.2541 42.1492C91.2624 42.1825 91.2832 42.1991 91.3165 42.1991C91.3498 42.2074 91.3956 42.2074 91.4539 42.1991C91.5122 42.1908 91.558 42.1908 91.5913 42.1991C91.6496 42.374 91.6912 42.4822 91.7162 42.5239C91.7495 42.5655 91.7662 42.6071 91.7662 42.6488C91.7662 42.6987 91.762 42.7653 91.7537 42.8486C91.7453 42.9319 91.7328 42.9901 91.7162 43.0234C91.6246 43.1483 91.5705 43.2274 91.5538 43.2607L91.5164 43.3482C91.4664 43.4148 91.4081 43.4939 91.3415 43.5855C91.2832 43.6687 91.2166 43.7687 91.1417 43.8852L90.742 44.4722C90.6504 44.6138 90.5671 44.7054 90.4922 44.747C90.4006 44.797 90.3257 44.8886 90.2674 45.0218C90.2341 45.0801 90.2091 45.1425 90.1924 45.2091C90.1841 45.2674 90.1591 45.3299 90.1175 45.3965C89.926 45.7962 89.7095 46.2 89.468 46.608C89.3431 46.8162 89.2224 47.0243 89.1058 47.2325C88.9976 47.4323 88.8935 47.628 88.7936 47.8195C88.7853 47.8861 88.7728 47.9527 88.7561 48.0193C88.7395 48.0776 88.7228 48.1401 88.7062 48.2067C88.6645 48.3482 88.6437 48.469 88.6437 48.5689C88.6437 48.5939 88.6354 48.7229 88.6187 48.9561C88.6021 49.1892 88.6104 49.3266 88.6437 49.3682C88.7436 49.5098 88.8019 49.5722 88.8186 49.5556C88.8352 49.5389 88.8519 49.5431 88.8685 49.5681C88.9351 49.7346 88.9809 49.8303 89.0059 49.8553C89.0309 49.8803 89.085 49.9094 89.1683 49.9427C89.2349 49.9594 89.3307 49.9469 89.4556 49.9053C89.5804 49.8636 89.6762 49.8262 89.7428 49.7929C89.9427 49.693 90.0925 49.5889 90.1924 49.4806C90.2924 49.3724 90.3923 49.26 90.4922 49.1434C90.742 48.8437 91.0084 48.4939 91.2915 48.0943C91.5746 47.6946 91.8411 47.3449 92.0909 47.0451C92.1825 46.8453 92.3032 46.6455 92.4531 46.4456C92.6113 46.2291 92.732 46.0376 92.8153 45.8711L93.165 45.1967C93.215 45.1051 93.2691 45.0051 93.3274 44.8969C93.3857 44.7887 93.4481 44.6721 93.5147 44.5472C93.6146 44.4056 93.7187 44.2766 93.827 44.16C93.9352 44.0434 94.0143 43.8727 94.0643 43.6479C94.1059 43.5314 94.1683 43.4189 94.2516 43.3107C94.2932 43.2524 94.3307 43.2025 94.364 43.1608C94.4056 43.1109 94.439 43.0651 94.4639 43.0234C94.5888 42.9069 94.6679 42.8153 94.7012 42.7487C94.7345 42.6821 94.7887 42.6238 94.8636 42.5738C95.0468 42.5239 95.1883 42.4864 95.2883 42.4614C95.3882 42.4364 95.5131 42.4406 95.6629 42.4739C95.7962 42.3906 95.9377 42.349 96.0876 42.349C96.1625 42.349 96.2333 42.3532 96.2999 42.3615C96.3749 42.3615 96.4456 42.3657 96.5122 42.374C96.5122 42.4572 96.5331 42.5114 96.5747 42.5363C96.6163 42.5613 96.6371 42.6071 96.6371 42.6737C96.7038 42.8236 96.7038 43.0068 96.6371 43.2233C96.5622 43.4647 96.5206 43.6812 96.5122 43.8727C96.4706 44.0476 96.4082 44.2016 96.3249 44.3349C96.2333 44.4847 96.1625 44.6471 96.1126 44.822C96.0793 44.9469 96.0501 45.0468 96.0251 45.1217C96.0085 45.1967 95.996 45.2466 95.9877 45.2716L95.9127 45.5464C95.8794 45.6962 95.8461 45.842 95.8128 45.9835C95.7795 46.1167 95.7462 46.25 95.7129 46.3832C95.6463 46.6496 95.5963 46.9452 95.563 47.2699C95.563 47.3532 95.5505 47.4406 95.5256 47.5322C95.5006 47.6155 95.4881 47.6946 95.4881 47.7695C95.4881 47.8528 95.4923 47.9527 95.5006 48.0693C95.5089 48.1859 95.5547 48.2608 95.638 48.2941C95.7296 48.3274 95.8087 48.3191 95.8753 48.2691C95.9585 48.2025 96.046 48.1442 96.1376 48.0943C96.1958 48.0526 96.2791 47.9777 96.3873 47.8695C96.4956 47.7612 96.5789 47.6863 96.6371 47.6446C96.7204 47.5614 96.812 47.4948 96.9119 47.4448C97.0118 47.3948 97.1034 47.3282 97.1867 47.245C97.3199 47.1284 97.449 47.0118 97.5739 46.8953C97.7071 46.7704 97.832 46.6455 97.9486 46.5206C98.1984 46.2624 98.4606 46.0543 98.7354 45.8961C99.0019 45.613 99.2725 45.3507 99.5472 45.1092C99.822 44.8678 100.134 44.6638 100.484 44.4972C100.617 44.7137 100.651 44.8927 100.584 45.0343C100.517 45.1758 100.434 45.3132 100.334 45.4464C100.292 45.4881 100.234 45.5297 100.159 45.5713C100.068 45.6213 100.001 45.6629 99.9594 45.6962L99.8345 45.8211C99.7846 45.8711 99.7429 45.8961 99.7096 45.8961C99.7096 45.9627 99.6888 46.0168 99.6472 46.0584L99.5348 46.1709C99.4265 46.3374 99.3099 46.4956 99.185 46.6455C99.0685 46.787 98.9436 46.9244 98.8104 47.0576C98.6771 47.1908 98.5439 47.3241 98.4107 47.4573C98.2858 47.5822 98.1609 47.7113 98.036 47.8445C97.9194 47.8861 97.8486 47.9402 97.8237 48.0068C97.7987 48.0901 97.7446 48.1609 97.6613 48.2192C97.628 48.2608 97.5947 48.2983 97.5614 48.3316C97.5281 48.3649 97.4948 48.3982 97.4615 48.4315C97.4282 48.4648 97.3949 48.4981 97.3615 48.5314C97.3282 48.5647 97.2949 48.6022 97.2616 48.6438C97.1617 48.7521 97.0743 48.8645 96.9993 48.981C96.9244 49.0893 96.8203 49.1934 96.6871 49.2933C96.6038 49.3765 96.5414 49.464 96.4998 49.5556C96.4664 49.6388 96.404 49.7263 96.3124 49.8178C96.1792 49.9511 96.0834 50.0135 96.0251 50.0052C95.9752 49.9969 95.9294 50.076 95.8878 50.2425C95.7545 50.3424 95.6796 50.4132 95.6629 50.4548C95.6546 50.4881 95.6296 50.5006 95.588 50.4923C95.5464 50.5089 95.4881 50.5214 95.4131 50.5298C95.3299 50.5381 95.2883 50.5589 95.2883 50.5922C95.18 50.6422 95.0926 50.6921 95.026 50.7421C94.9594 50.8004 94.8803 50.8337 94.7887 50.842C94.5722 50.8753 94.4181 50.8628 94.3265 50.8045C94.235 50.7463 94.1392 50.6588 94.0393 50.5423Z" fill="black"/>
</svg>
