<svg width="278" height="165" viewBox="0 0 278 165" fill="none" xmlns="http://www.w3.org/2000/svg">
<path d="M235.808 120.001H209.186C207.011 120.001 205.408 119.543 204.377 118.627C203.461 117.597 202.946 115.994 202.832 113.818L200.255 47.522C200.141 45.3465 200.542 43.8008 201.458 42.8847C202.374 41.8542 203.919 41.339 206.095 41.339H238.899C241.075 41.339 242.621 41.8542 243.537 42.8847C244.453 43.8008 244.853 45.3465 244.739 47.522L242.334 113.818C242.22 115.994 241.647 117.597 240.617 118.627C239.586 119.543 237.983 120.001 235.808 120.001ZM238.384 165H206.782C204.606 165 203.003 164.542 201.973 163.626C201.057 162.595 200.599 160.992 200.599 158.817V136.318C200.599 134.142 201.057 132.596 201.973 131.68C203.003 130.65 204.606 130.134 206.782 130.134H238.384C240.56 130.134 242.105 130.65 243.021 131.68C244.052 132.596 244.567 134.142 244.567 136.318V158.817C244.567 160.992 244.052 162.595 243.021 163.626C242.105 164.542 240.56 165 238.384 165Z" fill="#EAEAEA"/>
<path d="M41.1926 112H25.0166C24.4086 112 23.9606 111.872 23.6726 111.616C23.4166 111.328 23.2886 110.88 23.2886 110.272V79.1681C23.2886 78.5601 23.4166 78.1281 23.6726 77.8721C23.9606 77.5841 24.4086 77.4401 25.0166 77.4401H41.1926C45.1926 77.4401 48.1526 78.2401 50.0726 79.8401C52.0246 81.4401 53.0006 83.9041 53.0006 87.2321V102.208C53.0006 105.536 52.0246 108 50.0726 109.6C48.1526 111.2 45.1926 112 41.1926 112ZM34.1846 86.6081V102.928H39.8966C40.6646 102.928 41.2246 102.736 41.5766 102.352C41.9606 101.968 42.1526 101.376 42.1526 100.576V88.9121C42.1526 88.1121 41.9606 87.5361 41.5766 87.1841C41.2246 86.8001 40.6646 86.6081 39.8966 86.6081H34.1846ZM83.1011 112H60.8291C60.2211 112 59.7731 111.872 59.4851 111.616C59.2291 111.328 59.1011 110.88 59.1011 110.272V79.1681C59.1011 78.5601 59.2291 78.1281 59.4851 77.8721C59.7731 77.5841 60.2211 77.4401 60.8291 77.4401H83.1011C83.7091 77.4401 84.1411 77.5841 84.3971 77.8721C84.6851 78.1281 84.8291 78.5601 84.8291 79.1681V84.7841C84.8291 85.3921 84.6851 85.8401 84.3971 86.1281C84.1411 86.3841 83.7091 86.5121 83.1011 86.5121H69.8531V90.2081H79.2131C79.8211 90.2081 80.2531 90.3521 80.5091 90.6401C80.7971 90.8961 80.9411 91.3281 80.9411 91.9361V97.0721C80.9411 97.6801 80.7971 98.1281 80.5091 98.4161C80.2531 98.6721 79.8211 98.8001 79.2131 98.8001H69.8531V102.928H83.1011C83.7091 102.928 84.1411 103.072 84.3971 103.36C84.6851 103.616 84.8291 104.048 84.8291 104.656V110.272C84.8291 110.88 84.6851 111.328 84.3971 111.616C84.1411 111.872 83.7091 112 83.1011 112ZM110.667 112H92.2353C91.6273 112 91.1793 111.872 90.8913 111.616C90.6353 111.328 90.5073 110.88 90.5073 110.272V79.1681C90.5073 78.5601 90.6353 78.1281 90.8913 77.8721C91.1793 77.5841 91.6273 77.4401 92.2353 77.4401H107.547C110.683 77.4401 113.003 78.0481 114.507 79.2641C116.011 80.4481 116.763 82.2881 116.763 84.7841V87.0881C116.763 88.4321 116.523 89.5361 116.043 90.4001C115.595 91.2321 114.891 91.8561 113.931 92.2721C115.979 92.4641 117.499 93.1681 118.491 94.3841C119.483 95.6001 119.979 97.3761 119.979 99.7121V104.128C119.979 106.816 119.211 108.8 117.675 110.08C116.171 111.36 113.835 112 110.667 112ZM101.307 85.6001V90.7841H105.387C105.995 90.7841 106.443 90.6241 106.731 90.3041C107.051 89.9841 107.211 89.5041 107.211 88.8641V87.5201C107.211 86.8801 107.051 86.4001 106.731 86.0801C106.443 85.7601 105.995 85.6001 105.387 85.6001H101.307ZM101.307 98.1761V103.84H107.547C108.155 103.84 108.603 103.68 108.891 103.36C109.211 103.04 109.371 102.56 109.371 101.92V100.048C109.371 99.4081 109.211 98.9441 108.891 98.6561C108.603 98.3361 108.155 98.1761 107.547 98.1761H101.307ZM137.817 87.5201L135.561 94.8161H143.097L140.841 87.5201C140.713 87.2321 140.569 87.0241 140.409 86.8961C140.281 86.7681 140.121 86.7041 139.929 86.7041H138.729C138.537 86.7041 138.361 86.7681 138.201 86.8961C138.073 87.0241 137.945 87.2321 137.817 87.5201ZM135.081 110.272C135.081 110.88 134.937 111.328 134.649 111.616C134.393 111.872 133.961 112 133.353 112H126.297C125.689 112 125.241 111.872 124.953 111.616C124.697 111.328 124.569 110.88 124.569 110.272V97.6001C124.569 96.6401 124.713 95.5361 125.001 94.2881C125.321 93.0401 125.801 91.5841 126.441 89.9201L130.617 79.0241C130.809 78.4801 131.097 78.0801 131.481 77.8241C131.897 77.5681 132.425 77.4401 133.065 77.4401H145.977C146.585 77.4401 147.081 77.5681 147.465 77.8241C147.881 78.0801 148.185 78.4801 148.377 79.0241L152.553 89.9201C153.193 91.5841 153.657 93.0401 153.945 94.2881C154.265 95.5361 154.425 96.6401 154.425 97.6001V110.272C154.425 110.88 154.281 111.328 153.993 111.616C153.737 111.872 153.305 112 152.697 112H145.449C144.809 112 144.329 111.872 144.009 111.616C143.721 111.328 143.577 110.88 143.577 110.272V103.552H135.081V110.272ZM174.749 112H166.973C166.365 112 165.917 111.872 165.629 111.616C165.373 111.328 165.245 110.88 165.245 110.272V86.7041H158.189C157.581 86.7041 157.133 86.5761 156.845 86.3201C156.589 86.0321 156.461 85.5841 156.461 84.9761V79.1681C156.461 78.5601 156.589 78.1281 156.845 77.8721C157.133 77.5841 157.581 77.4401 158.189 77.4401H183.533C184.141 77.4401 184.573 77.5841 184.829 77.8721C185.117 78.1281 185.261 78.5601 185.261 79.1681V84.9761C185.261 85.5841 185.117 86.0321 184.829 86.3201C184.573 86.5761 184.141 86.7041 183.533 86.7041H176.477V110.272C176.477 110.88 176.333 111.328 176.045 111.616C175.789 111.872 175.357 112 174.749 112ZM213.929 112H191.657C191.049 112 190.601 111.872 190.313 111.616C190.057 111.328 189.929 110.88 189.929 110.272V79.1681C189.929 78.5601 190.057 78.1281 190.313 77.8721C190.601 77.5841 191.049 77.4401 191.657 77.4401H213.929C214.537 77.4401 214.969 77.5841 215.225 77.8721C215.513 78.1281 215.657 78.5601 215.657 79.1681V84.7841C215.657 85.3921 215.513 85.8401 215.225 86.1281C214.969 86.3841 214.537 86.5121 213.929 86.5121H200.681V90.2081H210.041C210.649 90.2081 211.081 90.3521 211.337 90.6401C211.625 90.8961 211.769 91.3281 211.769 91.9361V97.0721C211.769 97.6801 211.625 98.1281 211.337 98.4161C211.081 98.6721 210.649 98.8001 210.041 98.8001H200.681V102.928H213.929C214.537 102.928 214.969 103.072 215.225 103.36C215.513 103.616 215.657 104.048 215.657 104.656V110.272C215.657 110.88 215.513 111.328 215.225 111.616C214.969 111.872 214.537 112 213.929 112Z" fill="#08609F"/>
<path d="M85.1094 136.672C85.5156 136.5 85.8906 136.281 86.2344 136.016C86.4844 135.672 86.75 135.344 87.0313 135.031C87.3125 134.719 87.6094 134.406 87.9219 134.094C88.0156 134 88.1094 133.906 88.2031 133.812C88.2969 133.719 88.3828 133.625 88.4609 133.531C88.5391 133.437 88.625 133.344 88.7188 133.25C88.8281 133.141 88.9375 133.031 89.0469 132.922C89.125 132.844 89.1875 132.789 89.2344 132.758C89.2813 132.727 89.3438 132.656 89.4219 132.547C89.5938 132.328 89.7344 132.117 89.8438 131.914C89.9531 131.727 90.1094 131.516 90.3125 131.281C90.5156 131.172 90.7188 131 90.9219 130.766C91.0156 130.656 91.1094 130.555 91.2031 130.461C91.2969 130.352 91.3906 130.25 91.4844 130.156L91.6953 129.969C91.7266 129.937 91.7578 129.906 91.7891 129.875C91.8359 129.844 91.875 129.812 91.9063 129.781C92 129.687 92.0703 129.578 92.1172 129.453C92.1484 129.391 92.1719 129.328 92.1875 129.266C92.2188 129.203 92.25 129.141 92.2813 129.078C92.5625 128.609 92.8125 128.219 93.0313 127.906C93.7188 127.531 94.4219 127.203 95.1406 126.922C95.8594 126.641 96.5469 126.516 97.2031 126.547C97.2344 126.578 97.3281 126.641 97.4844 126.734C97.6094 126.812 97.7031 126.922 97.7656 127.062C97.9219 127.312 97.9531 127.609 97.8594 127.953C97.7656 128.297 97.6094 128.547 97.3906 128.703C97.1406 129.422 96.9688 130.234 96.875 131.141C96.7813 132.047 96.75 132.906 96.7813 133.719C96.7031 133.812 96.6797 133.945 96.7109 134.117C96.7266 134.273 96.6875 134.391 96.5938 134.469C96.7188 134.719 96.875 134.969 97.0625 135.219C97.25 135.469 97.5156 135.594 97.8594 135.594C98.2344 135.5 98.4688 135.453 98.5625 135.453C98.625 135.453 98.7031 135.437 98.7969 135.406C98.9531 135.312 99.0547 135.242 99.1016 135.195C99.1953 135.102 99.2813 135.047 99.3594 135.031C99.4531 134.875 99.5156 134.781 99.5469 134.75C99.5781 134.719 99.6406 134.641 99.7344 134.516C100.078 134.094 100.383 133.687 100.648 133.297L101.516 132.031C101.609 131.875 101.695 131.734 101.773 131.609C101.867 131.469 101.945 131.344 102.008 131.234C102.086 131.125 102.156 130.992 102.219 130.836C102.297 130.68 102.375 130.5 102.453 130.297L102.664 129.805C102.711 129.695 102.781 129.516 102.875 129.266C102.953 129.078 102.953 128.82 102.875 128.492C102.813 128.164 102.813 127.922 102.875 127.766C103.031 127.562 103.109 127.375 103.109 127.203C103.328 126.844 103.438 126.641 103.438 126.594C103.438 126.562 103.453 126.5 103.484 126.406C103.547 126.344 103.609 126.273 103.672 126.195C103.734 126.117 103.766 126.016 103.766 125.891C104.281 125.375 104.922 124.969 105.688 124.672C106.219 124.578 106.711 124.445 107.164 124.273C107.586 124.117 107.922 124.172 108.172 124.437C108.094 124.531 108.109 124.617 108.219 124.695C108.313 124.758 108.359 124.844 108.359 124.953C108.391 125.125 108.383 125.25 108.336 125.328C108.289 125.422 108.266 125.516 108.266 125.609C108.078 125.953 107.969 126.125 107.938 126.125C107.906 126.125 107.875 126.141 107.844 126.172C107.797 126.25 107.742 126.398 107.68 126.617C107.664 126.695 107.641 126.781 107.609 126.875C107.578 126.969 107.547 127.062 107.516 127.156C107.422 127.406 107.313 127.68 107.188 127.977C107.063 128.273 106.906 128.562 106.719 128.844C106.563 129.219 106.539 129.461 106.648 129.57C106.758 129.68 106.813 129.812 106.813 129.969C106.906 130.047 107.008 130.094 107.117 130.109C107.227 130.125 107.328 130.172 107.422 130.25C107.547 130.344 107.633 130.422 107.68 130.484C107.742 130.562 107.859 130.641 108.031 130.719C108.172 130.75 108.305 130.758 108.43 130.742C108.539 130.727 108.719 130.734 108.969 130.766C109.219 130.797 109.383 130.797 109.461 130.766C109.539 130.734 109.656 130.656 109.813 130.531C110.172 130.344 110.383 130.203 110.445 130.109C110.492 130.047 110.563 129.969 110.656 129.875C110.797 129.812 110.945 129.781 111.102 129.781C111.258 129.781 111.391 129.75 111.5 129.687C111.844 129.562 112.227 129.406 112.648 129.219C113.07 129.031 113.453 128.844 113.797 128.656C113.953 128.594 114.102 128.531 114.242 128.469C114.383 128.406 114.484 128.297 114.547 128.141C114.672 128.109 114.758 128.086 114.805 128.07C114.836 128.055 114.938 128.047 115.109 128.047C115.188 128.234 115.266 128.375 115.344 128.469C115.438 128.594 115.391 128.75 115.203 128.937C114.844 129.297 114.43 129.609 113.961 129.875C113.508 130.141 113.094 130.469 112.719 130.859C112.531 130.937 112.352 131.023 112.18 131.117C112.008 131.195 111.844 131.289 111.688 131.398C111.391 131.602 111.016 131.766 110.563 131.891C110.328 132.031 110.125 132.156 109.953 132.266C109.781 132.359 109.641 132.445 109.531 132.523C109.313 132.68 109.125 132.766 108.969 132.781C108.688 132.781 108.414 132.789 108.148 132.805C107.898 132.805 107.656 132.812 107.422 132.828C107.25 132.859 107.117 132.844 107.023 132.781C106.961 132.75 106.813 132.687 106.578 132.594C106.156 132.484 105.844 132.328 105.641 132.125C105.547 132.031 105.453 131.945 105.359 131.867C105.266 131.773 105.172 131.687 105.078 131.609C104.969 131.781 104.859 131.961 104.75 132.148C104.656 132.336 104.57 132.531 104.492 132.734C104.32 133.141 104.109 133.484 103.859 133.766C103.75 134.109 103.625 134.375 103.484 134.562C103.328 134.766 103.188 135.047 103.063 135.406C102.906 135.578 102.758 135.758 102.617 135.945C102.492 136.133 102.375 136.336 102.266 136.555C102.047 136.992 101.766 137.359 101.422 137.656C100.719 138.547 99.7969 139.312 98.6563 139.953C98.4531 139.891 98.2344 139.922 98 140.047C97.7813 140.172 97.5938 140.188 97.4375 140.094C96.7813 140.25 96.3516 140.203 96.1484 139.953C95.9453 139.703 95.7344 139.531 95.5156 139.437C95.2344 138.984 95.0703 138.594 95.0234 138.266C94.9766 137.937 94.9063 137.594 94.8125 137.234C94.75 137.047 94.6797 136.883 94.6016 136.742C94.5391 136.602 94.5156 136.453 94.5313 136.297C94.4219 135.828 94.3203 135.492 94.2266 135.289C94.1641 135.164 94.1094 135.023 94.0625 134.867C94.0313 134.711 94 134.547 93.9688 134.375C93.9531 134.234 93.9375 134.094 93.9219 133.953C93.9219 133.812 93.9297 133.672 93.9453 133.531C93.9609 133.266 93.9219 132.969 93.8281 132.641C93.2656 132.734 92.9141 132.93 92.7734 133.227C92.6328 133.523 92.4375 133.75 92.1875 133.906C92.0781 134.234 91.9063 134.492 91.6719 134.68C91.4688 134.836 91.2813 135.094 91.1094 135.453C90.7656 135.641 90.4609 135.891 90.1953 136.203C89.9141 136.531 89.6094 136.828 89.2813 137.094C89 137.266 88.7891 137.422 88.6484 137.562C88.5234 137.687 88.3906 137.781 88.25 137.844C88.1563 138 88.0313 138.148 87.875 138.289C87.7656 138.383 87.6094 138.531 87.4063 138.734C87.2031 138.937 87.0625 139.086 86.9844 139.18C86.8438 139.336 86.7031 139.469 86.5625 139.578C86.4375 139.734 86.3203 139.852 86.2109 139.93C86.1016 140.008 86 140.078 85.9063 140.141C85.7813 140.234 85.6875 140.32 85.625 140.398C85.5313 140.523 85.4531 140.594 85.3906 140.609C85.1719 140.75 84.9766 140.867 84.8047 140.961C84.6328 141.07 84.4844 141.164 84.3594 141.242C84.1094 141.383 83.8906 141.406 83.7031 141.313C83.4531 141.375 83.2188 141.336 83 141.195C82.7813 141.055 82.5781 140.922 82.3906 140.797C82.3125 140.688 82.2344 140.578 82.1563 140.469C82.0781 140.375 82 140.281 81.9219 140.188C81.7813 140.016 81.6719 139.797 81.5938 139.531C81.4063 139.281 81.2344 138.992 81.0781 138.664C80.9219 138.336 80.7813 138 80.6563 137.656C80.6406 137.016 80.5938 136.547 80.5156 136.25C80.4531 135.984 80.4375 135.672 80.4688 135.312C80.4844 134.953 80.6016 134.617 80.8203 134.305C81.0391 133.992 81.2031 133.687 81.3125 133.391C81.2969 133.125 81.3438 132.937 81.4531 132.828C81.5781 132.703 81.625 132.547 81.5938 132.359C81.8594 131.641 82.1563 131.07 82.4844 130.648C82.7969 130.242 83.0313 129.781 83.1875 129.266C83.3438 128.734 83.5391 128.273 83.7734 127.883C83.9922 127.508 84.1875 127.062 84.3594 126.547C84.5 126.281 84.6016 126.047 84.6641 125.844C84.7266 125.609 84.8438 125.359 85.0156 125.094C85.1406 124.969 85.2266 124.875 85.2734 124.812C85.3203 124.75 85.4063 124.672 85.5313 124.578C85.7969 124.5 86.0156 124.391 86.1875 124.25C86.3594 124.109 86.5781 124 86.8438 123.922C87.0313 123.859 87.2109 123.828 87.3828 123.828C87.5234 123.828 87.6719 123.781 87.8281 123.687C88.2188 123.437 88.4922 123.297 88.6484 123.266C88.7734 123.25 88.9219 123.203 89.0938 123.125C89.3125 123.312 89.4844 123.508 89.6094 123.711C89.7344 123.914 89.7656 124.172 89.7031 124.484C89.5 124.687 89.3906 124.836 89.375 124.93C89.3594 125.039 89.3125 125.141 89.2344 125.234C89.1563 125.359 89.0625 125.469 88.9531 125.562C88.8438 125.656 88.75 125.766 88.6719 125.891C88.6406 125.953 88.6094 126.016 88.5781 126.078C88.5625 126.125 88.5391 126.172 88.5078 126.219C88.4453 126.344 88.3906 126.437 88.3438 126.5L88.1328 126.687C88.0391 126.781 87.9688 126.859 87.9219 126.922C87.8438 127 87.7969 127.078 87.7813 127.156C87.7656 127.25 87.7188 127.344 87.6406 127.437C87.5469 127.578 87.3984 127.719 87.1953 127.859C87.0547 127.969 86.9375 128.094 86.8438 128.234C86.7969 128.375 86.7422 128.602 86.6797 128.914C86.6641 129.039 86.6406 129.172 86.6094 129.312C86.5781 129.437 86.5469 129.562 86.5156 129.687C86.4063 130.031 86.2344 130.43 86 130.883C85.7344 131.398 85.5469 131.812 85.4375 132.125C85.4063 132.266 85.375 132.406 85.3438 132.547C85.3281 132.687 85.3047 132.82 85.2734 132.945C85.2578 133.07 85.2344 133.203 85.2031 133.344C85.1719 133.469 85.1406 133.594 85.1094 133.719C85.0781 133.844 85.0313 133.953 84.9688 134.047C84.9063 134.141 84.8594 134.234 84.8281 134.328C84.6719 134.766 84.5859 135.234 84.5703 135.734C84.5547 136.234 84.7344 136.547 85.1094 136.672ZM125.844 126.969L125.797 127.344C125.828 127.453 125.797 127.641 125.703 127.906C125.547 128.094 125.453 128.297 125.422 128.516C125.359 128.641 125.305 128.75 125.258 128.844C125.211 128.937 125.172 129.062 125.141 129.219C125.078 129.406 125.055 129.625 125.07 129.875C125.086 130 125.086 130.125 125.07 130.25C125.07 130.359 125.063 130.469 125.047 130.578C124.984 130.922 124.938 131.258 124.906 131.586C124.875 131.914 124.844 132.25 124.813 132.594C124.813 132.937 124.781 133.328 124.719 133.766C124.656 134.203 124.594 134.594 124.531 134.937C124.672 135.187 124.75 135.422 124.766 135.641C124.781 135.875 124.891 136.078 125.094 136.25C125.719 136.156 126.219 136.008 126.594 135.805C126.969 135.602 127.328 135.312 127.672 134.937C127.922 134.828 128.117 134.719 128.258 134.609C128.383 134.5 128.563 134.375 128.797 134.234L129.172 133.859C129.547 133.656 129.758 133.531 129.805 133.484C129.836 133.453 129.875 133.422 129.922 133.391C129.984 133.359 130.047 133.328 130.109 133.297C130.641 132.953 131.047 132.594 131.328 132.219C131.563 132.031 131.758 131.836 131.914 131.633C132.039 131.461 132.281 131.297 132.641 131.141C132.844 130.891 133.07 130.68 133.32 130.508C133.57 130.336 133.797 130.125 134 129.875C134.172 129.875 134.297 129.906 134.375 129.969C134.422 130 134.469 130.031 134.516 130.062C134.578 130.094 134.641 130.125 134.703 130.156C134.797 130.406 134.813 130.664 134.75 130.93C134.688 131.195 134.578 131.437 134.422 131.656C134.266 131.859 134.188 131.984 134.188 132.031C134.188 132.062 134.172 132.094 134.141 132.125C134.047 132.234 133.93 132.352 133.789 132.477C133.648 132.586 133.531 132.703 133.438 132.828C133.281 133.109 133.156 133.25 133.063 133.25C132.969 133.25 132.891 133.281 132.828 133.344C132.547 133.516 132.352 133.641 132.242 133.719C132.117 133.828 131.938 133.953 131.703 134.094C131.375 134.266 131.172 134.391 131.094 134.469C131.016 134.547 130.953 134.594 130.906 134.609C130.531 135.031 130.164 135.383 129.805 135.664C129.477 135.914 129.125 136.266 128.75 136.719C128.625 136.812 128.5 136.906 128.375 137C128.25 137.094 128.141 137.219 128.047 137.375C127.766 137.562 127.539 137.75 127.367 137.937C127.195 138.125 127 138.344 126.781 138.594C126.594 138.687 126.391 138.82 126.172 138.992C125.906 139.195 125.672 139.344 125.469 139.437C125.391 139.484 125.258 139.555 125.07 139.648C124.914 139.727 124.766 139.766 124.625 139.766C124.266 139.828 123.922 139.797 123.594 139.672C123.297 139.562 123 139.469 122.703 139.391C122.578 139.203 122.422 139.047 122.234 138.922C121.953 138.578 121.75 138.172 121.625 137.703C121.5 137.234 121.375 136.734 121.25 136.203C120.969 136.391 120.734 136.594 120.547 136.812C120.359 137.047 120.078 137.25 119.703 137.422C119.391 137.719 119.07 138.016 118.742 138.312C118.414 138.594 118.07 138.867 117.711 139.133C117.367 139.398 117.016 139.68 116.656 139.977C116.297 140.258 115.938 140.547 115.578 140.844C115.328 141.094 115.156 141.188 115.063 141.125C114.781 141.469 114.281 141.578 113.563 141.453C113.313 141.328 113.031 141.219 112.719 141.125C112.5 141.063 112.25 140.969 111.969 140.844C111.438 140.75 110.992 140.516 110.633 140.141C110.273 139.766 109.969 139.328 109.719 138.828C109.625 138.562 109.555 138.328 109.508 138.125C109.492 138.016 109.469 137.898 109.438 137.773C109.406 137.648 109.375 137.516 109.344 137.375C109.328 137.109 109.281 136.898 109.203 136.742C109.141 136.57 109.141 136.406 109.203 136.25C109.141 136.172 109.125 136.07 109.156 135.945C109.188 135.789 109.203 135.672 109.203 135.594C109.172 135.156 109.211 134.687 109.32 134.187C109.43 133.687 109.578 133.234 109.766 132.828C109.859 132.672 109.984 132.516 110.141 132.359C110.219 132.266 110.266 132.172 110.281 132.078C110.297 132 110.344 131.922 110.422 131.844C110.5 131.75 110.594 131.656 110.703 131.562C110.859 131.437 110.969 131.344 111.031 131.281C111.109 131.172 111.188 131.07 111.266 130.977C111.359 130.867 111.461 130.773 111.57 130.695C111.68 130.617 111.781 130.531 111.875 130.437C111.969 130.344 112.063 130.25 112.156 130.156C112.266 130.047 112.352 129.937 112.414 129.828C112.492 129.703 112.609 129.609 112.766 129.547C112.891 129.328 113.031 129.148 113.188 129.008C113.344 128.867 113.516 128.719 113.703 128.562C114.234 127.922 114.891 127.375 115.672 126.922C116.469 126.469 117.172 125.969 117.781 125.422C118 125.328 118.188 125.219 118.344 125.094C118.5 124.969 118.656 124.844 118.813 124.719C119.203 124.375 119.625 124.266 120.078 124.391L121.297 124.719C121.609 125 121.914 125.281 122.211 125.562C122.508 125.844 122.766 126.156 122.984 126.5C123.094 126.484 123.211 126.477 123.336 126.477C123.461 126.461 123.594 126.461 123.734 126.477C124.016 126.508 124.313 126.484 124.625 126.406C124.719 126.406 124.813 126.383 124.906 126.336C125 126.289 125.078 126.266 125.141 126.266C125.609 126.422 125.844 126.656 125.844 126.969ZM119.656 127.672C118.813 128.078 118.047 128.555 117.359 129.102C116.672 129.648 116.016 130.234 115.391 130.859C115.313 130.937 115.227 131.016 115.133 131.094C115.055 131.156 114.977 131.227 114.898 131.305C114.82 131.367 114.742 131.437 114.664 131.516C114.586 131.594 114.516 131.672 114.453 131.75C114.328 131.906 114.211 132.094 114.102 132.312C113.992 132.531 113.891 132.734 113.797 132.922C113.766 132.984 113.734 133.047 113.703 133.109C113.672 133.156 113.641 133.195 113.609 133.227C113.578 133.258 113.547 133.297 113.516 133.344C113.484 133.391 113.453 133.437 113.422 133.484C113.359 133.641 113.336 133.797 113.352 133.953C113.367 134.062 113.375 134.234 113.375 134.469V134.937C113.375 135.031 113.391 135.187 113.422 135.406C113.516 135.75 113.563 136.094 113.563 136.437C113.563 136.687 113.586 136.992 113.633 137.352C113.68 137.711 113.797 137.953 113.984 138.078C114.188 138.203 114.383 138.234 114.57 138.172C114.789 138.094 114.969 138.047 115.109 138.031C116.203 137.187 117.234 136.305 118.203 135.383C119.172 134.461 120.031 133.422 120.781 132.266C120.719 131.5 120.711 130.711 120.758 129.898C120.805 129.133 120.734 128.422 120.547 127.766C120.422 127.687 120.273 127.664 120.102 127.695C119.977 127.711 119.828 127.703 119.656 127.672ZM146.047 128.937C146.359 129.016 146.586 129.125 146.727 129.266C146.836 129.375 146.891 129.5 146.891 129.641C146.641 129.984 146.492 130.211 146.445 130.32C146.398 130.43 146.297 130.516 146.141 130.578C145.938 130.891 145.719 131.187 145.484 131.469C145.266 131.734 145.023 131.992 144.758 132.242C144.273 132.711 143.797 133.25 143.328 133.859C143.125 134.062 142.984 134.219 142.906 134.328C142.828 134.437 142.688 134.594 142.484 134.797C142.109 135.062 141.797 135.336 141.547 135.617C141.406 135.773 141.258 135.922 141.102 136.062C140.961 136.187 140.813 136.312 140.656 136.437C140.578 136.5 140.5 136.562 140.422 136.625C140.359 136.672 140.289 136.727 140.211 136.789C140.148 136.852 140.078 136.914 140 136.977C139.922 137.039 139.844 137.109 139.766 137.187C139.641 137.312 139.5 137.437 139.344 137.562C139.281 137.609 139.211 137.664 139.133 137.727C139.07 137.773 139 137.828 138.922 137.891C138.734 138.109 138.547 138.328 138.359 138.547C138.172 138.766 137.984 139 137.797 139.25C137.469 139.406 137.156 139.594 136.859 139.812C136.578 140.016 136.25 140.203 135.875 140.375C135.719 140.469 135.57 140.617 135.43 140.82C135.305 141.008 135.125 141.141 134.891 141.219C134.641 141.313 134.375 141.336 134.094 141.289C133.813 141.242 133.578 141.172 133.391 141.078C133.188 140.938 133.063 140.859 133.016 140.844C132.891 140.813 132.813 140.797 132.781 140.797C132.484 140.375 132.281 139.93 132.172 139.461C132.109 139.211 132.039 138.961 131.961 138.711C131.898 138.461 131.828 138.203 131.75 137.937C131.688 137.781 131.641 137.617 131.609 137.445C131.578 137.273 131.547 137.078 131.516 136.859L131.445 136.484C131.43 136.422 131.414 136.359 131.398 136.297C131.383 136.219 131.359 136.141 131.328 136.062C131.266 135.906 131.203 135.742 131.141 135.57C131.078 135.398 131.031 135.219 131 135.031C130.938 134.656 130.914 134.289 130.93 133.93C130.945 133.57 130.984 133.219 131.047 132.875C131.234 131.844 131.508 130.859 131.867 129.922C132.227 128.984 132.594 128.094 132.969 127.25C133.047 126.859 133.133 126.562 133.227 126.359C133.32 126.156 133.422 125.875 133.531 125.516C133.672 125.344 133.781 125.094 133.859 124.766C133.891 124.625 133.922 124.484 133.953 124.344C134 124.203 134.047 124.062 134.094 123.922C134.141 123.797 134.195 123.672 134.258 123.547C134.32 123.406 134.383 123.258 134.445 123.102C134.57 122.82 134.672 122.531 134.75 122.234C134.859 121.875 134.945 121.562 135.008 121.297C135.039 121.141 135.078 120.992 135.125 120.852C135.188 120.711 135.25 120.578 135.313 120.453C135.438 120.125 135.555 119.805 135.664 119.492C135.789 119.18 135.906 118.875 136.016 118.578C136.125 118.281 136.234 117.984 136.344 117.687C136.469 117.391 136.594 117.094 136.719 116.797C136.75 116.703 136.781 116.609 136.813 116.516C136.844 116.422 136.875 116.328 136.906 116.234C136.969 116.062 137.063 115.891 137.188 115.719C137.266 115.5 137.344 115.336 137.422 115.227C137.547 115.039 137.641 114.891 137.703 114.781C137.703 114.609 137.758 114.492 137.867 114.43C137.945 114.383 138.031 114.281 138.125 114.125C138.297 113.859 138.414 113.609 138.477 113.375C138.539 113.141 138.656 112.891 138.828 112.625L139.391 111.922C139.422 111.859 139.453 111.797 139.484 111.734C139.516 111.672 139.547 111.609 139.578 111.547C139.656 111.422 139.75 111.312 139.859 111.219C140.219 110.656 140.594 110.094 140.984 109.531L142.25 107.75C142.531 107.312 142.844 106.898 143.188 106.508C143.531 106.117 143.891 105.734 144.266 105.359C144.391 105.203 144.539 105.031 144.711 104.844C144.883 104.656 145.063 104.547 145.25 104.516C145.547 104.484 145.859 104.516 146.188 104.609C146.281 104.766 146.367 104.93 146.445 105.102C146.523 105.273 146.594 105.469 146.656 105.687C146.719 106.656 146.688 107.594 146.563 108.5C146.438 109.406 146.297 110.297 146.141 111.172C146.109 111.375 146.102 111.523 146.117 111.617C146.133 111.711 146.125 111.859 146.094 112.062C146.031 112.25 145.953 112.492 145.859 112.789C145.766 113.086 145.688 113.359 145.625 113.609C145.625 114.031 145.531 114.422 145.344 114.781C145.156 115.125 145.031 115.469 144.969 115.812C144.875 115.875 144.82 115.977 144.805 116.117C144.789 116.258 144.734 116.359 144.641 116.422C144.563 116.781 144.461 117.094 144.336 117.359C144.195 117.641 144.078 117.922 143.984 118.203C143.75 118.531 143.516 118.852 143.281 119.164C143.047 119.477 142.805 119.789 142.555 120.102C142.305 120.398 142.063 120.711 141.828 121.039C141.609 121.352 141.391 121.672 141.172 122C140.625 122.828 140.055 123.609 139.461 124.344C138.867 125.078 138.297 125.859 137.75 126.687C137.313 127.078 136.969 127.469 136.719 127.859C136.453 128.281 136.094 128.672 135.641 129.031C135.563 129.344 135.484 129.672 135.406 130.016C135.344 130.359 135.273 130.711 135.195 131.07C135.133 131.43 135.063 131.797 134.984 132.172C134.906 132.547 134.828 132.922 134.75 133.297C134.734 133.5 134.688 133.711 134.609 133.93C134.578 134.039 134.547 134.148 134.516 134.258C134.484 134.352 134.453 134.453 134.422 134.562C134.359 134.781 134.344 135.047 134.375 135.359C134.391 135.641 134.344 135.906 134.234 136.156C134.281 136.281 134.32 136.461 134.352 136.695C134.367 136.898 134.422 137.078 134.516 137.234C134.688 137.516 134.875 137.656 135.078 137.656C135.313 137.531 135.438 137.477 135.453 137.492C135.469 137.508 135.516 137.5 135.594 137.469C135.75 137.375 135.906 137.25 136.063 137.094C136.219 136.937 136.359 136.797 136.484 136.672C136.656 136.594 136.773 136.523 136.836 136.461C136.883 136.414 136.969 136.344 137.094 136.25C137.188 136.187 137.273 136.141 137.352 136.109C137.43 136.078 137.5 136.031 137.563 135.969C138.016 135.5 138.438 135.148 138.828 134.914C139.234 134.68 139.563 134.391 139.813 134.047L140.656 133.531C140.828 133.437 140.992 133.305 141.148 133.133C141.289 132.961 141.469 132.828 141.688 132.734C141.781 132.609 141.844 132.531 141.875 132.5C141.906 132.469 141.969 132.391 142.063 132.266C142.25 132.141 142.438 132.016 142.625 131.891C142.813 131.766 142.992 131.641 143.164 131.516C143.336 131.391 143.516 131.266 143.703 131.141C143.906 131.016 144.109 130.891 144.313 130.766C144.375 130.609 144.477 130.484 144.617 130.391C144.758 130.297 144.875 130.203 144.969 130.109C145.063 130.016 145.141 129.914 145.203 129.805C145.281 129.68 145.391 129.609 145.531 129.594C145.547 129.453 145.617 129.344 145.742 129.266C145.867 129.187 145.969 129.078 146.047 128.937ZM143.516 111.453H143.469C143.188 111.516 142.992 111.656 142.883 111.875C142.773 112.094 142.672 112.344 142.578 112.625C142.516 112.75 142.453 112.859 142.391 112.953C142.344 113.047 142.305 113.125 142.273 113.187C142.211 113.297 142.188 113.484 142.203 113.75C141.719 114.547 141.258 115.367 140.82 116.211C140.383 117.039 139.961 117.891 139.555 118.766C139.164 119.641 138.766 120.523 138.359 121.414C137.953 122.289 137.547 123.172 137.141 124.062C137.781 123.422 138.367 122.672 138.898 121.812C139.164 121.375 139.438 120.969 139.719 120.594C140.016 120.219 140.313 119.875 140.609 119.562C140.828 119.031 141.055 118.516 141.289 118.016C141.539 117.516 141.797 117.039 142.063 116.586C142.578 115.711 142.984 114.672 143.281 113.469C143.156 113.078 143.172 112.742 143.328 112.461C143.484 112.18 143.547 111.844 143.516 111.453ZM158.609 128.937C158.922 129.016 159.148 129.125 159.289 129.266C159.398 129.375 159.453 129.5 159.453 129.641C159.203 129.984 159.055 130.211 159.008 130.32C158.961 130.43 158.859 130.516 158.703 130.578C158.5 130.891 158.281 131.187 158.047 131.469C157.828 131.734 157.586 131.992 157.32 132.242C156.836 132.711 156.359 133.25 155.891 133.859C155.688 134.062 155.547 134.219 155.469 134.328C155.391 134.437 155.25 134.594 155.047 134.797C154.672 135.062 154.359 135.336 154.109 135.617C153.969 135.773 153.82 135.922 153.664 136.062C153.523 136.187 153.375 136.312 153.219 136.437C153.141 136.5 153.063 136.562 152.984 136.625C152.922 136.672 152.852 136.727 152.773 136.789C152.711 136.852 152.641 136.914 152.563 136.977C152.484 137.039 152.406 137.109 152.328 137.187C152.203 137.312 152.063 137.437 151.906 137.562C151.844 137.609 151.773 137.664 151.695 137.727C151.633 137.773 151.563 137.828 151.484 137.891C151.297 138.109 151.109 138.328 150.922 138.547C150.734 138.766 150.547 139 150.359 139.25C150.031 139.406 149.719 139.594 149.422 139.812C149.141 140.016 148.813 140.203 148.438 140.375C148.281 140.469 148.133 140.617 147.992 140.82C147.867 141.008 147.688 141.141 147.453 141.219C147.203 141.313 146.938 141.336 146.656 141.289C146.375 141.242 146.141 141.172 145.953 141.078C145.75 140.938 145.625 140.859 145.578 140.844C145.453 140.813 145.375 140.797 145.344 140.797C145.047 140.375 144.844 139.93 144.734 139.461C144.672 139.211 144.602 138.961 144.523 138.711C144.461 138.461 144.391 138.203 144.313 137.937C144.25 137.781 144.203 137.617 144.172 137.445C144.141 137.273 144.109 137.078 144.078 136.859L144.008 136.484C143.992 136.422 143.977 136.359 143.961 136.297C143.945 136.219 143.922 136.141 143.891 136.062C143.828 135.906 143.766 135.742 143.703 135.57C143.641 135.398 143.594 135.219 143.563 135.031C143.5 134.656 143.477 134.289 143.492 133.93C143.508 133.57 143.547 133.219 143.609 132.875C143.797 131.844 144.07 130.859 144.43 129.922C144.789 128.984 145.156 128.094 145.531 127.25C145.609 126.859 145.695 126.562 145.789 126.359C145.883 126.156 145.984 125.875 146.094 125.516C146.234 125.344 146.344 125.094 146.422 124.766C146.453 124.625 146.484 124.484 146.516 124.344C146.563 124.203 146.609 124.062 146.656 123.922C146.703 123.797 146.758 123.672 146.82 123.547C146.883 123.406 146.945 123.258 147.008 123.102C147.133 122.82 147.234 122.531 147.313 122.234C147.422 121.875 147.508 121.562 147.57 121.297C147.602 121.141 147.641 120.992 147.688 120.852C147.75 120.711 147.813 120.578 147.875 120.453C148 120.125 148.117 119.805 148.227 119.492C148.352 119.18 148.469 118.875 148.578 118.578C148.688 118.281 148.797 117.984 148.906 117.687C149.031 117.391 149.156 117.094 149.281 116.797C149.313 116.703 149.344 116.609 149.375 116.516C149.406 116.422 149.438 116.328 149.469 116.234C149.531 116.062 149.625 115.891 149.75 115.719C149.828 115.5 149.906 115.336 149.984 115.227C150.109 115.039 150.203 114.891 150.266 114.781C150.266 114.609 150.32 114.492 150.43 114.43C150.508 114.383 150.594 114.281 150.688 114.125C150.859 113.859 150.977 113.609 151.039 113.375C151.102 113.141 151.219 112.891 151.391 112.625L151.953 111.922C151.984 111.859 152.016 111.797 152.047 111.734C152.078 111.672 152.109 111.609 152.141 111.547C152.219 111.422 152.313 111.312 152.422 111.219C152.781 110.656 153.156 110.094 153.547 109.531L154.813 107.75C155.094 107.312 155.406 106.898 155.75 106.508C156.094 106.117 156.453 105.734 156.828 105.359C156.953 105.203 157.102 105.031 157.273 104.844C157.445 104.656 157.625 104.547 157.813 104.516C158.109 104.484 158.422 104.516 158.75 104.609C158.844 104.766 158.93 104.93 159.008 105.102C159.086 105.273 159.156 105.469 159.219 105.687C159.281 106.656 159.25 107.594 159.125 108.5C159 109.406 158.859 110.297 158.703 111.172C158.672 111.375 158.664 111.523 158.68 111.617C158.695 111.711 158.688 111.859 158.656 112.062C158.594 112.25 158.516 112.492 158.422 112.789C158.328 113.086 158.25 113.359 158.188 113.609C158.188 114.031 158.094 114.422 157.906 114.781C157.719 115.125 157.594 115.469 157.531 115.812C157.438 115.875 157.383 115.977 157.367 116.117C157.352 116.258 157.297 116.359 157.203 116.422C157.125 116.781 157.023 117.094 156.898 117.359C156.758 117.641 156.641 117.922 156.547 118.203C156.313 118.531 156.078 118.852 155.844 119.164C155.609 119.477 155.367 119.789 155.117 120.102C154.867 120.398 154.625 120.711 154.391 121.039C154.172 121.352 153.953 121.672 153.734 122C153.188 122.828 152.617 123.609 152.023 124.344C151.43 125.078 150.859 125.859 150.313 126.687C149.875 127.078 149.531 127.469 149.281 127.859C149.016 128.281 148.656 128.672 148.203 129.031C148.125 129.344 148.047 129.672 147.969 130.016C147.906 130.359 147.836 130.711 147.758 131.07C147.695 131.43 147.625 131.797 147.547 132.172C147.469 132.547 147.391 132.922 147.313 133.297C147.297 133.5 147.25 133.711 147.172 133.93C147.141 134.039 147.109 134.148 147.078 134.258C147.047 134.352 147.016 134.453 146.984 134.562C146.922 134.781 146.906 135.047 146.938 135.359C146.953 135.641 146.906 135.906 146.797 136.156C146.844 136.281 146.883 136.461 146.914 136.695C146.93 136.898 146.984 137.078 147.078 137.234C147.25 137.516 147.438 137.656 147.641 137.656C147.875 137.531 148 137.477 148.016 137.492C148.031 137.508 148.078 137.5 148.156 137.469C148.313 137.375 148.469 137.25 148.625 137.094C148.781 136.937 148.922 136.797 149.047 136.672C149.219 136.594 149.336 136.523 149.398 136.461C149.445 136.414 149.531 136.344 149.656 136.25C149.75 136.187 149.836 136.141 149.914 136.109C149.992 136.078 150.063 136.031 150.125 135.969C150.578 135.5 151 135.148 151.391 134.914C151.797 134.68 152.125 134.391 152.375 134.047L153.219 133.531C153.391 133.437 153.555 133.305 153.711 133.133C153.852 132.961 154.031 132.828 154.25 132.734C154.344 132.609 154.406 132.531 154.438 132.5C154.469 132.469 154.531 132.391 154.625 132.266C154.813 132.141 155 132.016 155.188 131.891C155.375 131.766 155.555 131.641 155.727 131.516C155.898 131.391 156.078 131.266 156.266 131.141C156.469 131.016 156.672 130.891 156.875 130.766C156.938 130.609 157.039 130.484 157.18 130.391C157.32 130.297 157.438 130.203 157.531 130.109C157.625 130.016 157.703 129.914 157.766 129.805C157.844 129.68 157.953 129.609 158.094 129.594C158.109 129.453 158.18 129.344 158.305 129.266C158.43 129.187 158.531 129.078 158.609 128.937ZM156.078 111.453H156.031C155.75 111.516 155.555 111.656 155.445 111.875C155.336 112.094 155.234 112.344 155.141 112.625C155.078 112.75 155.016 112.859 154.953 112.953C154.906 113.047 154.867 113.125 154.836 113.187C154.773 113.297 154.75 113.484 154.766 113.75C154.281 114.547 153.82 115.367 153.383 116.211C152.945 117.039 152.523 117.891 152.117 118.766C151.727 119.641 151.328 120.523 150.922 121.414C150.516 122.289 150.109 123.172 149.703 124.062C150.344 123.422 150.93 122.672 151.461 121.812C151.727 121.375 152 120.969 152.281 120.594C152.578 120.219 152.875 119.875 153.172 119.562C153.391 119.031 153.617 118.516 153.852 118.016C154.102 117.516 154.359 117.039 154.625 116.586C155.141 115.711 155.547 114.672 155.844 113.469C155.719 113.078 155.734 112.742 155.891 112.461C156.047 112.18 156.109 111.844 156.078 111.453Z" fill="black"/>
</svg>
