<svg width="303" height="216" viewBox="0 0 303 216" fill="none" xmlns="http://www.w3.org/2000/svg">
<path d="M143.662 134.808C143.662 138.733 143.065 142.317 141.87 145.56C140.761 148.717 138.713 151.448 135.726 153.752C132.825 155.971 128.771 157.72 123.566 159C118.446 160.28 111.918 160.92 103.982 160.92C96.046 160.92 89.4753 160.28 84.27 159C79.0647 157.72 74.9687 155.971 71.982 153.752C69.0807 151.448 67.0327 148.717 65.838 145.56C64.7287 142.317 64.174 138.733 64.174 134.808V91.16C64.174 87.2347 64.7287 83.6933 65.838 80.536C67.0327 77.2933 69.0807 74.52 71.982 72.216C74.9687 69.912 79.0647 68.12 84.27 66.84C89.4753 65.56 96.046 64.92 103.982 64.92C111.918 64.92 118.446 65.56 123.566 66.84C128.771 68.12 132.825 69.912 135.726 72.216C138.713 74.52 140.761 77.2933 141.87 80.536C143.065 83.6933 143.662 87.2347 143.662 91.16V134.808ZM93.23 130.2C93.23 131.907 93.87 133.357 95.15 134.552C96.43 135.661 99.374 136.216 103.982 136.216C108.59 136.216 111.534 135.661 112.814 134.552C114.094 133.357 114.734 131.907 114.734 130.2V95.768C114.734 94.1467 114.094 92.7813 112.814 91.672C111.534 90.4773 108.59 89.88 103.982 89.88C99.374 89.88 96.43 90.4773 95.15 91.672C93.87 92.7813 93.23 94.1467 93.23 95.768V130.2ZM188.885 89.88V106.264H198.485C200.704 106.264 202.197 105.709 202.965 104.6C203.733 103.405 204.117 101.955 204.117 100.248V95.896C204.117 94.1893 203.733 92.7813 202.965 91.672C202.197 90.4773 200.704 89.88 198.485 89.88H188.885ZM184.277 159H164.565C162.944 159 161.749 158.659 160.981 157.976C160.298 157.208 159.957 156.013 159.957 154.392V71.448C159.957 69.8267 160.298 68.6747 160.981 67.992C161.749 67.224 162.944 66.84 164.565 66.84H207.189C216.746 66.84 223.317 68.8453 226.901 72.856C230.57 76.7813 232.405 81.9013 232.405 88.216V94.104C232.405 97.688 231.85 100.76 230.741 103.32C229.717 105.795 227.882 107.587 225.237 108.696C229.845 109.208 233.557 111.085 236.373 114.328C239.274 117.571 240.725 121.88 240.725 127.256V154.392C240.725 156.013 240.341 157.208 239.573 157.976C238.89 158.659 237.738 159 236.117 159H216.277C214.656 159 213.461 158.659 212.693 157.976C212.01 157.208 211.669 156.013 211.669 154.392V134.808C211.669 132.931 211.285 131.565 210.517 130.712C209.834 129.773 208.597 129.304 206.805 129.304H188.885V154.392C188.885 156.013 188.501 157.208 187.733 157.976C187.05 158.659 185.898 159 184.277 159Z" fill="#A0D8F6"/>
<path d="M120.281 60.5C120.531 61 120.813 61.4688 121.125 61.9062C121.438 62.3438 121.656 62.875 121.781 63.5C121.948 63.7292 122.031 63.9583 122.031 64.1875C122.031 64.4583 122.073 64.7083 122.156 64.9375C122.448 65.9792 122.813 66.9896 123.25 67.9688C123.688 68.9479 124.115 69.875 124.531 70.75C124.615 71.4583 124.833 72.0312 125.188 72.4688C125.542 72.9062 125.76 73.4792 125.844 74.1875C126.177 74.9792 126.552 75.7292 126.969 76.4375C127.385 77.1458 127.802 77.8542 128.219 78.5625L128.844 78.9375C128.948 79 129.052 79.0625 129.156 79.125C129.281 79.2083 129.406 79.2917 129.531 79.375C129.74 79.5 129.885 79.5938 129.969 79.6562C130.115 79.7604 130.281 79.8542 130.469 79.9375C130.698 80.0417 130.896 80.1042 131.063 80.125C131.229 80.1458 131.427 80.2083 131.656 80.3125C131.865 80.4375 132 80.5417 132.063 80.625C132.125 80.7083 132.24 80.8125 132.406 80.9375C132.552 80.9583 132.719 81.0104 132.906 81.0938C133.052 81.1562 133.219 81.1667 133.406 81.125C134.094 81.4583 134.698 81.6875 135.219 81.8125C135.469 81.875 135.708 81.9375 135.938 82C136.188 82.0833 136.427 82.1667 136.656 82.25C136.865 82.3333 137.125 82.4167 137.438 82.5C137.75 82.5833 138.01 82.625 138.219 82.625C138.615 82.8125 138.885 83.0625 139.031 83.375C139.198 83.6875 139.396 83.9792 139.625 84.25C139.854 84.5208 140.26 84.6875 140.844 84.75C140.99 84.8542 141.083 84.9688 141.125 85.0938C141.167 85.2188 141.281 85.3542 141.469 85.5C141.865 85.8333 142.042 86.0417 142 86.125C141.917 86.25 141.865 86.3542 141.844 86.4375C141.552 86.4792 141.26 86.5208 140.969 86.5625C140.677 86.6042 140.469 86.7292 140.344 86.9375C140.219 86.9375 140.083 86.9375 139.938 86.9375C139.813 86.9375 139.667 86.9479 139.5 86.9688C139.229 86.9896 138.969 86.9167 138.719 86.75C137.969 86.7917 137.323 86.75 136.781 86.625C136.26 86.5208 135.552 86.4167 134.656 86.3125C134.427 86.3125 134.198 86.3125 133.969 86.3125C133.76 86.3333 133.552 86.3542 133.344 86.375C132.906 86.4167 132.531 86.375 132.219 86.25C131.302 85.875 130.573 85.5417 130.031 85.25C129.49 84.9583 128.927 84.6458 128.344 84.3125C127.906 84.1042 127.49 83.8542 127.094 83.5625C126.698 83.2708 126.281 83.0208 125.844 82.8125C125.26 82.1458 124.698 81.5 124.156 80.875C123.615 80.25 123.115 79.5625 122.656 78.8125L122.25 78.125C122.208 78.0417 122.156 77.9583 122.094 77.875C122.052 77.7917 122.01 77.7083 121.969 77.625C121.823 77.2708 121.677 77.0417 121.531 76.9375C121.427 76.8542 121.323 76.7292 121.219 76.5625C121.115 76.3958 121.01 76.1458 120.906 75.8125C120.865 75.6667 120.823 75.5208 120.781 75.375C120.74 75.2292 120.698 75.0833 120.656 74.9375C120.573 74.5625 120.49 74.1979 120.406 73.8438C120.323 73.4896 120.219 73.1458 120.094 72.8125C119.99 72.5208 119.875 72.3021 119.75 72.1562C119.604 71.9688 119.51 71.7292 119.469 71.4375C119.302 70.9792 119.146 70.5104 119 70.0312C118.854 69.5521 118.74 69.0417 118.656 68.5C118.531 67.7083 118.375 67.0938 118.188 66.6562C118.021 66.2812 117.885 65.8542 117.781 65.375C117.51 64.7292 117.156 64 116.719 63.1875C116.49 62.7708 116.271 62.3854 116.063 62.0312C115.875 61.6562 115.698 61.3125 115.531 61C115.49 60.8958 115.458 60.8021 115.438 60.7188C115.417 60.6354 115.396 60.5625 115.375 60.5C115.354 60.375 115.281 60.2708 115.156 60.1875C114.927 60.4167 114.74 60.7708 114.594 61.25C114.469 61.6875 114.302 62.0625 114.094 62.375C113.635 63.1042 113.344 63.6979 113.219 64.1562C113.094 64.6146 112.906 65.0417 112.656 65.4375C112.531 66.2917 112.302 67.0208 111.969 67.625C111.865 68.2292 111.656 68.6667 111.344 68.9375C111.135 69.6875 110.885 70.4375 110.594 71.1875C110.448 71.5625 110.302 71.9375 110.156 72.3125C110.031 72.6667 109.906 73.0208 109.781 73.375C109.677 73.8125 109.573 74.1667 109.469 74.4375C109.344 74.75 109.302 75.0833 109.344 75.4375C109.344 75.75 109.292 76.0417 109.188 76.3125C109.083 76.5833 108.99 76.875 108.906 77.1875C108.698 77.7708 108.25 78.125 107.563 78.25C107.229 78.3125 106.896 78.375 106.563 78.4375C106.229 78.5208 105.906 78.6042 105.594 78.6875C105.469 78.7292 105.333 78.7708 105.188 78.8125C105.042 78.8542 104.885 78.8958 104.719 78.9375C104.219 79.0625 103.688 79.2812 103.125 79.5938C102.542 79.9062 101.969 80.0208 101.406 79.9375C101.031 79.8542 100.896 79.6354 101 79.2812C101.104 78.9271 101.26 78.6667 101.469 78.5C101.677 78.0417 101.896 77.5833 102.125 77.125C102.354 76.6667 102.594 76.2292 102.844 75.8125C102.948 75.4167 103.094 75.125 103.281 74.9375C103.51 74.7917 103.677 74.5625 103.781 74.25C103.865 74.1667 103.938 74.0625 104 73.9375C104.063 73.8125 104.115 73.7083 104.156 73.625C104.219 73.4792 104.271 73.2604 104.313 72.9688C104.354 72.6771 104.406 72.4583 104.469 72.3125C104.531 72.1458 104.594 71.9792 104.656 71.8125C104.719 71.625 104.771 71.4479 104.813 71.2812C104.917 70.8854 105.073 70.5 105.281 70.125L105.563 69.375C105.604 69.25 105.656 69.1146 105.719 68.9688C105.781 68.8229 105.844 68.6667 105.906 68.5C106.01 68.2292 106.135 67.9896 106.281 67.7812C106.448 67.5312 106.594 67.2917 106.719 67.0625C106.969 66.4583 107.156 65.9896 107.281 65.6562C107.427 65.2812 107.594 64.9375 107.781 64.625C108.156 63.6667 108.542 62.8646 108.938 62.2188C109.167 61.8646 109.385 61.4896 109.594 61.0938C109.802 60.6979 110.01 60.2917 110.219 59.875C110.26 59.8125 110.302 59.75 110.344 59.6875C110.385 59.625 110.427 59.5729 110.469 59.5312C110.552 59.4479 110.615 59.3125 110.656 59.125C110.823 59.0208 110.948 58.875 111.031 58.6875C111.115 58.5 111.24 58.3542 111.406 58.25C111.573 58 111.698 57.75 111.781 57.5C111.885 57.2292 112.01 57.0208 112.156 56.875C112.573 56.1042 112.969 55.2708 113.344 54.375C113.385 54.2708 113.417 54.1771 113.438 54.0938C113.458 53.9896 113.479 53.8958 113.5 53.8125C113.542 53.5625 113.594 53.3958 113.656 53.3125C113.885 53.0417 114.042 52.8125 114.125 52.625C114.208 52.4167 114.281 52.2708 114.344 52.1875C114.427 52.0417 114.51 51.9062 114.594 51.7812C114.698 51.6354 114.792 51.4896 114.875 51.3438C114.979 51.1979 115.073 51.0521 115.156 50.9062C115.24 50.7604 115.323 50.6042 115.406 50.4375C115.615 49.8333 115.896 49.2604 116.25 48.7188C116.604 48.1562 116.885 47.6042 117.094 47.0625C117.344 46.6875 117.49 46.4792 117.531 46.4375C117.573 46.3958 117.594 46.3333 117.594 46.25C118.135 45.2083 118.625 44.2396 119.063 43.3438C119.5 42.4479 119.948 41.5208 120.406 40.5625C119.906 40.6667 119.5 40.875 119.188 41.1875C118.875 41.5 118.51 41.7292 118.094 41.875C117.969 42.0417 117.885 42.1458 117.844 42.1875L117.594 42.4375C116.552 42.9375 115.594 43.5 114.719 44.125C113.844 44.75 113.073 45.5208 112.406 46.4375C112.115 46.5625 111.896 46.6771 111.75 46.7812C111.646 46.8646 111.531 46.9375 111.406 47C111.302 47.0625 111.198 47.125 111.094 47.1875C110.802 47.3125 110.427 47.3958 109.969 47.4375C109.51 47.4792 109.156 47.3333 108.906 47C108.76 45.7917 108.865 44.8958 109.219 44.3125C109.615 43.6875 109.969 43.1042 110.281 42.5625C110.76 42.125 111.344 41.6771 112.031 41.2188L113.844 40.0625C114.385 39.6875 114.729 39.4375 114.875 39.3125C114.979 39.2292 115.135 39.125 115.344 39C115.844 38.6667 116.354 38.3229 116.875 37.9688C117.396 37.5938 117.927 37.2083 118.469 36.8125C119.115 36.2292 119.844 35.7917 120.656 35.5C121.052 35.375 121.417 35.2708 121.75 35.1875C122.083 35.0833 122.385 34.9896 122.656 34.9062C122.927 34.8229 123.188 34.7396 123.438 34.6562C123.688 34.5729 123.927 34.4792 124.156 34.375C125.49 34.125 126.719 33.8021 127.844 33.4062C128.969 33.0104 130.115 32.6042 131.281 32.1875C131.573 32.1458 131.854 32.1146 132.125 32.0938C132.396 32.0729 132.667 32.0521 132.938 32.0312L134.656 31.9375C134.823 32.0625 135.063 32.1146 135.375 32.0938C135.542 32.0729 135.688 32.0729 135.813 32.0938C135.958 32.0938 136.094 32.1042 136.219 32.125C136.385 32.1667 136.552 32.2083 136.719 32.25C136.885 32.2708 137.042 32.3021 137.188 32.3438C137.354 32.3646 137.51 32.3958 137.656 32.4375C137.823 32.4792 137.99 32.5208 138.156 32.5625C138.427 32.8125 138.792 32.9896 139.25 33.0938C139.646 33.1771 140.094 33.3125 140.594 33.5C140.927 33.6667 141.24 33.8229 141.531 33.9688C141.823 34.1146 142.135 34.2708 142.469 34.4375C142.76 34.7917 142.896 35.0833 142.875 35.3125C142.854 35.4375 142.844 35.5938 142.844 35.7812C142.865 35.9479 142.885 36.1458 142.906 36.375L143 36.9688C143.042 37.2188 143.073 37.4167 143.094 37.5625C143.094 37.7292 143.125 37.875 143.188 38C143.25 38.125 143.281 38.25 143.281 38.375C143.302 38.7292 143.323 39.0833 143.344 39.4375C143.385 39.7708 143.417 40.1146 143.438 40.4688C143.5 41.1979 143.49 41.8958 143.406 42.5625C143.302 43.125 143.156 43.5521 142.969 43.8438C142.865 44.0104 142.76 44.1979 142.656 44.4062C142.552 44.6146 142.448 44.8333 142.344 45.0625C142.094 45.4792 141.823 45.8958 141.531 46.3125C141.24 46.7292 140.927 47.1667 140.594 47.625C140.531 47.6667 140.469 47.7083 140.406 47.75C140.344 47.7708 140.292 47.8021 140.25 47.8438C140.125 47.9271 140.052 48.0417 140.031 48.1875C139.448 48.625 138.948 48.9583 138.531 49.1875C138.135 49.3958 137.74 49.6458 137.344 49.9375C137.177 50.0208 137.01 50.1042 136.844 50.1875C136.677 50.2708 136.51 50.3542 136.344 50.4375C136.156 50.625 135.948 50.7917 135.719 50.9375C135.594 51.0208 135.469 51.1042 135.344 51.1875C135.24 51.2708 135.135 51.3542 135.031 51.4375C134.698 51.7708 134.406 52 134.156 52.125C133.927 52.25 133.76 52.4583 133.656 52.75C132.74 53.25 131.885 53.8646 131.094 54.5938C130.385 55.2396 129.573 55.875 128.656 56.5C128.49 56.6458 128.323 56.7917 128.156 56.9375C128.01 57.0833 127.854 57.2292 127.688 57.375C127.396 57.6458 127.031 57.8958 126.594 58.125C126.01 58.375 125.583 58.6042 125.313 58.8125C125.063 59 124.698 59.1458 124.219 59.25C123.115 59.9167 121.802 60.3333 120.281 60.5ZM134.219 36.125C134.01 36.1667 133.802 36.1875 133.594 36.1875C133.302 36.1875 133.031 36.2292 132.781 36.3125C132.573 36.3542 132.354 36.4167 132.125 36.5C131.896 36.5625 131.656 36.6458 131.406 36.75C131.156 36.8542 130.906 36.9479 130.656 37.0312C130.406 37.0938 130.156 37.1458 129.906 37.1875C129.573 37.2708 129.271 37.3542 129 37.4375C128.75 37.5 128.521 37.5625 128.313 37.625C127.875 37.7708 127.594 37.875 127.469 37.9375C127.406 38 127.354 38.1458 127.313 38.375C127.271 38.625 127.219 38.7917 127.156 38.875C126.99 39.2917 126.781 39.6771 126.531 40.0312C126.281 40.3646 126.094 40.7083 125.969 41.0625C125.531 41.5417 125.198 42.0729 124.969 42.6562C124.865 42.9271 124.76 43.1875 124.656 43.4375C124.552 43.6667 124.448 43.8958 124.344 44.125C124.073 44.4792 123.833 44.8125 123.625 45.125C123.417 45.4375 123.24 45.7292 123.094 46L122.719 46.4062C122.677 46.4479 122.656 46.5 122.656 46.5625C122.156 47.0625 121.75 47.625 121.438 48.25C121.125 48.875 120.74 49.4167 120.281 49.875C120.115 50.125 119.969 50.3646 119.844 50.5938C119.74 50.8021 119.646 51 119.563 51.1875C119.396 51.6042 119.156 51.9375 118.844 52.1875L118.375 53.1562C118.292 53.3021 118.208 53.4583 118.125 53.625C118.063 53.7917 117.99 53.9583 117.906 54.125C117.552 54.9167 117.094 55.7292 116.531 56.5625C116.531 56.75 116.479 56.9167 116.375 57.0625C116.313 57.1458 116.219 57.2917 116.094 57.5C116.26 57.625 116.427 57.6458 116.594 57.5625C116.76 57.4792 116.906 57.3958 117.031 57.3125C118.01 56.7708 119.052 56.3021 120.156 55.9062C121.344 55.4896 122.365 54.9792 123.219 54.375C124.01 53.9167 124.74 53.4896 125.406 53.0938C126.073 52.6979 126.719 52.2708 127.344 51.8125L128.781 51.0312C128.948 50.9271 129.125 50.8333 129.313 50.75C129.521 50.6667 129.74 50.5833 129.969 50.5C130.344 50.1875 130.698 49.9375 131.031 49.75C131.385 49.5417 131.677 49.2917 131.906 49C132.323 48.6667 132.74 48.2396 133.156 47.7188C133.573 47.1979 133.969 46.75 134.344 46.375C134.552 46.3542 134.677 46.2812 134.719 46.1562C134.76 46.0521 134.885 46 135.094 46C135.448 45.5208 135.854 45.1146 136.313 44.7812C136.792 44.4271 137.156 44.0208 137.406 43.5625C137.635 43.2083 137.792 42.875 137.875 42.5625C137.979 42.2083 138.135 41.8333 138.344 41.4375C138.26 41.125 138.333 40.7812 138.563 40.4062C138.792 40.0312 138.865 39.7083 138.781 39.4375C138.677 39.1042 138.51 38.8438 138.281 38.6562C138.031 38.4479 137.844 38.2083 137.719 37.9375C137.635 37.5833 137.542 37.3333 137.438 37.1875C137.354 37.0417 137.26 36.8333 137.156 36.5625C137.073 36.5208 136.99 36.4792 136.906 36.4375C136.844 36.3958 136.781 36.3542 136.719 36.3125C136.615 36.2292 136.406 36.2083 136.094 36.25C135.885 36.1458 135.604 36.1146 135.25 36.1562C135.083 36.1771 134.906 36.1875 134.719 36.1875C134.552 36.1667 134.385 36.1458 134.219 36.125ZM137.281 64.1875C137.552 64.0417 137.885 63.7292 138.281 63.25C138.677 62.75 139.063 62.2708 139.438 61.8125C139.813 61.3333 140.094 61.0625 140.281 61C140.406 60.7917 140.521 60.6146 140.625 60.4688C140.729 60.3229 140.885 60.1875 141.094 60.0625C141.427 59.4583 141.865 58.9479 142.406 58.5312C142.969 58.0938 143.49 57.625 143.969 57.125C144.365 56.9583 144.76 56.7708 145.156 56.5625C145.573 56.3542 145.979 56.1146 146.375 55.8438C147.188 55.3021 148.094 55.0208 149.094 55C149.552 55.2083 150 55.2708 150.438 55.1875C150.854 55.1042 151.26 55.2083 151.656 55.5C151.885 55.8958 152.073 56.1354 152.219 56.2188C152.365 56.3021 152.49 56.4167 152.594 56.5625C152.76 57.0833 152.885 57.4271 152.969 57.5938C153.073 57.7604 153.135 57.9375 153.156 58.125C153.177 58.4375 153.198 58.7083 153.219 58.9375C153.24 59.1458 153.26 59.3229 153.281 59.4688C153.302 59.7396 153.302 60 153.281 60.25C153.156 61.3125 152.948 62.375 152.656 63.4375C152.615 63.5625 152.573 63.6875 152.531 63.8125C152.49 63.9375 152.448 64.0729 152.406 64.2188C152.323 64.4896 152.219 64.7292 152.094 64.9375C151.781 65.3333 151.563 65.6562 151.438 65.9062C151.25 66.2396 151.115 66.4583 151.031 66.5625C150.781 66.8125 150.542 67.0417 150.313 67.25C150.104 67.4583 149.906 67.6458 149.719 67.8125C149.531 67.9167 149.344 68.0312 149.156 68.1562C148.969 68.2604 148.781 68.375 148.594 68.5C148.24 68.7292 147.823 68.8958 147.344 69L146.781 69.3438C146.594 69.4688 146.385 69.5417 146.156 69.5625C145.781 69.8333 145.365 70.0521 144.906 70.2188C144.698 70.3021 144.479 70.3854 144.25 70.4688C144.042 70.5521 143.823 70.6458 143.594 70.75C143.281 70.875 143.01 71.0208 142.781 71.1875C142.552 71.3542 142.26 71.5208 141.906 71.6875C141.719 71.75 141.417 71.8229 141 71.9062C140.604 71.9688 140.323 72.0417 140.156 72.125C140.365 72.5417 140.448 73.0625 140.406 73.6875C140.385 74.2708 140.49 74.7917 140.719 75.25C141.26 75.375 141.854 75.4688 142.5 75.5312C143.146 75.5938 143.76 75.5833 144.344 75.5C144.448 75.4792 144.552 75.4479 144.656 75.4062C144.781 75.3646 144.906 75.3229 145.031 75.2812C145.156 75.2396 145.281 75.1979 145.406 75.1562C145.531 75.1146 145.656 75.0833 145.781 75.0625C146.24 74.9792 146.688 74.875 147.125 74.75C147.563 74.625 147.948 74.4583 148.281 74.25C149.49 73.8333 150.656 73.2708 151.781 72.5625C152.906 71.8542 153.885 71.0833 154.719 70.25C155.219 69.9167 155.771 69.4583 156.375 68.875C156.979 68.2917 157.448 67.75 157.781 67.25C158.406 66.5833 158.958 66.0625 159.438 65.6875C159.917 65.3125 160.365 65.1458 160.781 65.1875C161.115 65.1875 161.438 65.3854 161.75 65.7812C162.063 66.1771 162.031 66.6042 161.656 67.0625C161.26 67.3125 160.823 67.6875 160.344 68.1875C159.885 68.6875 159.406 69.0417 158.906 69.25C158.552 69.4792 158.083 69.9375 157.5 70.625C156.938 71.2708 156.469 71.7708 156.094 72.125C156.01 72.2083 155.917 72.3021 155.813 72.4062C155.708 72.5104 155.583 72.6146 155.438 72.7188C155.167 72.9271 154.948 73.1458 154.781 73.375C154.135 73.9167 153.51 74.375 152.906 74.75C152.677 74.6667 152.49 74.7083 152.344 74.875C152.156 75.1042 151.99 75.2708 151.844 75.375C151.781 75.4167 151.719 75.4583 151.656 75.5C151.594 75.5417 151.521 75.5833 151.438 75.625C151.354 75.6667 151.281 75.7083 151.219 75.75C151.156 75.7917 151.094 75.8333 151.031 75.875C150.698 76.1667 150.333 76.4583 149.938 76.75C149.542 77.0417 149.135 77.2917 148.719 77.5C148.302 77.75 147.885 77.9792 147.469 78.1875C147.052 78.4167 146.635 78.6146 146.219 78.7812C145.802 78.9479 145.385 79.1458 144.969 79.375C144.573 79.6042 144.177 79.8542 143.781 80.125L143.094 80.2188C142.99 80.2396 142.885 80.25 142.781 80.25C142.677 80.2708 142.573 80.2917 142.469 80.3125C142.24 80.3958 142.021 80.4375 141.813 80.4375C141.604 80.4375 141.344 80.3958 141.031 80.3125C139.656 79.9375 138.531 79.2708 137.656 78.3125C137.531 78.1875 137.396 78.0729 137.25 77.9688C137.125 77.8438 136.99 77.7292 136.844 77.625C136.51 77.375 136.281 77.1458 136.156 76.9375C135.969 76.625 135.781 76.1354 135.594 75.4688C135.385 74.8021 135.208 74.125 135.063 73.4375C134.917 72.7292 134.844 72.1875 134.844 71.8125C134.969 71.5625 135.104 71.1354 135.25 70.5312C135.396 69.9062 135.521 69.2917 135.625 68.6875C135.729 68.0625 135.781 67.625 135.781 67.375C135.865 67.2917 136.031 67.0208 136.281 66.5625C136.51 66.0833 136.729 65.6042 136.938 65.125C137.167 64.625 137.281 64.3125 137.281 64.1875ZM147.344 60.1875C147.052 60.5625 146.76 60.9167 146.469 61.25C146.177 61.5833 145.844 61.8958 145.469 62.1875C145.219 62.6458 144.927 63.0625 144.594 63.4375C144.26 63.8125 143.927 64.1667 143.594 64.5C143.427 64.8333 143.24 65.0938 143.031 65.2812C142.823 65.4688 142.594 65.6667 142.344 65.875C142.073 66.3333 141.74 66.7708 141.344 67.1875C140.948 67.6042 140.865 68.0833 141.094 68.625C141.552 68.7083 142.01 68.6458 142.469 68.4375C142.927 68.2292 143.323 68.0417 143.656 67.875C143.823 67.7708 143.99 67.6771 144.156 67.5938C144.344 67.5104 144.521 67.4271 144.688 67.3438C144.854 67.2604 145.021 67.1771 145.188 67.0938C145.354 67.0104 145.51 66.9167 145.656 66.8125L147.281 65.1875C147.531 64.9583 147.781 64.6875 148.031 64.375C148.135 64.2292 148.24 64.0833 148.344 63.9375C148.469 63.7708 148.594 63.6042 148.719 63.4375C148.823 62.9792 148.99 62.5521 149.219 62.1562C149.469 61.7396 149.573 61.3125 149.531 60.875C149.51 60.6875 149.438 60.4688 149.313 60.2188C149.188 59.9688 149.115 59.7708 149.094 59.625C148.656 59.625 148.333 59.6979 148.125 59.8438C148.021 59.9271 147.896 60 147.75 60.0625C147.625 60.1042 147.49 60.1458 147.344 60.1875ZM177.156 60.625L177.094 61.125C177.135 61.2708 177.094 61.5208 176.969 61.875C176.76 62.125 176.635 62.3958 176.594 62.6875C176.51 62.8542 176.438 63 176.375 63.125C176.313 63.25 176.26 63.4167 176.219 63.625C176.135 63.875 176.104 64.1667 176.125 64.5C176.146 64.6667 176.146 64.8333 176.125 65C176.125 65.1458 176.115 65.2917 176.094 65.4375C176.01 65.8958 175.948 66.3438 175.906 66.7812C175.865 67.2188 175.823 67.6667 175.781 68.125C175.781 68.5833 175.74 69.1042 175.656 69.6875C175.573 70.2708 175.49 70.7917 175.406 71.25C175.594 71.5833 175.698 71.8958 175.719 72.1875C175.74 72.5 175.885 72.7708 176.156 73C176.99 72.875 177.656 72.6771 178.156 72.4062C178.656 72.1354 179.135 71.75 179.594 71.25C179.927 71.1042 180.188 70.9583 180.375 70.8125C180.542 70.6667 180.781 70.5 181.094 70.3125L181.594 69.8125C182.094 69.5417 182.375 69.375 182.438 69.3125C182.479 69.2708 182.531 69.2292 182.594 69.1875C182.677 69.1458 182.76 69.1042 182.844 69.0625C183.552 68.6042 184.094 68.125 184.469 67.625C184.781 67.375 185.042 67.1146 185.25 66.8438C185.417 66.6146 185.74 66.3958 186.219 66.1875C186.49 65.8542 186.792 65.5729 187.125 65.3438C187.458 65.1146 187.76 64.8333 188.031 64.5C188.26 64.5 188.427 64.5417 188.531 64.625C188.594 64.6667 188.656 64.7083 188.719 64.75C188.802 64.7917 188.885 64.8333 188.969 64.875C189.094 65.2083 189.115 65.5521 189.031 65.9062C188.948 66.2604 188.802 66.5833 188.594 66.875C188.385 67.1458 188.281 67.3125 188.281 67.375C188.281 67.4167 188.26 67.4583 188.219 67.5C188.094 67.6458 187.938 67.8021 187.75 67.9688C187.563 68.1146 187.406 68.2708 187.281 68.4375C187.073 68.8125 186.906 69 186.781 69C186.656 69 186.552 69.0417 186.469 69.125C186.094 69.3542 185.833 69.5208 185.688 69.625C185.521 69.7708 185.281 69.9375 184.969 70.125C184.531 70.3542 184.26 70.5208 184.156 70.625C184.052 70.7292 183.969 70.7917 183.906 70.8125C183.406 71.375 182.917 71.8438 182.438 72.2188C182 72.5521 181.531 73.0208 181.031 73.625C180.865 73.75 180.698 73.875 180.531 74C180.365 74.125 180.219 74.2917 180.094 74.5C179.719 74.75 179.417 75 179.188 75.25C178.958 75.5 178.698 75.7917 178.406 76.125C178.156 76.25 177.885 76.4271 177.594 76.6562C177.24 76.9271 176.927 77.125 176.656 77.25C176.552 77.3125 176.375 77.4062 176.125 77.5312C175.917 77.6354 175.719 77.6875 175.531 77.6875C175.052 77.7708 174.594 77.7292 174.156 77.5625C173.76 77.4167 173.365 77.2917 172.969 77.1875C172.802 76.9375 172.594 76.7292 172.344 76.5625C171.969 76.1042 171.698 75.5625 171.531 74.9375C171.365 74.3125 171.198 73.6458 171.031 72.9375C170.656 73.1875 170.344 73.4583 170.094 73.75C169.844 74.0625 169.469 74.3333 168.969 74.5625C168.552 74.9583 168.125 75.3542 167.688 75.75C167.25 76.125 166.792 76.4896 166.313 76.8438C165.854 77.1979 165.385 77.5729 164.906 77.9688C164.427 78.3438 163.948 78.7292 163.469 79.125C163.135 79.4583 162.906 79.5833 162.781 79.5C162.406 79.9583 161.74 80.1042 160.781 79.9375C160.448 79.7708 160.073 79.625 159.656 79.5C159.365 79.4167 159.031 79.2917 158.656 79.125C157.948 79 157.354 78.6875 156.875 78.1875C156.396 77.6875 155.99 77.1042 155.656 76.4375C155.531 76.0833 155.438 75.7708 155.375 75.5C155.354 75.3542 155.323 75.1979 155.281 75.0312C155.24 74.8646 155.198 74.6875 155.156 74.5C155.135 74.1458 155.073 73.8646 154.969 73.6562C154.885 73.4271 154.885 73.2083 154.969 73C154.885 72.8958 154.865 72.7604 154.906 72.5938C154.948 72.3854 154.969 72.2292 154.969 72.125C154.927 71.5417 154.979 70.9167 155.125 70.25C155.271 69.5833 155.469 68.9792 155.719 68.4375C155.844 68.2292 156.01 68.0208 156.219 67.8125C156.323 67.6875 156.385 67.5625 156.406 67.4375C156.427 67.3333 156.49 67.2292 156.594 67.125C156.698 67 156.823 66.875 156.969 66.75C157.177 66.5833 157.323 66.4583 157.406 66.375C157.51 66.2292 157.615 66.0938 157.719 65.9688C157.844 65.8229 157.979 65.6979 158.125 65.5938C158.271 65.4896 158.406 65.375 158.531 65.25C158.656 65.125 158.781 65 158.906 64.875C159.052 64.7292 159.167 64.5833 159.25 64.4375C159.354 64.2708 159.51 64.1458 159.719 64.0625C159.885 63.7708 160.073 63.5312 160.281 63.3438C160.49 63.1562 160.719 62.9583 160.969 62.75C161.677 61.8958 162.552 61.1667 163.594 60.5625C164.656 59.9583 165.594 59.2917 166.406 58.5625C166.698 58.4375 166.948 58.2917 167.156 58.125C167.365 57.9583 167.573 57.7917 167.781 57.625C168.302 57.1667 168.865 57.0208 169.469 57.1875L171.094 57.625C171.51 58 171.917 58.375 172.313 58.75C172.708 59.125 173.052 59.5417 173.344 60C173.49 59.9792 173.646 59.9688 173.813 59.9688C173.979 59.9479 174.156 59.9479 174.344 59.9688C174.719 60.0104 175.115 59.9792 175.531 59.875C175.656 59.875 175.781 59.8438 175.906 59.7812C176.031 59.7188 176.135 59.6875 176.219 59.6875C176.844 59.8958 177.156 60.2083 177.156 60.625ZM168.906 61.5625C167.781 62.1042 166.76 62.7396 165.844 63.4688C164.927 64.1979 164.052 64.9792 163.219 65.8125C163.115 65.9167 163 66.0208 162.875 66.125C162.771 66.2083 162.667 66.3021 162.563 66.4062C162.458 66.4896 162.354 66.5833 162.25 66.6875C162.146 66.7917 162.052 66.8958 161.969 67C161.802 67.2083 161.646 67.4583 161.5 67.75C161.354 68.0417 161.219 68.3125 161.094 68.5625C161.052 68.6458 161.01 68.7292 160.969 68.8125C160.927 68.875 160.885 68.9271 160.844 68.9688C160.802 69.0104 160.76 69.0625 160.719 69.125C160.677 69.1875 160.635 69.25 160.594 69.3125C160.51 69.5208 160.479 69.7292 160.5 69.9375C160.521 70.0833 160.531 70.3125 160.531 70.625V71.25C160.531 71.375 160.552 71.5833 160.594 71.875C160.719 72.3333 160.781 72.7917 160.781 73.25C160.781 73.5833 160.813 73.9896 160.875 74.4688C160.938 74.9479 161.094 75.2708 161.344 75.4375C161.615 75.6042 161.875 75.6458 162.125 75.5625C162.417 75.4583 162.656 75.3958 162.844 75.375C164.302 74.25 165.677 73.0729 166.969 71.8438C168.26 70.6146 169.406 69.2292 170.406 67.6875C170.323 66.6667 170.313 65.6146 170.375 64.5312C170.438 63.5104 170.344 62.5625 170.094 61.6875C169.927 61.5833 169.729 61.5521 169.5 61.5938C169.333 61.6146 169.135 61.6042 168.906 61.5625ZM204.094 63.25C204.51 63.3542 204.813 63.5 205 63.6875C205.146 63.8333 205.219 64 205.219 64.1875C204.885 64.6458 204.688 64.9479 204.625 65.0938C204.563 65.2396 204.427 65.3542 204.219 65.4375C203.948 65.8542 203.656 66.25 203.344 66.625C203.052 66.9792 202.729 67.3229 202.375 67.6562C201.729 68.2812 201.094 69 200.469 69.8125C200.198 70.0833 200.01 70.2917 199.906 70.4375C199.802 70.5833 199.615 70.7917 199.344 71.0625C198.844 71.4167 198.427 71.7812 198.094 72.1562C197.906 72.3646 197.708 72.5625 197.5 72.75C197.313 72.9167 197.115 73.0833 196.906 73.25C196.802 73.3333 196.698 73.4167 196.594 73.5C196.51 73.5625 196.417 73.6354 196.313 73.7188C196.229 73.8021 196.135 73.8854 196.031 73.9688C195.927 74.0521 195.823 74.1458 195.719 74.25C195.552 74.4167 195.365 74.5833 195.156 74.75C195.073 74.8125 194.979 74.8854 194.875 74.9688C194.792 75.0312 194.698 75.1042 194.594 75.1875C194.344 75.4792 194.094 75.7708 193.844 76.0625C193.594 76.3542 193.344 76.6667 193.094 77C192.656 77.2083 192.24 77.4583 191.844 77.75C191.469 78.0208 191.031 78.2708 190.531 78.5C190.323 78.625 190.125 78.8229 189.938 79.0938C189.771 79.3438 189.531 79.5208 189.219 79.625C188.885 79.75 188.531 79.7812 188.156 79.7188C187.781 79.6562 187.469 79.5625 187.219 79.4375C186.948 79.25 186.781 79.1458 186.719 79.125C186.552 79.0833 186.448 79.0625 186.406 79.0625C186.01 78.5 185.74 77.9062 185.594 77.2812C185.51 76.9479 185.417 76.6146 185.313 76.2812C185.229 75.9479 185.135 75.6042 185.031 75.25C184.948 75.0417 184.885 74.8229 184.844 74.5938C184.802 74.3646 184.76 74.1042 184.719 73.8125L184.625 73.3125C184.604 73.2292 184.583 73.1458 184.563 73.0625C184.542 72.9583 184.51 72.8542 184.469 72.75C184.385 72.5417 184.302 72.3229 184.219 72.0938C184.135 71.8646 184.073 71.625 184.031 71.375C183.948 70.875 183.917 70.3854 183.938 69.9062C183.958 69.4271 184.01 68.9583 184.094 68.5C184.344 67.125 184.708 65.8125 185.188 64.5625C185.667 63.3125 186.156 62.125 186.656 61C186.76 60.4792 186.875 60.0833 187 59.8125C187.125 59.5417 187.26 59.1667 187.406 58.6875C187.594 58.4583 187.74 58.125 187.844 57.6875C187.885 57.5 187.927 57.3125 187.969 57.125C188.031 56.9375 188.094 56.75 188.156 56.5625C188.219 56.3958 188.292 56.2292 188.375 56.0625C188.458 55.875 188.542 55.6771 188.625 55.4688C188.792 55.0938 188.927 54.7083 189.031 54.3125C189.177 53.8333 189.292 53.4167 189.375 53.0625C189.417 52.8542 189.469 52.6562 189.531 52.4688C189.615 52.2812 189.698 52.1042 189.781 51.9375C189.948 51.5 190.104 51.0729 190.25 50.6562C190.417 50.2396 190.573 49.8333 190.719 49.4375C190.865 49.0417 191.01 48.6458 191.156 48.25C191.323 47.8542 191.49 47.4583 191.656 47.0625C191.698 46.9375 191.74 46.8125 191.781 46.6875C191.823 46.5625 191.865 46.4375 191.906 46.3125C191.99 46.0833 192.115 45.8542 192.281 45.625C192.385 45.3333 192.49 45.1146 192.594 44.9688C192.76 44.7188 192.885 44.5208 192.969 44.375C192.969 44.1458 193.042 43.9896 193.188 43.9062C193.292 43.8438 193.406 43.7083 193.531 43.5C193.76 43.1458 193.917 42.8125 194 42.5C194.083 42.1875 194.24 41.8542 194.469 41.5L195.219 40.5625C195.26 40.4792 195.302 40.3958 195.344 40.3125C195.385 40.2292 195.427 40.1458 195.469 40.0625C195.573 39.8958 195.698 39.75 195.844 39.625C196.323 38.875 196.823 38.125 197.344 37.375L199.031 35C199.406 34.4167 199.823 33.8646 200.281 33.3438C200.74 32.8229 201.219 32.3125 201.719 31.8125C201.885 31.6042 202.083 31.375 202.313 31.125C202.542 30.875 202.781 30.7292 203.031 30.6875C203.427 30.6458 203.844 30.6875 204.281 30.8125C204.406 31.0208 204.521 31.2396 204.625 31.4688C204.729 31.6979 204.823 31.9583 204.906 32.25C204.99 33.5417 204.948 34.7917 204.781 36C204.615 37.2083 204.427 38.3958 204.219 39.5625C204.177 39.8333 204.167 40.0312 204.188 40.1562C204.208 40.2812 204.198 40.4792 204.156 40.75C204.073 41 203.969 41.3229 203.844 41.7188C203.719 42.1146 203.615 42.4792 203.531 42.8125C203.531 43.375 203.406 43.8958 203.156 44.375C202.906 44.8333 202.74 45.2917 202.656 45.75C202.531 45.8333 202.458 45.9688 202.438 46.1562C202.417 46.3438 202.344 46.4792 202.219 46.5625C202.115 47.0417 201.979 47.4583 201.813 47.8125C201.625 48.1875 201.469 48.5625 201.344 48.9375C201.031 49.375 200.719 49.8021 200.406 50.2188C200.094 50.6354 199.771 51.0521 199.438 51.4688C199.104 51.8646 198.781 52.2812 198.469 52.7188C198.177 53.1354 197.885 53.5625 197.594 54C196.865 55.1042 196.104 56.1458 195.313 57.125C194.521 58.1042 193.76 59.1458 193.031 60.25C192.448 60.7708 191.99 61.2917 191.656 61.8125C191.302 62.375 190.823 62.8958 190.219 63.375C190.115 63.7917 190.01 64.2292 189.906 64.6875C189.823 65.1458 189.729 65.6146 189.625 66.0938C189.542 66.5729 189.448 67.0625 189.344 67.5625C189.24 68.0625 189.135 68.5625 189.031 69.0625C189.01 69.3333 188.948 69.6146 188.844 69.9062C188.802 70.0521 188.76 70.1979 188.719 70.3438C188.677 70.4688 188.635 70.6042 188.594 70.75C188.51 71.0417 188.49 71.3958 188.531 71.8125C188.552 72.1875 188.49 72.5417 188.344 72.875C188.406 73.0417 188.458 73.2812 188.5 73.5938C188.521 73.8646 188.594 74.1042 188.719 74.3125C188.948 74.6875 189.198 74.875 189.469 74.875C189.781 74.7083 189.948 74.6354 189.969 74.6562C189.99 74.6771 190.052 74.6667 190.156 74.625C190.365 74.5 190.573 74.3333 190.781 74.125C190.99 73.9167 191.177 73.7292 191.344 73.5625C191.573 73.4583 191.729 73.3646 191.813 73.2812C191.875 73.2188 191.99 73.125 192.156 73C192.281 72.9167 192.396 72.8542 192.5 72.8125C192.604 72.7708 192.698 72.7083 192.781 72.625C193.385 72 193.948 71.5312 194.469 71.2188C195.01 70.9062 195.448 70.5208 195.781 70.0625L196.906 69.375C197.135 69.25 197.354 69.0729 197.563 68.8438C197.75 68.6146 197.99 68.4375 198.281 68.3125C198.406 68.1458 198.49 68.0417 198.531 68C198.573 67.9583 198.656 67.8542 198.781 67.6875C199.031 67.5208 199.281 67.3542 199.531 67.1875C199.781 67.0208 200.021 66.8542 200.25 66.6875C200.479 66.5208 200.719 66.3542 200.969 66.1875C201.24 66.0208 201.51 65.8542 201.781 65.6875C201.865 65.4792 202 65.3125 202.188 65.1875C202.375 65.0625 202.531 64.9375 202.656 64.8125C202.781 64.6875 202.885 64.5521 202.969 64.4062C203.073 64.2396 203.219 64.1458 203.406 64.125C203.427 63.9375 203.521 63.7917 203.688 63.6875C203.854 63.5833 203.99 63.4375 204.094 63.25ZM200.719 39.9375H200.656C200.281 40.0208 200.021 40.2083 199.875 40.5C199.729 40.7917 199.594 41.125 199.469 41.5C199.385 41.6667 199.302 41.8125 199.219 41.9375C199.156 42.0625 199.104 42.1667 199.063 42.25C198.979 42.3958 198.948 42.6458 198.969 43C198.323 44.0625 197.708 45.1562 197.125 46.2812C196.542 47.3854 195.979 48.5208 195.438 49.6875C194.917 50.8542 194.385 52.0312 193.844 53.2188C193.302 54.3854 192.76 55.5625 192.219 56.75C193.073 55.8958 193.854 54.8958 194.563 53.75C194.917 53.1667 195.281 52.625 195.656 52.125C196.052 51.625 196.448 51.1667 196.844 50.75C197.135 50.0417 197.438 49.3542 197.75 48.6875C198.083 48.0208 198.427 47.3854 198.781 46.7812C199.469 45.6146 200.01 44.2292 200.406 42.625C200.24 42.1042 200.26 41.6562 200.469 41.2812C200.677 40.9062 200.76 40.4583 200.719 39.9375Z" fill="black"/>
<path d="M129.87 148.36L126.862 158.088H136.91L133.902 148.36C133.731 147.976 133.539 147.699 133.326 147.528C133.155 147.357 132.942 147.272 132.686 147.272H131.086C130.83 147.272 130.595 147.357 130.382 147.528C130.211 147.699 130.041 147.976 129.87 148.36ZM126.222 178.696C126.222 179.507 126.03 180.104 125.646 180.488C125.305 180.829 124.729 181 123.918 181H114.51C113.699 181 113.102 180.829 112.718 180.488C112.377 180.104 112.206 179.507 112.206 178.696V161.8C112.206 160.52 112.398 159.048 112.782 157.384C113.209 155.72 113.849 153.779 114.702 151.56L120.27 137.032C120.526 136.307 120.91 135.773 121.422 135.432C121.977 135.091 122.681 134.92 123.534 134.92H140.75C141.561 134.92 142.222 135.091 142.734 135.432C143.289 135.773 143.694 136.307 143.95 137.032L149.518 151.56C150.371 153.779 150.99 155.72 151.374 157.384C151.801 159.048 152.014 160.52 152.014 161.8V178.696C152.014 179.507 151.822 180.104 151.438 180.488C151.097 180.829 150.521 181 149.71 181H140.046C139.193 181 138.553 180.829 138.126 180.488C137.742 180.104 137.55 179.507 137.55 178.696V169.736H126.222V178.696ZM161.196 181C160.385 181 159.788 180.829 159.404 180.488C159.063 180.104 158.892 179.507 158.892 178.696V171.08C158.892 170.269 159.063 169.693 159.404 169.352C159.788 168.968 160.385 168.776 161.196 168.776H167.532V147.272H161.196C160.385 147.272 159.788 147.101 159.404 146.76C159.063 146.376 158.892 145.779 158.892 144.968V137.224C158.892 136.413 159.063 135.837 159.404 135.496C159.788 135.112 160.385 134.92 161.196 134.92H188.46C189.271 134.92 189.847 135.112 190.188 135.496C190.572 135.837 190.764 136.413 190.764 137.224V144.968C190.764 145.779 190.572 146.376 190.188 146.76C189.847 147.101 189.271 147.272 188.46 147.272H182.252V168.776H188.46C189.271 168.776 189.847 168.968 190.188 169.352C190.572 169.693 190.764 170.269 190.764 171.08V178.696C190.764 179.507 190.572 180.104 190.188 180.488C189.847 180.829 189.271 181 188.46 181H161.196Z" fill="black"/>
<path d="M72.7154 210.311C71.6394 210.311 70.6607 210.032 69.7793 209.475C68.8978 208.918 68.1913 208.179 67.6598 207.258C67.1413 206.325 66.882 205.294 66.882 204.167C66.882 203.039 67.1413 202.008 67.6598 201.075C68.1913 200.142 68.8978 199.403 69.7793 198.858C70.6607 198.301 71.6394 198.022 72.7154 198.022C73.4672 198.022 74.1543 198.158 74.7765 198.431C75.3987 198.69 75.9302 199.053 76.3709 199.519V198.333H79.2876V210H76.3709V208.814C75.9302 209.281 75.3987 209.65 74.7765 209.922C74.1543 210.181 73.4672 210.311 72.7154 210.311ZM73.1237 207.336C73.6941 207.336 74.2126 207.194 74.6793 206.908C75.1459 206.623 75.5154 206.241 75.7876 205.761C76.0728 205.281 76.2154 204.75 76.2154 204.167C76.2154 203.583 76.0728 203.052 75.7876 202.572C75.5154 202.093 75.1459 201.71 74.6793 201.425C74.2126 201.14 73.6941 200.997 73.1237 200.997C72.5533 200.997 72.0348 201.14 71.5681 201.425C71.1015 201.71 70.7255 202.093 70.4404 202.572C70.1681 203.052 70.032 203.583 70.032 204.167C70.032 204.75 70.1681 205.281 70.4404 205.761C70.7255 206.241 71.1015 206.623 71.5681 206.908C72.0348 207.194 72.5533 207.336 73.1237 207.336ZM83.2482 210V198.333H86.2815V199.617C86.6963 199.072 87.2084 198.657 87.8176 198.372C88.4269 198.087 89.0815 197.944 89.7815 197.944C90.6111 197.944 91.3824 198.145 92.0954 198.547C92.8213 198.936 93.4047 199.513 93.8454 200.278C94.2991 201.03 94.526 201.944 94.526 203.019V210H91.1426V203.467C91.1426 202.819 90.9482 202.242 90.5593 201.736C90.1704 201.231 89.613 200.978 88.8871 200.978C88.3037 200.978 87.7787 201.179 87.3121 201.581C86.8584 201.969 86.6315 202.585 86.6315 203.428V210H83.2482ZM111.537 210.389C110.228 210.389 109.074 210.117 108.076 209.572C107.078 209.028 106.3 208.282 105.742 207.336C105.185 206.377 104.906 205.281 104.906 204.05C104.906 202.87 105.178 201.827 105.723 200.919C106.267 199.999 107 199.273 107.92 198.742C108.853 198.21 109.884 197.944 111.012 197.944C112.166 197.944 113.196 198.21 114.103 198.742C115.011 199.26 115.724 199.973 116.242 200.881C116.774 201.788 117.04 202.819 117.04 203.972V205.158H109.923C109.599 205.158 109.288 205.139 108.99 205.1C108.691 205.061 108.393 205.016 108.095 204.964C108.251 205.742 108.633 206.377 109.242 206.869C109.865 207.349 110.655 207.589 111.615 207.589C112.353 207.589 113.015 207.44 113.598 207.142C114.194 206.844 114.68 206.474 115.056 206.033L115.795 209.067C115.212 209.507 114.551 209.838 113.812 210.058C113.086 210.279 112.328 210.389 111.537 210.389ZM108.017 202.922C108.666 202.78 109.301 202.708 109.923 202.708H111.984C112.347 202.708 112.691 202.721 113.015 202.747C113.339 202.773 113.643 202.819 113.928 202.883C113.734 202.183 113.378 201.632 112.859 201.231C112.353 200.829 111.725 200.628 110.973 200.628C110.26 200.628 109.638 200.835 109.106 201.25C108.588 201.652 108.225 202.209 108.017 202.922ZM118.5 210L122.525 203.914L118.83 198.333H122.564L123.691 200.122C123.834 200.343 123.97 200.576 124.1 200.822C124.242 201.069 124.378 201.321 124.508 201.581C124.651 201.321 124.787 201.075 124.916 200.842C125.059 200.595 125.202 200.356 125.344 200.122L126.453 198.333H130.147L126.433 203.914L130.478 210H126.705L125.13 207.453C125.014 207.271 124.897 207.083 124.78 206.889C124.664 206.681 124.553 206.481 124.45 206.286C124.346 206.481 124.236 206.681 124.119 206.889C124.003 207.083 123.886 207.271 123.769 207.453L122.194 210H118.5ZM133.391 215.833V198.333H136.308V199.481C136.762 199.027 137.293 198.67 137.902 198.411C138.524 198.152 139.205 198.022 139.944 198.022C141.033 198.022 142.018 198.301 142.899 198.858C143.781 199.403 144.481 200.142 144.999 201.075C145.531 202.008 145.797 203.039 145.797 204.167C145.797 205.294 145.531 206.325 144.999 207.258C144.481 208.179 143.781 208.918 142.899 209.475C142.018 210.032 141.033 210.311 139.944 210.311C139.322 210.311 138.745 210.214 138.213 210.019C137.682 209.838 137.202 209.585 136.774 209.261V215.833H133.391ZM139.555 207.336C140.125 207.336 140.644 207.194 141.111 206.908C141.577 206.623 141.947 206.241 142.219 205.761C142.504 205.281 142.647 204.75 142.647 204.167C142.647 203.583 142.504 203.052 142.219 202.572C141.947 202.093 141.577 201.71 141.111 201.425C140.644 201.14 140.125 200.997 139.555 200.997C138.985 200.997 138.466 201.14 137.999 201.425C137.533 201.71 137.157 202.093 136.872 202.572C136.599 203.052 136.463 203.583 136.463 204.167C136.463 204.75 136.599 205.281 136.872 205.761C137.157 206.241 137.533 206.623 137.999 206.908C138.466 207.194 138.985 207.336 139.555 207.336ZM155.221 210.389C153.912 210.389 152.758 210.117 151.76 209.572C150.762 209.028 149.984 208.282 149.427 207.336C148.869 206.377 148.591 205.281 148.591 204.05C148.591 202.87 148.863 201.827 149.407 200.919C149.952 199.999 150.684 199.273 151.605 198.742C152.538 198.21 153.568 197.944 154.696 197.944C155.85 197.944 156.88 198.21 157.788 198.742C158.695 199.26 159.408 199.973 159.927 200.881C160.458 201.788 160.724 202.819 160.724 203.972V205.158H153.607C153.283 205.158 152.972 205.139 152.674 205.1C152.376 205.061 152.078 205.016 151.78 204.964C151.935 205.742 152.317 206.377 152.927 206.869C153.549 207.349 154.34 207.589 155.299 207.589C156.038 207.589 156.699 207.44 157.282 207.142C157.879 206.844 158.365 206.474 158.741 206.033L159.48 209.067C158.896 209.507 158.235 209.838 157.496 210.058C156.77 210.279 156.012 210.389 155.221 210.389ZM151.702 202.922C152.35 202.78 152.985 202.708 153.607 202.708H155.668C156.031 202.708 156.375 202.721 156.699 202.747C157.023 202.773 157.328 202.819 157.613 202.883C157.418 202.183 157.062 201.632 156.543 201.231C156.038 200.829 155.409 200.628 154.657 200.628C153.944 200.628 153.322 200.835 152.791 201.25C152.272 201.652 151.909 202.209 151.702 202.922ZM164 210V198.333H167.033V200.336C167.435 199.662 167.94 199.144 168.55 198.781C169.172 198.405 169.898 198.217 170.728 198.217L171.466 201.211C171.22 201.133 170.941 201.094 170.63 201.094C169.658 201.094 168.874 201.412 168.278 202.047C167.681 202.669 167.383 203.564 167.383 204.731V210H164ZM174.38 210V198.333H177.763V210H174.38ZM176.072 196.642C175.566 196.642 175.138 196.467 174.788 196.117C174.438 195.767 174.263 195.339 174.263 194.833C174.263 194.315 174.438 193.887 174.788 193.55C175.138 193.2 175.566 193.025 176.072 193.025C176.59 193.025 177.018 193.2 177.355 193.55C177.705 193.887 177.88 194.315 177.88 194.833C177.88 195.339 177.705 195.767 177.355 196.117C177.018 196.467 176.59 196.642 176.072 196.642ZM187.804 210.389C186.495 210.389 185.341 210.117 184.343 209.572C183.345 209.028 182.567 208.282 182.01 207.336C181.452 206.377 181.173 205.281 181.173 204.05C181.173 202.87 181.446 201.827 181.99 200.919C182.535 199.999 183.267 199.273 184.187 198.742C185.121 198.21 186.151 197.944 187.279 197.944C188.433 197.944 189.463 198.21 190.371 198.742C191.278 199.26 191.991 199.973 192.51 200.881C193.041 201.788 193.307 202.819 193.307 203.972V205.158H186.19C185.866 205.158 185.555 205.139 185.257 205.1C184.959 205.061 184.66 205.016 184.362 204.964C184.518 205.742 184.9 206.377 185.51 206.869C186.132 207.349 186.923 207.589 187.882 207.589C188.621 207.589 189.282 207.44 189.865 207.142C190.461 206.844 190.948 206.474 191.323 206.033L192.062 209.067C191.479 209.507 190.818 209.838 190.079 210.058C189.353 210.279 188.595 210.389 187.804 210.389ZM184.285 202.922C184.933 202.78 185.568 202.708 186.19 202.708H188.251C188.614 202.708 188.958 202.721 189.282 202.747C189.606 202.773 189.91 202.819 190.196 202.883C190.001 202.183 189.645 201.632 189.126 201.231C188.621 200.829 187.992 200.628 187.24 200.628C186.527 200.628 185.905 200.835 185.373 201.25C184.855 201.652 184.492 202.209 184.285 202.922ZM196.583 210V198.333H199.616V199.617C200.031 199.072 200.543 198.657 201.152 198.372C201.761 198.087 202.416 197.944 203.116 197.944C203.946 197.944 204.717 198.145 205.43 198.547C206.156 198.936 206.739 199.513 207.18 200.278C207.633 201.03 207.86 201.944 207.86 203.019V210H204.477V203.467C204.477 202.819 204.283 202.242 203.894 201.736C203.505 201.231 202.947 200.978 202.221 200.978C201.638 200.978 201.113 201.179 200.646 201.581C200.193 201.969 199.966 202.585 199.966 203.428V210H196.583ZM217.316 210.389C216.163 210.389 215.106 210.11 214.147 209.553C213.188 208.995 212.423 208.244 211.853 207.297C211.295 206.351 211.016 205.307 211.016 204.167C211.016 203.013 211.295 201.969 211.853 201.036C212.423 200.09 213.188 199.338 214.147 198.781C215.106 198.223 216.163 197.944 217.316 197.944C218.12 197.944 218.878 198.081 219.591 198.353C220.317 198.612 220.959 199.001 221.516 199.519L220.641 202.961C220.317 202.43 219.883 201.969 219.339 201.581C218.807 201.179 218.178 200.978 217.453 200.978C216.843 200.978 216.299 201.12 215.819 201.406C215.34 201.691 214.964 202.073 214.691 202.553C214.419 203.032 214.283 203.57 214.283 204.167C214.283 204.75 214.419 205.288 214.691 205.781C214.964 206.26 215.34 206.643 215.819 206.928C216.299 207.213 216.843 207.356 217.453 207.356C218.178 207.356 218.807 207.161 219.339 206.772C219.883 206.37 220.317 205.904 220.641 205.372L221.516 208.814C220.959 209.332 220.317 209.728 219.591 210C218.878 210.259 218.12 210.389 217.316 210.389ZM230.723 210.389C229.413 210.389 228.26 210.117 227.262 209.572C226.263 209.028 225.486 208.282 224.928 207.336C224.371 206.377 224.092 205.281 224.092 204.05C224.092 202.87 224.364 201.827 224.909 200.919C225.453 199.999 226.186 199.273 227.106 198.742C228.039 198.21 229.07 197.944 230.198 197.944C231.351 197.944 232.382 198.21 233.289 198.742C234.197 199.26 234.91 199.973 235.428 200.881C235.96 201.788 236.226 202.819 236.226 203.972V205.158H229.109C228.785 205.158 228.474 205.139 228.176 205.1C227.877 205.061 227.579 205.016 227.281 204.964C227.437 205.742 227.819 206.377 228.428 206.869C229.051 207.349 229.841 207.589 230.801 207.589C231.539 207.589 232.201 207.44 232.784 207.142C233.38 206.844 233.866 206.474 234.242 206.033L234.981 209.067C234.398 209.507 233.737 209.838 232.998 210.058C232.272 210.279 231.513 210.389 230.723 210.389ZM227.203 202.922C227.851 202.78 228.487 202.708 229.109 202.708H231.17C231.533 202.708 231.876 202.721 232.201 202.747C232.525 202.773 232.829 202.819 233.114 202.883C232.92 202.183 232.563 201.632 232.045 201.231C231.539 200.829 230.911 200.628 230.159 200.628C229.446 200.628 228.824 200.835 228.292 201.25C227.774 201.652 227.411 202.209 227.203 202.922Z" fill="#08609F"/>
</svg>
