<svg width="100" height="82" viewBox="0 0 100 82" fill="none" xmlns="http://www.w3.org/2000/svg">
<path d="M45.7613 56.9613C45.7613 58.6106 45.5104 60.1165 45.0084 61.479C44.5423 62.8056 43.6818 63.9529 42.4269 64.921C41.2078 65.8532 39.5048 66.5882 37.3176 67.126C35.1664 67.6639 32.4235 67.9328 29.0891 67.9328C25.7546 67.9328 22.9938 67.6639 20.8067 67.126C18.6196 66.5882 16.8986 65.8532 15.6437 64.921C14.4246 63.9529 13.5641 62.8056 13.0622 61.479C12.5961 60.1165 12.363 58.6106 12.363 56.9613V38.6218C12.363 36.9725 12.5961 35.4846 13.0622 34.158C13.5641 32.7955 14.4246 31.6302 15.6437 30.6622C16.8986 29.6941 18.6196 28.9412 20.8067 28.4034C22.9938 27.8655 25.7546 27.5966 29.0891 27.5966C32.4235 27.5966 35.1664 27.8655 37.3176 28.4034C39.5048 28.9412 41.2078 29.6941 42.4269 30.6622C43.6818 31.6302 44.5423 32.7955 45.0084 34.158C45.5104 35.4846 45.7613 36.9725 45.7613 38.6218V56.9613ZM24.5714 55.0252C24.5714 55.7423 24.8403 56.3518 25.3781 56.8538C25.916 57.3199 27.1529 57.5529 29.0891 57.5529C31.0252 57.5529 32.2622 57.3199 32.8 56.8538C33.3378 56.3518 33.6067 55.7423 33.6067 55.0252V40.558C33.6067 39.8767 33.3378 39.3031 32.8 38.837C32.2622 38.335 31.0252 38.084 29.0891 38.084C27.1529 38.084 25.916 38.335 25.3781 38.837C24.8403 39.3031 24.5714 39.8767 24.5714 40.558V55.0252ZM64.7626 38.084V44.9681H68.7962C69.7284 44.9681 70.3559 44.735 70.6786 44.2689C71.0013 43.7669 71.1626 43.1574 71.1626 42.4403V40.6118C71.1626 39.8947 71.0013 39.3031 70.6786 38.837C70.3559 38.335 69.7284 38.084 68.7962 38.084H64.7626ZM62.8265 67.126H54.5441C53.8629 67.126 53.3609 66.9826 53.0382 66.6958C52.7514 66.3731 52.608 65.8711 52.608 65.1899V30.3395C52.608 29.6583 52.7514 29.1742 53.0382 28.8874C53.3609 28.5647 53.8629 28.4034 54.5441 28.4034H72.4534C76.469 28.4034 79.2298 29.2459 80.7357 30.9311C82.2775 32.5804 83.0483 34.7316 83.0483 37.3849V39.8588C83.0483 41.3647 82.8153 42.6555 82.3492 43.7311C81.9189 44.7709 81.148 45.5238 80.0366 45.9899C81.9727 46.205 83.5324 46.9938 84.7155 48.3563C85.9346 49.7188 86.5441 51.5294 86.5441 53.7882V65.1899C86.5441 65.8711 86.3828 66.3731 86.0601 66.6958C85.7732 66.9826 85.2892 67.126 84.608 67.126H76.2718C75.5906 67.126 75.0887 66.9826 74.766 66.6958C74.4791 66.3731 74.3357 65.8711 74.3357 65.1899V56.9613C74.3357 56.1725 74.1744 55.5989 73.8517 55.2403C73.5648 54.8459 73.045 54.6487 72.292 54.6487H64.7626V65.1899C64.7626 65.8711 64.6013 66.3731 64.2786 66.6958C63.9917 66.9826 63.5077 67.126 62.8265 67.126Z" fill="#A0D8F6"/>
<path d="M36.8829 25.6471C36.9879 25.8571 37.1061 26.0541 37.2374 26.2379C37.3687 26.4217 37.4606 26.645 37.5131 26.9076C37.5832 27.0039 37.6182 27.1001 37.6182 27.1964C37.6182 27.3102 37.6357 27.4153 37.6707 27.5116C37.7932 27.9492 37.9464 28.3738 38.1302 28.7852C38.3141 29.1966 38.4935 29.5861 38.6686 29.9538C38.7036 30.2514 38.7955 30.4921 38.9443 30.6759C39.0931 30.8598 39.185 31.1005 39.2201 31.3981C39.3601 31.7307 39.5177 32.0459 39.6927 32.3435C39.8678 32.6411 40.0429 32.9387 40.218 33.2363L40.4806 33.3939C40.5243 33.4202 40.5681 33.4464 40.6119 33.4727C40.6644 33.5077 40.7169 33.5427 40.7694 33.5777C40.857 33.6303 40.9182 33.6696 40.9533 33.6959C41.0145 33.7397 41.0846 33.7791 41.1633 33.8141C41.2596 33.8578 41.3428 33.8841 41.4128 33.8929C41.4828 33.9016 41.566 33.9279 41.6623 33.9716C41.7498 34.0242 41.8067 34.0679 41.833 34.1029C41.8592 34.138 41.9074 34.1817 41.9774 34.2342C42.0387 34.243 42.1087 34.2649 42.1875 34.2999C42.2488 34.3262 42.3188 34.3305 42.3976 34.313C42.6864 34.4531 42.9403 34.5494 43.1591 34.6019C43.2642 34.6282 43.3648 34.6544 43.4611 34.6807C43.5662 34.7157 43.6668 34.7507 43.7631 34.7857C43.8507 34.8207 43.9601 34.8557 44.0914 34.8908C44.2227 34.9258 44.3321 34.9433 44.4196 34.9433C44.586 35.0221 44.6998 35.1271 44.761 35.2584C44.8311 35.3897 44.9142 35.5123 45.0105 35.6261C45.1068 35.7398 45.2775 35.8099 45.5226 35.8361C45.5839 35.8799 45.6232 35.928 45.6408 35.9806C45.6583 36.0331 45.7064 36.09 45.7852 36.1513C45.9515 36.2913 46.0259 36.3789 46.0084 36.4139C45.9734 36.4664 45.9515 36.5102 45.9427 36.5452C45.8202 36.5627 45.6977 36.5802 45.5751 36.5977C45.4526 36.6152 45.365 36.6677 45.3125 36.7553C45.26 36.7553 45.2031 36.7553 45.1418 36.7553C45.0893 36.7553 45.028 36.7596 44.958 36.7684C44.8442 36.7771 44.7348 36.7465 44.6297 36.6765C44.3146 36.694 44.0432 36.6765 43.8156 36.6239C43.5968 36.5802 43.2992 36.5364 42.9228 36.4926C42.8265 36.4926 42.7302 36.4926 42.6339 36.4926C42.5464 36.5014 42.4589 36.5102 42.3713 36.5189C42.1875 36.5364 42.0299 36.5189 41.8986 36.4664C41.5135 36.3088 41.2071 36.1688 40.9795 36.0462C40.7519 35.9237 40.5156 35.7924 40.2705 35.6523C40.0867 35.5648 39.9116 35.4597 39.7453 35.3372C39.579 35.2146 39.4039 35.1096 39.2201 35.0221C38.975 34.7419 38.7386 34.4706 38.511 34.208C38.2834 33.9454 38.0734 33.6565 37.8808 33.3414L37.7101 33.0525C37.6926 33.0175 37.6707 32.9825 37.6444 32.9475C37.6269 32.9125 37.6094 32.8775 37.5919 32.8424C37.5306 32.6936 37.4694 32.5973 37.4081 32.5536C37.3643 32.5186 37.3205 32.466 37.2768 32.396C37.233 32.326 37.1892 32.2209 37.1455 32.0809C37.128 32.0196 37.1105 31.9583 37.093 31.8971C37.0755 31.8358 37.0579 31.7745 37.0404 31.7132C37.0054 31.5557 36.9704 31.4025 36.9354 31.2537C36.9004 31.1049 36.8566 30.9604 36.8041 30.8204C36.7603 30.6978 36.7122 30.6059 36.6597 30.5446C36.5984 30.4659 36.559 30.3652 36.5415 30.2426C36.4715 30.0501 36.4058 29.8531 36.3445 29.6518C36.2833 29.4505 36.2351 29.236 36.2001 29.0084C36.1476 28.6758 36.0819 28.4175 36.0031 28.2337C35.9331 28.0762 35.8762 27.8967 35.8325 27.6954C35.7187 27.424 35.5698 27.1176 35.386 26.7763C35.2897 26.6012 35.1978 26.4393 35.1103 26.2904C35.0315 26.1329 34.9571 25.9884 34.8871 25.8571C34.8696 25.8134 34.8564 25.774 34.8477 25.739C34.8389 25.704 34.8302 25.6733 34.8214 25.6471C34.8127 25.5945 34.782 25.5508 34.7295 25.5158C34.6332 25.612 34.5544 25.7609 34.4932 25.9622C34.4406 26.146 34.3706 26.3036 34.2831 26.4349C34.0905 26.7412 33.968 26.9907 33.9154 27.1833C33.8629 27.3759 33.7841 27.5553 33.6791 27.7216C33.6266 28.0805 33.5303 28.3869 33.3902 28.6408C33.3465 28.8946 33.2589 29.0784 33.1276 29.1922C33.0401 29.5074 32.935 29.8225 32.8125 30.1376C32.7512 30.2952 32.6899 30.4527 32.6287 30.6103C32.5762 30.7591 32.5236 30.9079 32.4711 31.0567C32.4273 31.2405 32.3836 31.3894 32.3398 31.5032C32.2873 31.6345 32.2698 31.7745 32.2873 31.9233C32.2873 32.0546 32.2654 32.1772 32.2216 32.291C32.1779 32.4048 32.1385 32.5273 32.1035 32.6586C32.0159 32.9037 31.8277 33.0525 31.5389 33.105C31.3988 33.1313 31.2587 33.1576 31.1187 33.1838C30.9786 33.2188 30.843 33.2539 30.7117 33.2889C30.6591 33.3064 30.6022 33.3239 30.541 33.3414C30.4797 33.3589 30.414 33.3764 30.344 33.3939C30.1339 33.4464 29.9107 33.5383 29.6744 33.6696C29.4293 33.8009 29.1885 33.8491 28.9522 33.8141C28.7946 33.7791 28.7377 33.6871 28.7815 33.5383C28.8253 33.3895 28.8909 33.2801 28.9785 33.2101C29.066 33.0175 29.1579 32.8249 29.2542 32.6324C29.3505 32.4398 29.4512 32.256 29.5562 32.0809C29.6 31.9146 29.6612 31.792 29.74 31.7132C29.8363 31.652 29.9063 31.5557 29.9501 31.4244C29.9851 31.3894 30.0158 31.3456 30.042 31.2931C30.0683 31.2405 30.0902 31.1968 30.1077 31.1618C30.1339 31.1005 30.1558 31.0086 30.1733 30.886C30.1908 30.7635 30.2127 30.6716 30.239 30.6103C30.2652 30.5403 30.2915 30.4702 30.3177 30.4002C30.344 30.3214 30.3659 30.247 30.3834 30.177C30.4272 30.0107 30.4928 29.8487 30.5804 29.6912L30.6985 29.3761C30.716 29.3235 30.7379 29.2666 30.7642 29.2054C30.7904 29.1441 30.8167 29.0784 30.843 29.0084C30.8867 28.8946 30.9392 28.7939 31.0005 28.7064C31.0705 28.6014 31.1318 28.5007 31.1843 28.4044C31.2894 28.1506 31.3682 27.9536 31.4207 27.8136C31.482 27.656 31.552 27.5116 31.6308 27.3803C31.7883 26.9776 31.9503 26.6406 32.1166 26.3692C32.2129 26.2204 32.3048 26.0629 32.3923 25.8965C32.4799 25.7302 32.5674 25.5595 32.6549 25.3845C32.6724 25.3582 32.6899 25.3319 32.7075 25.3057C32.725 25.2794 32.7425 25.2575 32.76 25.24C32.795 25.205 32.8212 25.1481 32.8388 25.0693C32.9088 25.0256 32.9613 24.9643 32.9963 24.8855C33.0313 24.8067 33.0839 24.7454 33.1539 24.7017C33.2239 24.5966 33.2764 24.4916 33.3114 24.3866C33.3552 24.2728 33.4077 24.1852 33.469 24.1239C33.6441 23.8001 33.8104 23.4499 33.968 23.0735C33.9855 23.0298 33.9986 22.9904 34.0073 22.9554C34.0161 22.9116 34.0249 22.8722 34.0336 22.8372C34.0511 22.7321 34.073 22.6621 34.0993 22.6271C34.1955 22.5133 34.2612 22.417 34.2962 22.3382C34.3312 22.2507 34.3619 22.1894 34.3881 22.1544C34.4231 22.0931 34.4582 22.0362 34.4932 21.9837C34.5369 21.9224 34.5763 21.8612 34.6113 21.7999C34.6551 21.7386 34.6945 21.6773 34.7295 21.6161C34.7645 21.5548 34.7995 21.4891 34.8346 21.4191C34.9221 21.1653 35.0403 20.9245 35.1891 20.697C35.3379 20.4606 35.4561 20.2286 35.5436 20.0011C35.6486 19.8435 35.7099 19.756 35.7274 19.7384C35.7449 19.7209 35.7537 19.6947 35.7537 19.6597C35.9813 19.222 36.187 18.815 36.3708 18.4386C36.5546 18.0621 36.7428 17.6726 36.9354 17.27C36.7253 17.3137 36.5546 17.4013 36.4233 17.5326C36.292 17.6639 36.1388 17.7602 35.9638 17.8214C35.9112 17.8915 35.8762 17.9352 35.8587 17.9527L35.7537 18.0578C35.316 18.2679 34.9133 18.5042 34.5457 18.7668C34.178 19.0294 33.8542 19.3533 33.5741 19.7384C33.4515 19.791 33.3596 19.8391 33.2983 19.8829C33.2545 19.9179 33.2064 19.9485 33.1539 19.9748C33.1101 20.0011 33.0663 20.0273 33.0226 20.0536C32.9 20.1061 32.7425 20.1411 32.5499 20.1586C32.3573 20.1761 32.2085 20.1148 32.1035 19.9748C32.0422 19.4671 32.086 19.0907 32.2348 18.8456C32.4011 18.583 32.5499 18.3379 32.6812 18.1103C32.8825 17.9265 33.1276 17.7383 33.4165 17.5457L34.178 17.0599C34.4056 16.9023 34.5501 16.7973 34.6113 16.7447C34.6551 16.7097 34.7208 16.666 34.8083 16.6134C35.0184 16.4734 35.2328 16.329 35.4517 16.1801C35.6705 16.0226 35.8937 15.8606 36.1213 15.6943C36.3927 15.4492 36.6991 15.2654 37.0404 15.1429C37.2068 15.0903 37.3599 15.0466 37.5 15.0116C37.6401 14.9678 37.767 14.9284 37.8808 14.8934C37.9946 14.8584 38.104 14.8234 38.209 14.7883C38.3141 14.7533 38.4147 14.7139 38.511 14.6702C39.0712 14.5651 39.5877 14.4294 40.0604 14.2631C40.5331 14.0968 41.0145 13.9261 41.5047 13.7511C41.6273 13.7335 41.7454 13.7204 41.8592 13.7117C41.973 13.7029 42.0868 13.6942 42.2006 13.6854L42.9228 13.646C42.9928 13.6985 43.0935 13.7204 43.2248 13.7117C43.2948 13.7029 43.3561 13.7029 43.4086 13.7117C43.4699 13.7117 43.5268 13.716 43.5793 13.7248C43.6493 13.7423 43.7194 13.7598 43.7894 13.7773C43.8594 13.7861 43.9251 13.7992 43.9863 13.8167C44.0564 13.8255 44.122 13.8386 44.1833 13.8561C44.2533 13.8736 44.3234 13.8911 44.3934 13.9086C44.5072 14.0137 44.6604 14.0881 44.8529 14.1318C45.0193 14.1668 45.2075 14.2237 45.4175 14.3025C45.5576 14.3725 45.6889 14.4382 45.8114 14.4995C45.934 14.5607 46.0653 14.6264 46.2054 14.6964C46.3279 14.8452 46.3848 14.9678 46.376 15.0641C46.3673 15.1166 46.3629 15.1822 46.3629 15.261C46.3717 15.3311 46.3804 15.4142 46.3892 15.5105L46.4286 15.76C46.4461 15.865 46.4592 15.9482 46.468 16.0095C46.468 16.0795 46.4811 16.1408 46.5073 16.1933C46.5336 16.2458 46.5467 16.2983 46.5467 16.3508C46.5555 16.4996 46.5642 16.6485 46.573 16.7973C46.5905 16.9373 46.6036 17.0818 46.6124 17.2306C46.6387 17.5369 46.6343 17.8302 46.5993 18.1103C46.5555 18.3466 46.4942 18.5261 46.4154 18.6486C46.3717 18.7187 46.3279 18.7974 46.2841 18.885C46.2404 18.9725 46.1966 19.0644 46.1528 19.1607C46.0478 19.3358 45.934 19.5109 45.8114 19.6859C45.6889 19.861 45.5576 20.0448 45.4175 20.2374C45.3913 20.2549 45.365 20.2724 45.3388 20.2899C45.3125 20.2987 45.2906 20.3118 45.2731 20.3293C45.2206 20.3643 45.1899 20.4125 45.1812 20.4737C44.9361 20.6576 44.726 20.7976 44.5509 20.8939C44.3846 20.9814 44.2183 21.0865 44.052 21.209C43.982 21.244 43.9119 21.2791 43.8419 21.3141C43.7719 21.3491 43.7019 21.3841 43.6318 21.4191C43.553 21.4979 43.4655 21.5679 43.3692 21.6292C43.3167 21.6642 43.2642 21.6992 43.2117 21.7342C43.1679 21.7693 43.1241 21.8043 43.0804 21.8393C42.9403 21.9793 42.8177 22.0756 42.7127 22.1282C42.6164 22.1807 42.5464 22.2682 42.5026 22.3908C42.1175 22.6008 41.7586 22.8591 41.4259 23.1654C41.1283 23.4368 40.7869 23.7038 40.4018 23.9664C40.3318 24.0277 40.2617 24.0889 40.1917 24.1502C40.1304 24.2115 40.0648 24.2728 39.9947 24.334C39.8722 24.4478 39.719 24.5529 39.5352 24.6492C39.2901 24.7542 39.1106 24.8505 38.9968 24.938C38.8918 25.0168 38.7386 25.0781 38.5373 25.1218C38.0734 25.402 37.5219 25.577 36.8829 25.6471ZM42.739 15.4055C42.6514 15.423 42.5639 15.4317 42.4764 15.4317C42.3538 15.4317 42.24 15.4492 42.135 15.4842C42.0474 15.5018 41.9555 15.528 41.8592 15.563C41.763 15.5893 41.6623 15.6243 41.5572 15.6681C41.4522 15.7118 41.3472 15.7512 41.2421 15.7862C41.1371 15.8125 41.032 15.8344 40.927 15.8519C40.7869 15.8869 40.66 15.9219 40.5462 15.9569C40.4412 15.9832 40.3449 16.0095 40.2573 16.0357C40.0735 16.097 39.9554 16.1408 39.9028 16.167C39.8766 16.1933 39.8547 16.2546 39.8372 16.3508C39.8197 16.4559 39.7978 16.5259 39.7715 16.5609C39.7015 16.736 39.614 16.8979 39.5089 17.0467C39.4039 17.1868 39.3251 17.3312 39.2726 17.48C39.0888 17.6814 38.9487 17.9046 38.8524 18.1497C38.8086 18.2635 38.7649 18.3729 38.7211 18.4779C38.6773 18.5742 38.6336 18.6705 38.5898 18.7668C38.476 18.9156 38.3753 19.0557 38.2878 19.187C38.2003 19.3183 38.1259 19.4408 38.0646 19.5546L37.907 19.7253C37.8895 19.7428 37.8808 19.7647 37.8808 19.791C37.6707 20.0011 37.5 20.2374 37.3687 20.5C37.2374 20.7626 37.0755 20.9902 36.8829 21.1828C36.8128 21.2878 36.7516 21.3885 36.6991 21.4848C36.6553 21.5723 36.6159 21.6555 36.5809 21.7342C36.5109 21.9093 36.4102 22.0494 36.2789 22.1544L36.0819 22.5614C36.0469 22.6227 36.0119 22.6884 35.9769 22.7584C35.9506 22.8284 35.92 22.8985 35.885 22.9685C35.7362 23.3011 35.5436 23.6425 35.3072 23.9926C35.3072 24.0714 35.2854 24.1415 35.2416 24.2027C35.2153 24.2377 35.1759 24.299 35.1234 24.3866C35.1934 24.4391 35.2635 24.4478 35.3335 24.4128C35.4035 24.3778 35.4648 24.3428 35.5173 24.3078C35.9287 24.0802 36.3664 23.8832 36.8304 23.7169C37.3293 23.5418 37.7582 23.3274 38.1171 23.0735C38.4498 22.881 38.7561 22.7015 39.0362 22.5352C39.3163 22.3689 39.5877 22.1894 39.8503 21.9968L40.4543 21.6686C40.5243 21.6248 40.5987 21.5854 40.6775 21.5504C40.7651 21.5154 40.857 21.4804 40.9533 21.4454C41.1108 21.3141 41.2596 21.209 41.3997 21.1303C41.5485 21.0427 41.671 20.9377 41.7673 20.8151C41.9424 20.6751 42.1175 20.4956 42.2925 20.2768C42.4676 20.0579 42.6339 19.8697 42.7915 19.7122C42.879 19.7034 42.9315 19.6728 42.9491 19.6203C42.9666 19.5765 43.0191 19.5546 43.1066 19.5546C43.2554 19.3533 43.4261 19.1826 43.6187 19.0425C43.82 18.8937 43.9732 18.723 44.0783 18.5305C44.1745 18.3817 44.2402 18.2416 44.2752 18.1103C44.319 17.9615 44.3846 17.8039 44.4722 17.6376C44.4371 17.5063 44.4678 17.3619 44.5641 17.2043C44.6604 17.0467 44.691 16.9111 44.656 16.7973C44.6122 16.6572 44.5422 16.5478 44.4459 16.469C44.3409 16.3815 44.2621 16.2808 44.2096 16.167C44.1745 16.0182 44.1352 15.9132 44.0914 15.8519C44.0564 15.7906 44.017 15.7031 43.9732 15.5893C43.9382 15.5718 43.9032 15.5543 43.8682 15.5368C43.8419 15.5193 43.8156 15.5018 43.7894 15.4842C43.7456 15.4492 43.6581 15.4405 43.5268 15.458C43.4392 15.4142 43.3211 15.4011 43.1723 15.4186C43.1022 15.4273 43.0278 15.4317 42.9491 15.4317C42.879 15.423 42.809 15.4142 42.739 15.4055ZM44.0257 27.1964C44.1395 27.1352 44.2796 27.0039 44.4459 26.8025C44.6122 26.5924 44.7742 26.3911 44.9317 26.1985C45.0893 25.9972 45.2075 25.8834 45.2862 25.8571C45.3388 25.7696 45.3869 25.6952 45.4307 25.6339C45.4744 25.5727 45.5401 25.5158 45.6276 25.4632C45.7677 25.2094 45.9515 24.9949 46.1791 24.8199C46.4154 24.636 46.6343 24.4391 46.8356 24.229C47.0019 24.159 47.1682 24.0802 47.3346 23.9926C47.5096 23.9051 47.6803 23.8044 47.8466 23.6907C48.188 23.4631 48.5688 23.3449 48.989 23.3361C49.1815 23.4237 49.3697 23.4499 49.5536 23.4149C49.7286 23.3799 49.8993 23.4237 50.0656 23.5462C50.1619 23.7125 50.2407 23.8132 50.302 23.8482C50.3633 23.8832 50.4158 23.9314 50.4596 23.9926C50.5296 24.2115 50.5821 24.3559 50.6171 24.4259C50.6609 24.496 50.6871 24.5704 50.6959 24.6492C50.7047 24.7805 50.7134 24.8943 50.7222 24.9905C50.7309 25.0781 50.7397 25.1525 50.7484 25.2138C50.7572 25.3276 50.7572 25.437 50.7484 25.542C50.6959 25.9884 50.6084 26.4349 50.4858 26.8813C50.4683 26.9338 50.4508 26.9863 50.4333 27.0389C50.4158 27.0914 50.3983 27.1483 50.3808 27.2096C50.3458 27.3234 50.302 27.424 50.2495 27.5116C50.1182 27.6779 50.0263 27.8136 49.9737 27.9186C49.895 28.0586 49.8381 28.1506 49.803 28.1943C49.698 28.2994 49.5973 28.3957 49.501 28.4832C49.4135 28.5707 49.3304 28.6495 49.2516 28.7195C49.1728 28.7633 49.094 28.8114 49.0152 28.864C48.9364 28.9077 48.8577 28.9559 48.7789 29.0084C48.6301 29.1047 48.455 29.1747 48.2537 29.2185L48.0173 29.3629C47.9385 29.4154 47.851 29.4461 47.7547 29.4548C47.5972 29.5686 47.4221 29.6605 47.2295 29.7306C47.142 29.7656 47.0501 29.8006 46.9538 29.8356C46.8662 29.8706 46.7743 29.91 46.678 29.9538C46.5467 30.0063 46.4329 30.0676 46.3367 30.1376C46.2404 30.2076 46.1178 30.2777 45.969 30.3477C45.8902 30.3739 45.7633 30.4046 45.5882 30.4396C45.4219 30.4659 45.3037 30.4965 45.2337 30.5315C45.3212 30.7066 45.3563 30.9254 45.3388 31.188C45.33 31.4331 45.3738 31.652 45.4701 31.8445C45.6976 31.8971 45.9471 31.9364 46.2185 31.9627C46.4898 31.989 46.7481 31.9846 46.9932 31.9496C47.0369 31.9408 47.0807 31.9277 47.1245 31.9102C47.177 31.8927 47.2295 31.8752 47.282 31.8577C47.3346 31.8402 47.3871 31.8227 47.4396 31.8051C47.4921 31.7876 47.5446 31.7745 47.5972 31.7658C47.7897 31.7307 47.9779 31.687 48.1618 31.6345C48.3456 31.5819 48.5075 31.5119 48.6476 31.4244C49.1553 31.2493 49.6455 31.013 50.1182 30.7153C50.5909 30.4177 51.0023 30.0938 51.3524 29.7437C51.5625 29.6036 51.7945 29.4111 52.0483 29.166C52.3022 28.9209 52.4991 28.6933 52.6392 28.4832C52.9018 28.2031 53.1337 27.9842 53.3351 27.8267C53.5364 27.6691 53.7246 27.5991 53.8997 27.6166C54.0397 27.6166 54.1754 27.6998 54.3067 27.8661C54.438 28.0324 54.4249 28.2118 54.2673 28.4044C54.101 28.5095 53.9172 28.667 53.7159 28.8771C53.5233 29.0872 53.3219 29.236 53.1119 29.3235C52.9631 29.4198 52.7661 29.6124 52.521 29.9013C52.2847 30.1726 52.0877 30.3827 51.9301 30.5315C51.8951 30.5665 51.8557 30.6059 51.812 30.6497C51.7682 30.6935 51.7157 30.7372 51.6544 30.781C51.5406 30.8685 51.4487 30.9604 51.3787 31.0567C51.1073 31.2843 50.8447 31.4769 50.5909 31.6345C50.4946 31.5994 50.4158 31.6169 50.3545 31.687C50.2757 31.7833 50.2057 31.8533 50.1444 31.8971C50.1182 31.9146 50.0919 31.9321 50.0656 31.9496C50.0394 31.9671 50.0087 31.9846 49.9737 32.0021C49.9387 32.0196 49.9081 32.0371 49.8818 32.0546C49.8556 32.0721 49.8293 32.0896 49.803 32.1071C49.663 32.2297 49.5098 32.3522 49.3435 32.4748C49.1772 32.5973 49.0065 32.7024 48.8314 32.7899C48.6563 32.895 48.4813 32.9912 48.3062 33.0788C48.1311 33.1751 47.9561 33.2582 47.781 33.3283C47.6059 33.3983 47.4308 33.4814 47.2558 33.5777C47.0895 33.674 46.9231 33.7791 46.7568 33.8929L46.468 33.9322C46.4242 33.941 46.3804 33.9454 46.3367 33.9454C46.2929 33.9541 46.2491 33.9629 46.2054 33.9716C46.1091 34.0067 46.0172 34.0242 45.9296 34.0242C45.8421 34.0242 45.7327 34.0067 45.6014 33.9716C45.0236 33.8141 44.5509 33.534 44.1833 33.1313C44.1308 33.0788 44.0739 33.0306 44.0126 32.9869C43.9601 32.9343 43.9032 32.8862 43.8419 32.8424C43.7019 32.7374 43.6056 32.6411 43.553 32.5536C43.4743 32.4223 43.3955 32.2166 43.3167 31.9364C43.2292 31.6563 43.1548 31.3718 43.0935 31.083C43.0322 30.7854 43.0016 30.5578 43.0016 30.4002C43.0541 30.2952 43.111 30.1157 43.1723 29.8619C43.2335 29.5993 43.2861 29.341 43.3298 29.0872C43.3736 28.8246 43.3955 28.6408 43.3955 28.5357C43.4305 28.5007 43.5005 28.3869 43.6056 28.1943C43.7019 27.993 43.7938 27.7917 43.8813 27.5903C43.9776 27.3803 44.0257 27.2489 44.0257 27.1964ZM48.2537 25.5158C48.1311 25.6733 48.0086 25.8221 47.886 25.9622C47.7635 26.1022 47.6234 26.2335 47.4659 26.3561C47.3608 26.5487 47.2383 26.7237 47.0982 26.8813C46.9582 27.0389 46.8181 27.1877 46.678 27.3277C46.608 27.4678 46.5292 27.5772 46.4417 27.656C46.3542 27.7348 46.2579 27.8179 46.1528 27.9055C46.039 28.098 45.899 28.2819 45.7327 28.4569C45.5663 28.632 45.5313 28.8333 45.6276 29.0609C45.8202 29.0959 46.0128 29.0697 46.2054 28.9821C46.3979 28.8946 46.5642 28.8158 46.7043 28.7458C46.7743 28.702 46.8444 28.6626 46.9144 28.6276C46.9932 28.5926 47.0676 28.5576 47.1376 28.5226C47.2076 28.4876 47.2777 28.4526 47.3477 28.4175C47.4177 28.3825 47.4834 28.3431 47.5446 28.2994L48.2274 27.6166C48.3325 27.5203 48.4375 27.4065 48.5425 27.2752C48.5863 27.2139 48.6301 27.1527 48.6738 27.0914C48.7264 27.0214 48.7789 26.9513 48.8314 26.8813C48.8752 26.6887 48.9452 26.5093 49.0415 26.343C49.1465 26.1679 49.1903 25.9884 49.1728 25.8046C49.164 25.7258 49.1334 25.6339 49.0809 25.5289C49.0284 25.4238 48.9977 25.3407 48.989 25.2794C48.8051 25.2794 48.6695 25.31 48.5819 25.3713C48.5382 25.4063 48.4856 25.437 48.4244 25.4632C48.3718 25.4807 48.3149 25.4982 48.2537 25.5158ZM60.7799 25.6996L60.7537 25.9097C60.7712 25.9709 60.7537 26.076 60.7012 26.2248C60.6136 26.3298 60.5611 26.4436 60.5436 26.5662C60.5086 26.6362 60.4779 26.6975 60.4517 26.75C60.4254 26.8025 60.4035 26.8725 60.386 26.9601C60.351 27.0651 60.3379 27.1877 60.3466 27.3277C60.3554 27.3978 60.3554 27.4678 60.3466 27.5378C60.3466 27.5991 60.3423 27.6604 60.3335 27.7216C60.2985 27.9142 60.2722 28.1024 60.2547 28.2862C60.2372 28.4701 60.2197 28.6583 60.2022 28.8508C60.2022 29.0434 60.1847 29.2623 60.1497 29.5074C60.1147 29.7525 60.0797 29.9713 60.0446 30.1639C60.1234 30.3039 60.1672 30.4352 60.1759 30.5578C60.1847 30.6891 60.246 30.8029 60.3598 30.8992C60.7099 30.8466 60.99 30.7635 61.2001 30.6497C61.4102 30.5359 61.6115 30.3739 61.8041 30.1639C61.9441 30.1026 62.0536 30.0413 62.1323 29.98C62.2024 29.9188 62.303 29.8487 62.4343 29.77L62.6444 29.5599C62.8545 29.4461 62.9727 29.3761 62.9989 29.3498C63.0165 29.3323 63.0383 29.3148 63.0646 29.2973C63.0996 29.2798 63.1346 29.2623 63.1696 29.2447C63.4673 29.0522 63.6948 28.8508 63.8524 28.6408C63.9837 28.5357 64.0931 28.4263 64.1807 28.3125C64.2507 28.2162 64.3864 28.1243 64.5877 28.0368C64.7015 27.8967 64.8284 27.7785 64.9685 27.6822C65.1085 27.586 65.2355 27.4678 65.3493 27.3277C65.4455 27.3277 65.5156 27.3452 65.5593 27.3803C65.5856 27.3978 65.6119 27.4153 65.6381 27.4328C65.6731 27.4503 65.7082 27.4678 65.7432 27.4853C65.7957 27.6254 65.8044 27.7698 65.7694 27.9186C65.7344 28.0674 65.6731 28.2031 65.5856 28.3256C65.4981 28.4394 65.4543 28.5095 65.4543 28.5357C65.4543 28.5532 65.4455 28.5707 65.428 28.5882C65.3755 28.6495 65.3099 28.7152 65.2311 28.7852C65.1523 28.8465 65.0867 28.9121 65.0341 28.9821C64.9466 29.1397 64.8766 29.2185 64.8241 29.2185C64.7715 29.2185 64.7278 29.236 64.6927 29.271C64.5352 29.3673 64.4258 29.4373 64.3645 29.4811C64.2945 29.5424 64.1938 29.6124 64.0625 29.6912C63.8787 29.7875 63.7649 29.8575 63.7211 29.9013C63.6773 29.945 63.6423 29.9713 63.6161 29.98C63.406 30.2164 63.2003 30.4133 62.9989 30.5709C62.8151 30.711 62.6182 30.9079 62.4081 31.1618C62.3381 31.2143 62.268 31.2668 62.198 31.3193C62.128 31.3718 62.0667 31.4419 62.0142 31.5294C61.8566 31.6345 61.7297 31.7395 61.6334 31.8445C61.5371 31.9496 61.4277 32.0721 61.3051 32.2122C61.2001 32.2647 61.0863 32.3391 60.9638 32.4354C60.8149 32.5492 60.6836 32.6324 60.5698 32.6849C60.5261 32.7111 60.4517 32.7505 60.3466 32.803C60.2591 32.8468 60.1759 32.8687 60.0972 32.8687C59.8958 32.9037 59.7033 32.8862 59.5194 32.8162C59.3531 32.7549 59.1868 32.7024 59.0205 32.6586C58.9505 32.5536 58.8629 32.466 58.7579 32.396C58.6003 32.2034 58.4865 31.9758 58.4165 31.7132C58.3465 31.4506 58.2764 31.1705 58.2064 30.8729C58.0488 30.9779 57.9175 31.0917 57.8125 31.2143C57.7075 31.3456 57.5499 31.4594 57.3398 31.5557C57.1647 31.722 56.9853 31.8883 56.8015 32.0546C56.6176 32.2122 56.4251 32.3654 56.2237 32.5142C56.0312 32.663 55.8342 32.8206 55.6329 32.9869C55.4315 33.1444 55.2302 33.3064 55.0289 33.4727C54.8888 33.6127 54.7925 33.6653 54.74 33.6303C54.5825 33.8228 54.3023 33.8841 53.8997 33.8141C53.7596 33.744 53.6021 33.6828 53.427 33.6303C53.3044 33.5952 53.1644 33.5427 53.0068 33.4727C52.7092 33.4202 52.4597 33.2889 52.2584 33.0788C52.0571 32.8687 51.8864 32.6236 51.7463 32.3435C51.6938 32.1947 51.6544 32.0634 51.6281 31.9496C51.6194 31.8883 51.6063 31.8227 51.5888 31.7526C51.5712 31.6826 51.5537 31.6082 51.5362 31.5294C51.5275 31.3806 51.5012 31.2624 51.4575 31.1749C51.4224 31.0786 51.4224 30.9867 51.4575 30.8992C51.4224 30.8554 51.4137 30.7985 51.4312 30.7285C51.4487 30.6409 51.4575 30.5753 51.4575 30.5315C51.4399 30.2864 51.4618 30.0238 51.5231 29.7437C51.5844 29.4636 51.6675 29.2097 51.7726 28.9821C51.8251 28.8946 51.8951 28.8071 51.9827 28.7195C52.0264 28.667 52.0527 28.6145 52.0614 28.562C52.0702 28.5182 52.0965 28.4744 52.1402 28.4307C52.184 28.3782 52.2365 28.3256 52.2978 28.2731C52.3853 28.2031 52.4466 28.1506 52.4816 28.1155C52.5254 28.0543 52.5691 27.9974 52.6129 27.9449C52.6654 27.8836 52.7223 27.8311 52.7836 27.7873C52.8449 27.7435 52.9018 27.6954 52.9543 27.6429C53.0068 27.5903 53.0593 27.5378 53.1119 27.4853C53.1731 27.424 53.2213 27.3627 53.2563 27.3015C53.3001 27.2314 53.3657 27.1789 53.4533 27.1439C53.5233 27.0214 53.6021 26.9207 53.6896 26.8419C53.7771 26.7631 53.8734 26.68 53.9785 26.5924C54.2761 26.2335 54.6437 25.9272 55.0814 25.6733C55.5278 25.4195 55.9217 25.1394 56.2631 24.833C56.3857 24.7805 56.4907 24.7192 56.5783 24.6492C56.6658 24.5791 56.7533 24.5091 56.8409 24.4391C57.0597 24.2465 57.296 24.1852 57.5499 24.2553L58.2327 24.4391C58.4077 24.5966 58.5784 24.7542 58.7447 24.9118C58.9111 25.0693 59.0555 25.2444 59.178 25.437C59.2393 25.4282 59.305 25.4238 59.375 25.4238C59.445 25.4151 59.5194 25.4151 59.5982 25.4238C59.7558 25.4414 59.9221 25.4282 60.0972 25.3845C60.1497 25.3845 60.2022 25.3713 60.2547 25.3451C60.3072 25.3188 60.351 25.3057 60.386 25.3057C60.6486 25.3932 60.7799 25.5245 60.7799 25.6996ZM57.3135 26.0935C56.8409 26.3211 56.4119 26.5881 56.0268 26.8944C55.6416 27.2008 55.274 27.5291 54.9238 27.8792C54.8801 27.923 54.8319 27.9667 54.7794 28.0105C54.7356 28.0455 54.6919 28.0849 54.6481 28.1287C54.6043 28.1637 54.5606 28.2031 54.5168 28.2468C54.473 28.2906 54.4336 28.3344 54.3986 28.3782C54.3286 28.4657 54.263 28.5707 54.2017 28.6933C54.1404 28.8158 54.0835 28.9296 54.031 29.0347C54.0135 29.0697 53.996 29.1047 53.9785 29.1397C53.961 29.166 53.9434 29.1879 53.9259 29.2054C53.9084 29.2229 53.8909 29.2447 53.8734 29.271C53.8559 29.2973 53.8384 29.3235 53.8209 29.3498C53.7859 29.4373 53.7728 29.5249 53.7815 29.6124C53.7903 29.6737 53.7946 29.77 53.7946 29.9013V30.1639C53.7946 30.2164 53.8034 30.3039 53.8209 30.4265C53.8734 30.619 53.8997 30.8116 53.8997 31.0042C53.8997 31.1443 53.9128 31.315 53.9391 31.5163C53.9653 31.7176 54.031 31.8533 54.136 31.9233C54.2498 31.9933 54.3592 32.0109 54.4643 31.9758C54.5868 31.9321 54.6875 31.9058 54.7663 31.8971C55.379 31.4244 55.9568 30.9298 56.4995 30.4133C57.0422 29.8969 57.5236 29.3148 57.9438 28.667C57.9088 28.2381 57.9044 27.796 57.9307 27.3409C57.9569 26.9119 57.9175 26.5137 57.8125 26.146C57.7425 26.1022 57.6593 26.0891 57.563 26.1066C57.493 26.1154 57.4098 26.111 57.3135 26.0935ZM72.0982 26.8025C72.2733 26.8463 72.4002 26.9076 72.479 26.9863C72.5403 27.0476 72.5709 27.1176 72.5709 27.1964C72.4308 27.389 72.3477 27.5159 72.3214 27.5772C72.2952 27.6385 72.2383 27.6866 72.1507 27.7216C72.0369 27.8967 71.9144 28.063 71.7831 28.2206C71.6605 28.3694 71.5249 28.5138 71.376 28.6539C71.1047 28.9165 70.8377 29.2185 70.5751 29.5599C70.4613 29.6737 70.3825 29.7612 70.3388 29.8225C70.295 29.8838 70.2162 29.9713 70.1024 30.0851C69.8923 30.2339 69.7173 30.3871 69.5772 30.5446C69.4984 30.6322 69.4153 30.7153 69.3277 30.7941C69.2489 30.8641 69.1658 30.9342 69.0783 31.0042C69.0345 31.0392 68.9907 31.0742 68.9469 31.1092C68.9119 31.1355 68.8725 31.1661 68.8288 31.2012C68.7938 31.2362 68.7544 31.2712 68.7106 31.3062C68.6668 31.3412 68.6231 31.3806 68.5793 31.4244C68.5093 31.4944 68.4305 31.5644 68.343 31.6345C68.3079 31.6607 68.2686 31.6914 68.2248 31.7264C68.1898 31.7526 68.1504 31.7833 68.1066 31.8183C68.0016 31.9408 67.8965 32.0634 67.7915 32.1859C67.6864 32.3085 67.5814 32.4398 67.4764 32.5798C67.2925 32.6674 67.1175 32.7724 66.9511 32.895C66.7936 33.0088 66.6098 33.1138 66.3997 33.2101C66.3121 33.2626 66.229 33.3458 66.1502 33.4596C66.0802 33.5646 65.9795 33.639 65.8482 33.6828C65.7082 33.7353 65.5593 33.7484 65.4018 33.7222C65.2442 33.6959 65.1129 33.6565 65.0079 33.604C64.8941 33.5252 64.824 33.4814 64.7978 33.4727C64.7278 33.4552 64.684 33.4464 64.6665 33.4464C64.5002 33.2101 64.3864 32.9606 64.3251 32.698C64.2901 32.5579 64.2507 32.4179 64.2069 32.2778C64.1719 32.1378 64.1325 31.9933 64.0888 31.8445C64.0537 31.757 64.0275 31.6651 64.01 31.5688C63.9925 31.4725 63.975 31.3631 63.9575 31.2405L63.9181 31.0305C63.9093 30.9954 63.9006 30.9604 63.8918 30.9254C63.883 30.8817 63.8699 30.8379 63.8524 30.7941C63.8174 30.7066 63.7824 30.6147 63.7474 30.5184C63.7124 30.4221 63.6861 30.3214 63.6686 30.2164C63.6336 30.0063 63.6204 29.8006 63.6292 29.5993C63.6379 29.3979 63.6598 29.201 63.6948 29.0084C63.7999 28.4307 63.9531 27.8792 64.1544 27.354C64.3557 26.8288 64.5614 26.3298 64.7715 25.8571C64.8153 25.6383 64.8634 25.472 64.916 25.3582C64.9685 25.2444 65.0254 25.0868 65.0867 24.8855C65.1654 24.7892 65.2267 24.6492 65.2705 24.4653C65.288 24.3866 65.3055 24.3078 65.323 24.229C65.3493 24.1502 65.3755 24.0714 65.4018 23.9926C65.428 23.9226 65.4587 23.8526 65.4937 23.7826C65.5287 23.7038 65.5637 23.6206 65.5987 23.5331C65.6688 23.3755 65.7257 23.2136 65.7694 23.0473C65.8307 22.8459 65.8788 22.6709 65.9139 22.5221C65.9314 22.4345 65.9533 22.3514 65.9795 22.2726C66.0145 22.1938 66.0495 22.1194 66.0846 22.0494C66.1546 21.8655 66.2202 21.6861 66.2815 21.511C66.3515 21.336 66.4172 21.1653 66.4785 20.9989C66.5397 20.8326 66.601 20.6663 66.6623 20.5C66.7323 20.3337 66.8023 20.1674 66.8724 20.0011C66.8899 19.9485 66.9074 19.896 66.9249 19.8435C66.9424 19.791 66.9599 19.7384 66.9774 19.6859C67.0124 19.5896 67.0649 19.4933 67.135 19.3971C67.1787 19.2745 67.2225 19.1826 67.2663 19.1213C67.3363 19.0163 67.3888 18.9331 67.4238 18.8718C67.4238 18.7756 67.4545 18.7099 67.5158 18.6749C67.5595 18.6486 67.6077 18.5917 67.6602 18.5042C67.7565 18.3554 67.8221 18.2153 67.8571 18.084C67.8922 17.9527 67.9578 17.8127 68.0541 17.6639L68.3692 17.27C68.3867 17.2349 68.4042 17.1999 68.4217 17.1649C68.4392 17.1299 68.4568 17.0949 68.4743 17.0599C68.518 16.9898 68.5705 16.9286 68.6318 16.8761C68.8332 16.5609 69.0432 16.2458 69.2621 15.9307L69.9711 14.9328C70.1287 14.6877 70.3037 14.4557 70.4963 14.2369C70.6889 14.018 70.8902 13.8036 71.1003 13.5935C71.1703 13.506 71.2535 13.4097 71.3498 13.3046C71.4461 13.1996 71.5467 13.1383 71.6518 13.1208C71.8181 13.1033 71.9932 13.1208 72.177 13.1733C72.2295 13.2609 72.2777 13.3528 72.3214 13.4491C72.3652 13.5453 72.4046 13.6548 72.4396 13.7773C72.4746 14.32 72.4571 14.8452 72.3871 15.3529C72.317 15.8606 72.2383 16.3596 72.1507 16.8498C72.1332 16.9636 72.1288 17.0467 72.1376 17.0993C72.1464 17.1518 72.142 17.2349 72.1245 17.3487C72.0895 17.4538 72.0457 17.5895 71.9932 17.7558C71.9406 17.9221 71.8969 18.0753 71.8619 18.2153C71.8619 18.4517 71.8093 18.6705 71.7043 18.8718C71.5993 19.0644 71.5292 19.257 71.4942 19.4496C71.4417 19.4846 71.4111 19.5415 71.4023 19.6203C71.3936 19.6991 71.3629 19.756 71.3104 19.791C71.2666 19.9923 71.2097 20.1674 71.1397 20.3162C71.0609 20.4737 70.9953 20.6313 70.9427 20.7889C70.8114 20.9727 70.6801 21.1521 70.5488 21.3272C70.4175 21.5023 70.2819 21.6773 70.1418 21.8524C70.0017 22.0187 69.8661 22.1938 69.7348 22.3776C69.6122 22.5527 69.4897 22.7321 69.3671 22.916C69.0607 23.3799 68.7412 23.8176 68.4086 24.229C68.076 24.6404 67.7565 25.0781 67.4501 25.542C67.205 25.7609 67.0124 25.9797 66.8724 26.1985C66.7236 26.4349 66.5222 26.6537 66.2684 26.855C66.2246 27.0301 66.1808 27.2139 66.1371 27.4065C66.1021 27.5991 66.0627 27.796 66.0189 27.9974C65.9839 28.1987 65.9445 28.4044 65.9007 28.6145C65.857 28.8246 65.8132 29.0347 65.7694 29.2447C65.7607 29.3585 65.7344 29.4767 65.6906 29.5993C65.6731 29.6605 65.6556 29.7218 65.6381 29.7831C65.6206 29.8356 65.6031 29.8925 65.5856 29.9538C65.5506 30.0763 65.5418 30.2251 65.5593 30.4002C65.5681 30.5578 65.5418 30.7066 65.4806 30.8466C65.5068 30.9167 65.5287 31.0173 65.5462 31.1486C65.555 31.2624 65.5856 31.3631 65.6381 31.4506C65.7344 31.6082 65.8395 31.687 65.9533 31.687C66.0846 31.6169 66.1546 31.5863 66.1633 31.5951C66.1721 31.6038 66.1983 31.5994 66.2421 31.5819C66.3297 31.5294 66.4172 31.4594 66.5047 31.3718C66.5923 31.2843 66.671 31.2055 66.7411 31.1355C66.8374 31.0917 66.903 31.0523 66.938 31.0173C66.9643 30.9911 67.0124 30.9517 67.0825 30.8992C67.135 30.8641 67.1831 30.8379 67.2269 30.8204C67.2707 30.8029 67.31 30.7766 67.3451 30.7416C67.5989 30.479 67.8353 30.282 68.0541 30.1507C68.2817 30.0194 68.4655 29.8575 68.6056 29.6649L69.0783 29.3761C69.1745 29.3235 69.2665 29.2491 69.354 29.1528C69.4328 29.0565 69.5334 28.9821 69.656 28.9296C69.7085 28.8596 69.7435 28.8158 69.761 28.7983C69.7785 28.7808 69.8135 28.737 69.8661 28.667C69.9711 28.597 70.0761 28.527 70.1812 28.4569C70.2862 28.3869 70.3869 28.3169 70.4832 28.2468C70.5795 28.1768 70.6801 28.1068 70.7852 28.0368C70.899 27.9667 71.0128 27.8967 71.1266 27.8267C71.1616 27.7391 71.2185 27.6691 71.2973 27.6166C71.376 27.5641 71.4417 27.5116 71.4942 27.459C71.5467 27.4065 71.5905 27.3496 71.6255 27.2883C71.6693 27.2183 71.7306 27.1789 71.8093 27.1702C71.8181 27.0914 71.8575 27.0301 71.9275 26.9863C71.9975 26.9426 72.0544 26.8813 72.0982 26.8025ZM70.6801 17.0074H70.6539C70.4963 17.0424 70.3869 17.1211 70.3256 17.2437C70.2644 17.3662 70.2075 17.5063 70.1549 17.6639C70.1199 17.7339 70.0849 17.7952 70.0499 17.8477C70.0236 17.9002 70.0017 17.944 69.9842 17.979C69.9492 18.0403 69.9361 18.1453 69.9448 18.2941C69.6735 18.7405 69.4153 19.2001 69.1702 19.6728C68.9251 20.1367 68.6887 20.6138 68.4611 21.104C68.2423 21.5942 68.0191 22.0888 67.7915 22.5877C67.5639 23.0779 67.3363 23.5725 67.1087 24.0714C67.4676 23.7125 67.7959 23.2924 68.0935 22.8109C68.2423 22.5658 68.3955 22.3382 68.553 22.1282C68.7194 21.9181 68.8857 21.7255 69.052 21.5504C69.1745 21.2528 69.3015 20.9639 69.4328 20.6838C69.5728 20.4037 69.7173 20.1367 69.8661 19.8829C70.1549 19.3927 70.3825 18.8106 70.5488 18.1366C70.4788 17.9177 70.4876 17.7295 70.5751 17.572C70.6626 17.4144 70.6976 17.2262 70.6801 17.0074Z" fill="black"/>
<path d="M40.9118 62.2857L39.6479 66.3731H43.8697L42.6059 62.2857C42.5342 62.1244 42.4535 62.0078 42.3639 61.9361C42.2922 61.8644 42.2025 61.8286 42.095 61.8286H41.4227C41.3151 61.8286 41.2165 61.8644 41.1269 61.9361C41.0552 62.0078 40.9835 62.1244 40.9118 62.2857ZM39.379 75.0319C39.379 75.3725 39.2983 75.6235 39.137 75.7849C38.9936 75.9283 38.7515 76 38.4109 76H34.458C34.1174 76 33.8664 75.9283 33.705 75.7849C33.5616 75.6235 33.4899 75.3725 33.4899 75.0319V67.9328C33.4899 67.395 33.5706 66.7765 33.7319 66.0773C33.9112 65.3782 34.1801 64.5625 34.5387 63.6303L36.8782 57.526C36.9857 57.2213 37.1471 56.9972 37.3622 56.8538C37.5952 56.7104 37.891 56.6387 38.2496 56.6387H45.4832C45.8238 56.6387 46.1017 56.7104 46.3168 56.8538C46.5499 56.9972 46.7202 57.2213 46.8277 57.526L49.1672 63.6303C49.5258 64.5625 49.7857 65.3782 49.9471 66.0773C50.1263 66.7765 50.216 67.395 50.216 67.9328V75.0319C50.216 75.3725 50.1353 75.6235 49.974 75.7849C49.8305 75.9283 49.5885 76 49.2479 76H45.1874C44.8289 76 44.5599 75.9283 44.3807 75.7849C44.2193 75.6235 44.1387 75.3725 44.1387 75.0319V71.2672H39.379V75.0319ZM54.0739 76C53.7333 76 53.4824 75.9283 53.321 75.7849C53.1776 75.6235 53.1059 75.3725 53.1059 75.0319V71.8319C53.1059 71.4913 53.1776 71.2493 53.321 71.1059C53.4824 70.9445 53.7333 70.8639 54.0739 70.8639H56.7361V61.8286H54.0739C53.7333 61.8286 53.4824 61.7569 53.321 61.6134C53.1776 61.4521 53.1059 61.2011 53.1059 60.8605V57.6067C53.1059 57.2661 53.1776 57.0241 53.321 56.8807C53.4824 56.7193 53.7333 56.6387 54.0739 56.6387H65.5294C65.87 56.6387 66.112 56.7193 66.2555 56.8807C66.4168 57.0241 66.4975 57.2661 66.4975 57.6067V60.8605C66.4975 61.2011 66.4168 61.4521 66.2555 61.6134C66.112 61.7569 65.87 61.8286 65.5294 61.8286H62.921V70.8639H65.5294C65.87 70.8639 66.112 70.9445 66.2555 71.1059C66.4168 71.2493 66.4975 71.4913 66.4975 71.8319V75.0319C66.4975 75.3725 66.4168 75.6235 66.2555 75.7849C66.112 75.9283 65.87 76 65.5294 76H54.0739Z" fill="black"/>
</svg>
