<svg width="238" height="189" viewBox="0 0 238 189" fill="none" xmlns="http://www.w3.org/2000/svg">
<path d="M95.8079 144.001H69.1864C67.0109 144.001 65.4079 143.543 64.3774 142.627C63.4614 141.597 62.9461 139.994 62.8316 137.818L60.2554 71.522C60.1409 69.3465 60.5416 67.8008 61.4576 66.8847C62.3736 65.8542 63.9194 65.339 66.0949 65.339H98.8994C101.075 65.339 102.621 65.8542 103.537 66.8847C104.453 67.8008 104.853 69.3465 104.739 71.522L102.334 137.818C102.22 139.994 101.647 141.597 100.617 142.627C99.5864 143.543 97.9834 144.001 95.8079 144.001ZM98.3842 189H66.7819C64.6064 189 63.0034 188.542 61.9729 187.626C61.0569 186.595 60.5989 184.992 60.5989 182.817V160.318C60.5989 158.142 61.0569 156.596 61.9729 155.68C63.0034 154.65 64.6064 154.134 66.7819 154.134H98.3842C100.56 154.134 102.105 154.65 103.021 155.68C104.052 156.596 104.567 158.142 104.567 160.318V182.817C104.567 184.992 104.052 186.595 103.021 187.626C102.105 188.542 100.56 189 98.3842 189Z" fill="#EAEAEA"/>
<path d="M196.319 118.112L149.774 124.467C147.598 124.696 145.995 124.409 144.965 123.608C144.049 122.806 143.419 121.318 143.076 119.142L139.469 96.4712C139.125 94.2957 139.412 92.6354 140.328 91.4904C141.358 90.3454 142.961 89.6584 145.137 89.4294L179.315 84.6203C181.033 84.3913 182.235 83.8761 182.922 83.0746C183.609 82.2731 183.953 81.0136 183.953 79.296C183.953 77.693 183.552 76.4908 182.75 75.6893C181.949 74.8878 180.804 74.487 179.315 74.487H131.912C129.736 74.487 128.133 74.029 127.103 73.113C126.187 72.0825 125.729 70.4795 125.729 68.304V47.522C125.729 45.3465 126.187 43.8008 127.103 42.8847C128.133 41.8542 129.736 41.339 131.912 41.339H187.388C198.494 41.339 207.196 43.9725 213.494 49.2395C219.791 54.3921 222.94 61.8347 222.94 71.5672V89.6011C222.94 99.2192 220.536 106.089 215.727 110.211C210.918 114.333 204.448 116.967 196.319 118.112ZM177.082 165H145.652C143.476 165 141.873 164.542 140.843 163.626C139.927 162.595 139.469 160.992 139.469 158.817V136.318C139.469 134.142 139.927 132.596 140.843 131.68C141.873 130.65 143.476 130.134 145.652 130.134H177.082C179.258 130.134 180.804 130.65 181.72 131.68C182.75 132.596 183.266 134.142 183.266 136.318V158.817C183.266 160.992 182.75 162.595 181.72 163.626C180.804 164.542 179.258 165 177.082 165Z" fill="#EAEAEA"/>
<path d="M102.778 110.52L100.522 117.816H108.058L105.802 110.52C105.674 110.232 105.53 110.024 105.37 109.896C105.242 109.768 105.082 109.704 104.89 109.704H103.69C103.498 109.704 103.322 109.768 103.162 109.896C103.034 110.024 102.906 110.232 102.778 110.52ZM100.042 133.272C100.042 133.88 99.8975 134.328 99.6095 134.616C99.3535 134.872 98.9215 135 98.3135 135H91.2575C90.6495 135 90.2015 134.872 89.9135 134.616C89.6575 134.328 89.5295 133.88 89.5295 133.272V120.6C89.5295 119.64 89.6735 118.536 89.9615 117.288C90.2815 116.04 90.7615 114.584 91.4015 112.92L95.5775 102.024C95.7695 101.48 96.0575 101.08 96.4415 100.824C96.8575 100.568 97.3855 100.44 98.0255 100.44H110.938C111.546 100.44 112.042 100.568 112.426 100.824C112.842 101.08 113.146 101.48 113.338 102.024L117.514 112.92C118.154 114.584 118.618 116.04 118.906 117.288C119.226 118.536 119.386 119.64 119.386 120.6V133.272C119.386 133.88 119.242 134.328 118.954 134.616C118.698 134.872 118.266 135 117.658 135H110.41C109.77 135 109.29 134.872 108.97 134.616C108.682 134.328 108.538 133.88 108.538 133.272V126.552H100.042V133.272ZM126.272 135C125.664 135 125.216 134.872 124.928 134.616C124.672 134.328 124.544 133.88 124.544 133.272V127.56C124.544 126.952 124.672 126.52 124.928 126.264C125.216 125.976 125.664 125.832 126.272 125.832H131.024V109.704H126.272C125.664 109.704 125.216 109.576 124.928 109.32C124.672 109.032 124.544 108.584 124.544 107.976V102.168C124.544 101.56 124.672 101.128 124.928 100.872C125.216 100.584 125.664 100.44 126.272 100.44H146.72C147.328 100.44 147.76 100.584 148.016 100.872C148.304 101.128 148.448 101.56 148.448 102.168V107.976C148.448 108.584 148.304 109.032 148.016 109.32C147.76 109.576 147.328 109.704 146.72 109.704H142.064V125.832H146.72C147.328 125.832 147.76 125.976 148.016 126.264C148.304 126.52 148.448 126.952 148.448 127.56V133.272C148.448 133.88 148.304 134.328 148.016 134.616C147.76 134.872 147.328 135 146.72 135H126.272Z" fill="#08609F"/>
<path d="M82.8594 157.234C83.1094 157.078 83.3125 156.875 83.4688 156.625C83.5469 156.5 83.6328 156.375 83.7266 156.25C83.8203 156.125 83.9219 156 84.0313 155.875C84.4375 155.406 84.875 155.016 85.3438 154.703C85.5625 154.375 85.8359 154.133 86.1641 153.977C86.4922 153.805 86.75 153.547 86.9375 153.203C86.9844 153.141 87.0391 153.047 87.1016 152.922C87.1641 152.797 87.2188 152.703 87.2656 152.641C87.8594 151.812 88.5 151.125 89.1875 150.578C89.2813 150.5 89.375 150.422 89.4688 150.344C89.5625 150.266 89.6484 150.187 89.7266 150.109C89.8516 149.984 90.0625 149.828 90.3594 149.641C90.5 149.562 90.6406 149.477 90.7813 149.383C90.9219 149.273 91.0547 149.156 91.1797 149.031C91.4297 148.781 91.7188 148.594 92.0469 148.469C92.25 148.375 92.4531 148.305 92.6563 148.258C92.75 148.227 92.8438 148.203 92.9375 148.187C93.0469 148.156 93.1563 148.125 93.2656 148.094C93.4844 148.031 93.6797 147.977 93.8516 147.93C94.0234 147.883 94.2188 147.891 94.4375 147.953C94.9375 148.156 95.3125 148.578 95.5625 149.219C95.6563 149.453 95.6016 149.945 95.3984 150.695C95.2109 151.445 94.9844 152.227 94.7188 153.039C94.4531 153.836 94.2656 154.453 94.1563 154.891C94.0938 155.125 94.0781 155.258 94.1094 155.289C94.1406 155.32 94.1563 155.359 94.1563 155.406C94.0938 155.562 94.0469 155.703 94.0156 155.828C93.9844 155.953 93.9531 156.094 93.9219 156.25C93.8594 156.5 93.8125 156.836 93.7813 157.258C93.75 157.68 93.7656 158.016 93.8281 158.266C94.1406 158.25 94.3203 158.219 94.3672 158.172C94.3984 158.141 94.4375 158.125 94.4844 158.125C94.6094 158.094 94.7109 158.086 94.7891 158.102C94.8672 158.117 94.9688 158.109 95.0938 158.078C95.7344 157.906 96.3125 157.562 96.8281 157.047C97.1094 156.922 97.375 156.797 97.625 156.672C97.8906 156.547 98.1406 156.422 98.375 156.297C98.8125 155.984 99.1641 155.758 99.4297 155.617C99.6953 155.477 100.094 155.281 100.625 155.031C100.828 154.797 101.102 154.602 101.445 154.445C101.758 154.305 102.063 154.109 102.359 153.859C102.453 153.766 102.531 153.68 102.594 153.602C102.688 153.477 102.781 153.453 102.875 153.531C103.031 153.687 103.133 153.852 103.18 154.023C103.227 154.195 103.234 154.312 103.203 154.375C102.969 154.609 102.836 154.797 102.805 154.937C102.773 155.078 102.734 155.172 102.688 155.219C102.531 155.375 102.297 155.516 101.984 155.641C101.719 155.75 101.555 155.852 101.492 155.945C101.43 156.039 101.375 156.109 101.328 156.156C101.234 156.25 101.148 156.32 101.07 156.367C100.992 156.414 100.906 156.484 100.813 156.578C100.75 156.672 100.664 156.727 100.555 156.742L100.25 156.812C100.063 156.969 99.9063 157.109 99.7813 157.234C99.6563 157.359 99.5156 157.5 99.3594 157.656C99.125 157.891 98.9688 158.07 98.8906 158.195C98.8281 158.305 98.6563 158.453 98.375 158.641L97.4375 159.203C97 159.422 96.5625 159.687 96.125 160C95.6875 160.312 95.25 160.625 94.8125 160.937C94.5313 161.109 94.2109 161.273 93.8516 161.43C93.5234 161.57 93.2188 161.734 92.9375 161.922C92.7969 161.922 92.7109 161.914 92.6797 161.898C92.6328 161.867 92.5469 161.891 92.4219 161.969C92.2656 161.891 92.1094 161.883 91.9531 161.945C91.7813 162.023 91.625 162.031 91.4844 161.969C91.3281 161.844 91.1953 161.742 91.0859 161.664C90.9922 161.586 90.9141 161.531 90.8516 161.5C90.7578 161.437 90.6719 161.359 90.5938 161.266C90.5313 161.109 90.5078 160.937 90.5234 160.75C90.5391 160.562 90.5 160.406 90.4063 160.281C90.4063 159.594 90.4297 158.937 90.4766 158.312C90.5234 157.687 90.625 157.031 90.7813 156.344C90.8125 156.125 90.8906 155.75 91.0156 155.219C91.1406 154.672 91.2422 154.148 91.3203 153.648C91.3984 153.148 91.375 152.859 91.25 152.781C90.9063 152.969 90.5547 153.25 90.1953 153.625C90.0234 153.812 89.8516 153.984 89.6797 154.141C89.5078 154.297 89.3438 154.437 89.1875 154.562L88.4609 155.078C88.3516 155.156 88.2344 155.242 88.1094 155.336C87.9844 155.414 87.8594 155.5 87.7344 155.594C87.5156 155.75 87.3281 155.906 87.1719 156.062C87.0156 156.219 86.8438 156.406 86.6563 156.625C86.5469 156.734 86.4375 156.844 86.3281 156.953C86.2344 157.047 86.1406 157.148 86.0469 157.258C85.8594 157.461 85.6406 157.656 85.3906 157.844C85.2344 158 85.1172 158.102 85.0391 158.148C84.9609 158.195 84.8594 158.281 84.7344 158.406L84.2891 158.852C84.1484 158.992 83.9688 159.109 83.75 159.203C83.25 159.875 82.6875 160.523 82.0625 161.148C81.4531 161.773 80.9688 162.406 80.6094 163.047C80.2344 163.359 79.8359 163.633 79.4141 163.867C78.9922 164.102 78.4844 164.125 77.8906 163.938C77.5781 163.75 77.375 163.594 77.2813 163.469C77.1875 163.359 77.0781 163.266 76.9531 163.188C76.9844 162.844 77.0156 162.516 77.0469 162.203C77.0781 161.891 77.1719 161.562 77.3281 161.219L77.6094 160.75C77.7656 160.484 77.8672 160.172 77.9141 159.812C77.9609 159.437 78.0625 159.109 78.2188 158.828C78.4063 158.516 78.5234 158.258 78.5703 158.055C78.6172 157.867 78.6875 157.687 78.7813 157.516C78.8594 157.328 78.9453 157.18 79.0391 157.07C79.1328 156.961 79.2188 156.812 79.2969 156.625C79.375 156.453 79.4844 156.273 79.625 156.086C79.7656 155.898 79.875 155.719 79.9531 155.547C80.1406 154.875 80.3906 154.187 80.7031 153.484C80.7656 153.266 80.8281 153.055 80.8906 152.852C80.9531 152.648 81.0313 152.453 81.125 152.266C81.2031 152.094 81.2813 151.922 81.3594 151.75C81.4375 151.578 81.5156 151.414 81.5938 151.258C81.6719 151.086 81.75 150.922 81.8281 150.766C81.9063 150.594 81.9844 150.422 82.0625 150.25C82.1563 150.062 82.2422 149.898 82.3203 149.758C82.3984 149.617 82.5 149.469 82.625 149.312C82.6719 149.234 82.7188 149.156 82.7656 149.078C82.8125 149 82.8516 148.922 82.8828 148.844C82.9141 148.766 82.9531 148.687 83 148.609C83.0469 148.531 83.0938 148.453 83.1406 148.375C83.1875 148.297 83.2344 148.219 83.2813 148.141C83.3281 148.047 83.3672 147.945 83.3984 147.836C83.4609 147.633 83.5781 147.437 83.75 147.25C83.8594 147.125 83.9531 147.008 84.0313 146.898C84.125 146.773 84.2031 146.656 84.2656 146.547C84.375 146.344 84.5781 146.203 84.875 146.125C85.1406 146.25 85.4141 146.203 85.6953 145.984C85.9922 145.75 86.2344 145.766 86.4219 146.031C86.8594 146.312 87.1563 146.531 87.3125 146.687C87.5 146.859 87.625 147.031 87.6875 147.203C87.8438 147.484 87.8594 147.773 87.7344 148.07C87.6094 148.367 87.3906 148.625 87.0781 148.844C86.9688 149.328 86.75 149.828 86.4219 150.344C86.2656 150.578 86.1172 150.812 85.9766 151.047C85.8359 151.266 85.7031 151.484 85.5781 151.703L85.2031 152.641C85.0156 153.078 84.8203 153.516 84.6172 153.953C84.4141 154.391 84.1875 154.812 83.9375 155.219C83.7344 155.641 83.5781 155.914 83.4688 156.039C83.375 156.164 83.2891 156.289 83.2109 156.414C83.1484 156.523 83.0313 156.797 82.8594 157.234ZM99.9688 152.641C100.172 152.531 100.422 152.297 100.719 151.937C101.016 151.562 101.305 151.203 101.586 150.859C101.867 150.5 102.078 150.297 102.219 150.25C102.313 150.094 102.398 149.961 102.477 149.852C102.555 149.742 102.672 149.641 102.828 149.547C103.078 149.094 103.406 148.711 103.813 148.398C104.234 148.07 104.625 147.719 104.984 147.344C105.281 147.219 105.578 147.078 105.875 146.922C106.188 146.766 106.492 146.586 106.789 146.383C107.398 145.977 108.078 145.766 108.828 145.75C109.172 145.906 109.508 145.953 109.836 145.891C110.148 145.828 110.453 145.906 110.75 146.125C110.922 146.422 111.063 146.602 111.172 146.664C111.281 146.727 111.375 146.812 111.453 146.922C111.578 147.312 111.672 147.57 111.734 147.695C111.813 147.82 111.859 147.953 111.875 148.094C111.891 148.328 111.906 148.531 111.922 148.703C111.938 148.859 111.953 148.992 111.969 149.102C111.984 149.305 111.984 149.5 111.969 149.687C111.875 150.484 111.719 151.281 111.5 152.078C111.469 152.172 111.438 152.266 111.406 152.359C111.375 152.453 111.344 152.555 111.313 152.664C111.25 152.867 111.172 153.047 111.078 153.203C110.844 153.5 110.68 153.742 110.586 153.93C110.445 154.18 110.344 154.344 110.281 154.422C110.094 154.609 109.914 154.781 109.742 154.937C109.586 155.094 109.438 155.234 109.297 155.359C109.156 155.437 109.016 155.523 108.875 155.617C108.734 155.695 108.594 155.781 108.453 155.875C108.188 156.047 107.875 156.172 107.516 156.25L107.094 156.508C106.953 156.602 106.797 156.656 106.625 156.672C106.344 156.875 106.031 157.039 105.688 157.164C105.531 157.227 105.367 157.289 105.195 157.352C105.039 157.414 104.875 157.484 104.703 157.562C104.469 157.656 104.266 157.766 104.094 157.891C103.922 158.016 103.703 158.141 103.438 158.266C103.297 158.312 103.07 158.367 102.758 158.43C102.461 158.477 102.25 158.531 102.125 158.594C102.281 158.906 102.344 159.297 102.313 159.766C102.297 160.203 102.375 160.594 102.547 160.937C102.953 161.031 103.398 161.102 103.883 161.148C104.367 161.195 104.828 161.187 105.266 161.125C105.344 161.109 105.422 161.086 105.5 161.055C105.594 161.023 105.688 160.992 105.781 160.961C105.875 160.93 105.969 160.898 106.063 160.867C106.156 160.836 106.25 160.812 106.344 160.797C106.688 160.734 107.023 160.656 107.352 160.562C107.68 160.469 107.969 160.344 108.219 160.187C109.125 159.875 110 159.453 110.844 158.922C111.688 158.391 112.422 157.812 113.047 157.187C113.422 156.937 113.836 156.594 114.289 156.156C114.742 155.719 115.094 155.312 115.344 154.937C115.813 154.437 116.227 154.047 116.586 153.766C116.945 153.484 117.281 153.359 117.594 153.391C117.844 153.391 118.086 153.539 118.32 153.836C118.555 154.133 118.531 154.453 118.25 154.797C117.953 154.984 117.625 155.266 117.266 155.641C116.922 156.016 116.563 156.281 116.188 156.437C115.922 156.609 115.57 156.953 115.133 157.469C114.711 157.953 114.359 158.328 114.078 158.594C114.016 158.656 113.945 158.727 113.867 158.805C113.789 158.883 113.695 158.961 113.586 159.039C113.383 159.195 113.219 159.359 113.094 159.531C112.609 159.937 112.141 160.281 111.688 160.562C111.516 160.5 111.375 160.531 111.266 160.656C111.125 160.828 111 160.953 110.891 161.031C110.844 161.062 110.797 161.094 110.75 161.125C110.703 161.156 110.648 161.187 110.586 161.219C110.523 161.25 110.469 161.281 110.422 161.312C110.375 161.344 110.328 161.375 110.281 161.406C110.031 161.625 109.758 161.844 109.461 162.062C109.164 162.281 108.859 162.469 108.547 162.625C108.234 162.812 107.922 162.984 107.609 163.141C107.297 163.313 106.984 163.461 106.672 163.586C106.359 163.711 106.047 163.859 105.734 164.031C105.438 164.203 105.141 164.391 104.844 164.594L104.328 164.664C104.25 164.68 104.172 164.688 104.094 164.688C104.016 164.703 103.938 164.719 103.859 164.734C103.688 164.797 103.523 164.828 103.367 164.828C103.211 164.828 103.016 164.797 102.781 164.734C101.75 164.453 100.906 163.953 100.25 163.234C100.156 163.141 100.055 163.055 99.9453 162.977C99.8516 162.883 99.75 162.797 99.6406 162.719C99.3906 162.531 99.2188 162.359 99.125 162.203C98.9844 161.969 98.8438 161.602 98.7031 161.102C98.5469 160.602 98.4141 160.094 98.3047 159.578C98.1953 159.047 98.1406 158.641 98.1406 158.359C98.2344 158.172 98.3359 157.852 98.4453 157.398C98.5547 156.93 98.6484 156.469 98.7266 156.016C98.8047 155.547 98.8438 155.219 98.8438 155.031C98.9063 154.969 99.0313 154.766 99.2188 154.422C99.3906 154.062 99.5547 153.703 99.7109 153.344C99.8828 152.969 99.9688 152.734 99.9688 152.641ZM107.516 149.641C107.297 149.922 107.078 150.187 106.859 150.437C106.641 150.687 106.391 150.922 106.109 151.141C105.922 151.484 105.703 151.797 105.453 152.078C105.203 152.359 104.953 152.625 104.703 152.875C104.578 153.125 104.438 153.32 104.281 153.461C104.125 153.602 103.953 153.75 103.766 153.906C103.563 154.25 103.313 154.578 103.016 154.891C102.719 155.203 102.656 155.562 102.828 155.969C103.172 156.031 103.516 155.984 103.859 155.828C104.203 155.672 104.5 155.531 104.75 155.406C104.875 155.328 105 155.258 105.125 155.195C105.266 155.133 105.398 155.07 105.523 155.008C105.648 154.945 105.773 154.883 105.898 154.82C106.023 154.758 106.141 154.687 106.25 154.609L107.469 153.391C107.656 153.219 107.844 153.016 108.031 152.781C108.109 152.672 108.188 152.562 108.266 152.453C108.359 152.328 108.453 152.203 108.547 152.078C108.625 151.734 108.75 151.414 108.922 151.117C109.109 150.805 109.188 150.484 109.156 150.156C109.141 150.016 109.086 149.852 108.992 149.664C108.898 149.477 108.844 149.328 108.828 149.219C108.5 149.219 108.258 149.273 108.102 149.383C108.023 149.445 107.93 149.5 107.82 149.547C107.727 149.578 107.625 149.609 107.516 149.641ZM118.297 159.672C118.703 159.5 119.078 159.281 119.422 159.016C119.672 158.672 119.938 158.344 120.219 158.031C120.5 157.719 120.797 157.406 121.109 157.094C121.203 157 121.297 156.906 121.391 156.812C121.484 156.719 121.57 156.625 121.648 156.531C121.727 156.437 121.813 156.344 121.906 156.25C122.016 156.141 122.125 156.031 122.234 155.922C122.313 155.844 122.375 155.789 122.422 155.758C122.469 155.727 122.531 155.656 122.609 155.547C122.781 155.328 122.922 155.117 123.031 154.914C123.141 154.727 123.297 154.516 123.5 154.281C123.703 154.172 123.906 154 124.109 153.766C124.203 153.656 124.297 153.555 124.391 153.461C124.484 153.352 124.578 153.25 124.672 153.156L124.883 152.969C124.914 152.937 124.945 152.906 124.977 152.875C125.023 152.844 125.063 152.812 125.094 152.781C125.188 152.687 125.258 152.578 125.305 152.453C125.336 152.391 125.359 152.328 125.375 152.266C125.406 152.203 125.438 152.141 125.469 152.078C125.75 151.609 126 151.219 126.219 150.906C126.906 150.531 127.609 150.203 128.328 149.922C129.047 149.641 129.734 149.516 130.391 149.547C130.422 149.578 130.516 149.641 130.672 149.734C130.797 149.812 130.891 149.922 130.953 150.062C131.109 150.312 131.141 150.609 131.047 150.953C130.953 151.297 130.797 151.547 130.578 151.703C130.328 152.422 130.156 153.234 130.063 154.141C129.969 155.047 129.938 155.906 129.969 156.719C129.891 156.812 129.867 156.945 129.898 157.117C129.914 157.273 129.875 157.391 129.781 157.469C129.906 157.719 130.063 157.969 130.25 158.219C130.438 158.469 130.703 158.594 131.047 158.594C131.422 158.5 131.656 158.453 131.75 158.453C131.813 158.453 131.891 158.437 131.984 158.406C132.141 158.312 132.242 158.242 132.289 158.195C132.383 158.102 132.469 158.047 132.547 158.031C132.641 157.875 132.703 157.781 132.734 157.75C132.766 157.719 132.828 157.641 132.922 157.516C133.266 157.094 133.57 156.687 133.836 156.297L134.703 155.031C134.797 154.875 134.883 154.734 134.961 154.609C135.055 154.469 135.133 154.344 135.195 154.234C135.273 154.125 135.344 153.992 135.406 153.836C135.484 153.68 135.563 153.5 135.641 153.297L135.852 152.805C135.898 152.695 135.969 152.516 136.063 152.266C136.141 152.078 136.141 151.82 136.063 151.492C136 151.164 136 150.922 136.063 150.766C136.219 150.562 136.297 150.375 136.297 150.203C136.516 149.844 136.625 149.641 136.625 149.594C136.625 149.562 136.641 149.5 136.672 149.406C136.734 149.344 136.797 149.273 136.859 149.195C136.922 149.117 136.953 149.016 136.953 148.891C137.469 148.375 138.109 147.969 138.875 147.672C139.406 147.578 139.898 147.445 140.352 147.273C140.773 147.117 141.109 147.172 141.359 147.437C141.281 147.531 141.297 147.617 141.406 147.695C141.5 147.758 141.547 147.844 141.547 147.953C141.578 148.125 141.57 148.25 141.523 148.328C141.477 148.422 141.453 148.516 141.453 148.609C141.266 148.953 141.156 149.125 141.125 149.125C141.094 149.125 141.063 149.141 141.031 149.172C140.984 149.25 140.93 149.398 140.867 149.617C140.852 149.695 140.828 149.781 140.797 149.875C140.766 149.969 140.734 150.062 140.703 150.156C140.609 150.406 140.5 150.68 140.375 150.977C140.25 151.273 140.094 151.562 139.906 151.844C139.75 152.219 139.727 152.461 139.836 152.57C139.945 152.68 140 152.812 140 152.969C140.094 153.047 140.195 153.094 140.305 153.109C140.414 153.125 140.516 153.172 140.609 153.25C140.734 153.344 140.82 153.422 140.867 153.484C140.93 153.562 141.047 153.641 141.219 153.719C141.359 153.75 141.492 153.758 141.617 153.742C141.727 153.727 141.906 153.734 142.156 153.766C142.406 153.797 142.57 153.797 142.648 153.766C142.727 153.734 142.844 153.656 143 153.531C143.359 153.344 143.57 153.203 143.633 153.109C143.68 153.047 143.75 152.969 143.844 152.875C143.984 152.812 144.133 152.781 144.289 152.781C144.445 152.781 144.578 152.75 144.688 152.687C145.031 152.562 145.414 152.406 145.836 152.219C146.258 152.031 146.641 151.844 146.984 151.656C147.141 151.594 147.289 151.531 147.43 151.469C147.57 151.406 147.672 151.297 147.734 151.141C147.859 151.109 147.945 151.086 147.992 151.07C148.023 151.055 148.125 151.047 148.297 151.047C148.375 151.234 148.453 151.375 148.531 151.469C148.625 151.594 148.578 151.75 148.391 151.937C148.031 152.297 147.617 152.609 147.148 152.875C146.695 153.141 146.281 153.469 145.906 153.859C145.719 153.937 145.539 154.023 145.367 154.117C145.195 154.195 145.031 154.289 144.875 154.398C144.578 154.602 144.203 154.766 143.75 154.891C143.516 155.031 143.313 155.156 143.141 155.266C142.969 155.359 142.828 155.445 142.719 155.523C142.5 155.68 142.313 155.766 142.156 155.781C141.875 155.781 141.602 155.789 141.336 155.805C141.086 155.805 140.844 155.812 140.609 155.828C140.438 155.859 140.305 155.844 140.211 155.781C140.148 155.75 140 155.687 139.766 155.594C139.344 155.484 139.031 155.328 138.828 155.125C138.734 155.031 138.641 154.945 138.547 154.867C138.453 154.773 138.359 154.687 138.266 154.609C138.156 154.781 138.047 154.961 137.938 155.148C137.844 155.336 137.758 155.531 137.68 155.734C137.508 156.141 137.297 156.484 137.047 156.766C136.938 157.109 136.813 157.375 136.672 157.562C136.516 157.766 136.375 158.047 136.25 158.406C136.094 158.578 135.945 158.758 135.805 158.945C135.68 159.133 135.563 159.336 135.453 159.555C135.234 159.992 134.953 160.359 134.609 160.656C133.906 161.547 132.984 162.312 131.844 162.953C131.641 162.891 131.422 162.922 131.188 163.047C130.969 163.172 130.781 163.188 130.625 163.094C129.969 163.25 129.539 163.203 129.336 162.953C129.133 162.703 128.922 162.531 128.703 162.437C128.422 161.984 128.258 161.594 128.211 161.266C128.164 160.937 128.094 160.594 128 160.234C127.938 160.047 127.867 159.883 127.789 159.742C127.727 159.602 127.703 159.453 127.719 159.297C127.609 158.828 127.508 158.492 127.414 158.289C127.352 158.164 127.297 158.023 127.25 157.867C127.219 157.711 127.188 157.547 127.156 157.375C127.141 157.234 127.125 157.094 127.109 156.953C127.109 156.812 127.117 156.672 127.133 156.531C127.148 156.266 127.109 155.969 127.016 155.641C126.453 155.734 126.102 155.93 125.961 156.227C125.82 156.523 125.625 156.75 125.375 156.906C125.266 157.234 125.094 157.492 124.859 157.68C124.656 157.836 124.469 158.094 124.297 158.453C123.953 158.641 123.648 158.891 123.383 159.203C123.102 159.531 122.797 159.828 122.469 160.094C122.188 160.266 121.977 160.422 121.836 160.562C121.711 160.687 121.578 160.781 121.438 160.844C121.344 161 121.219 161.148 121.063 161.289C120.953 161.383 120.797 161.531 120.594 161.734C120.391 161.937 120.25 162.086 120.172 162.18C120.031 162.336 119.891 162.469 119.75 162.578C119.625 162.734 119.508 162.852 119.398 162.93C119.289 163.008 119.188 163.078 119.094 163.141C118.969 163.234 118.875 163.32 118.813 163.398C118.719 163.523 118.641 163.594 118.578 163.609C118.359 163.75 118.164 163.867 117.992 163.961C117.82 164.07 117.672 164.164 117.547 164.242C117.297 164.383 117.078 164.406 116.891 164.313C116.641 164.375 116.406 164.336 116.188 164.195C115.969 164.055 115.766 163.922 115.578 163.797C115.5 163.688 115.422 163.578 115.344 163.469C115.266 163.375 115.188 163.281 115.109 163.188C114.969 163.016 114.859 162.797 114.781 162.531C114.594 162.281 114.422 161.992 114.266 161.664C114.109 161.336 113.969 161 113.844 160.656C113.828 160.016 113.781 159.547 113.703 159.25C113.641 158.984 113.625 158.672 113.656 158.312C113.672 157.953 113.789 157.617 114.008 157.305C114.227 156.992 114.391 156.687 114.5 156.391C114.484 156.125 114.531 155.937 114.641 155.828C114.766 155.703 114.813 155.547 114.781 155.359C115.047 154.641 115.344 154.07 115.672 153.648C115.984 153.242 116.219 152.781 116.375 152.266C116.531 151.734 116.727 151.273 116.961 150.883C117.18 150.508 117.375 150.062 117.547 149.547C117.688 149.281 117.789 149.047 117.852 148.844C117.914 148.609 118.031 148.359 118.203 148.094C118.328 147.969 118.414 147.875 118.461 147.812C118.508 147.75 118.594 147.672 118.719 147.578C118.984 147.5 119.203 147.391 119.375 147.25C119.547 147.109 119.766 147 120.031 146.922C120.219 146.859 120.398 146.828 120.57 146.828C120.711 146.828 120.859 146.781 121.016 146.687C121.406 146.437 121.68 146.297 121.836 146.266C121.961 146.25 122.109 146.203 122.281 146.125C122.5 146.312 122.672 146.508 122.797 146.711C122.922 146.914 122.953 147.172 122.891 147.484C122.688 147.687 122.578 147.836 122.563 147.93C122.547 148.039 122.5 148.141 122.422 148.234C122.344 148.359 122.25 148.469 122.141 148.562C122.031 148.656 121.938 148.766 121.859 148.891C121.828 148.953 121.797 149.016 121.766 149.078C121.75 149.125 121.727 149.172 121.695 149.219C121.633 149.344 121.578 149.437 121.531 149.5L121.32 149.687C121.227 149.781 121.156 149.859 121.109 149.922C121.031 150 120.984 150.078 120.969 150.156C120.953 150.25 120.906 150.344 120.828 150.437C120.734 150.578 120.586 150.719 120.383 150.859C120.242 150.969 120.125 151.094 120.031 151.234C119.984 151.375 119.93 151.602 119.867 151.914C119.852 152.039 119.828 152.172 119.797 152.312C119.766 152.437 119.734 152.562 119.703 152.687C119.594 153.031 119.422 153.43 119.188 153.883C118.922 154.398 118.734 154.812 118.625 155.125C118.594 155.266 118.563 155.406 118.531 155.547C118.516 155.687 118.492 155.82 118.461 155.945C118.445 156.07 118.422 156.203 118.391 156.344C118.359 156.469 118.328 156.594 118.297 156.719C118.266 156.844 118.219 156.953 118.156 157.047C118.094 157.141 118.047 157.234 118.016 157.328C117.859 157.766 117.773 158.234 117.758 158.734C117.742 159.234 117.922 159.547 118.297 159.672ZM148.953 155.875L149.234 156.109C149.313 156.234 149.289 156.406 149.164 156.625C149.102 156.734 149.047 156.836 149 156.93C148.969 157.023 148.938 157.109 148.906 157.187C148.922 157.25 148.938 157.312 148.953 157.375C148.969 157.422 148.984 157.461 149 157.492C149.031 157.586 149.016 157.687 148.953 157.797C149.172 157.969 149.313 158.148 149.375 158.336C149.453 158.586 149.563 158.797 149.703 158.969C149.891 159.172 150.055 159.328 150.195 159.437C150.367 159.547 150.531 159.687 150.688 159.859C150.859 159.766 150.984 159.719 151.063 159.719C151.172 159.719 151.297 159.687 151.438 159.625C151.703 159.281 151.922 158.844 152.094 158.312C152.125 158.187 152.156 158.047 152.188 157.891C152.219 157.734 152.234 157.594 152.234 157.469C152.219 157.062 152.094 156.641 151.859 156.203C151.625 155.75 151.453 155.328 151.344 154.937C151.219 154.672 151.18 154.391 151.227 154.094C151.273 153.766 151.266 153.484 151.203 153.25C151.188 153.094 151.141 152.969 151.063 152.875C151.031 152.828 151 152.781 150.969 152.734C150.938 152.672 150.906 152.609 150.875 152.547C150.813 152.281 150.789 152 150.805 151.703C150.836 151.391 150.766 151.125 150.594 150.906C150.406 151.094 150.109 151.453 149.703 151.984C149.297 152.5 148.891 153.016 148.484 153.531C148.094 154.047 147.813 154.391 147.641 154.562C147.563 154.672 147.477 154.781 147.383 154.891C147.305 154.984 147.219 155.07 147.125 155.148C147.031 155.227 146.938 155.32 146.844 155.43C146.766 155.523 146.688 155.625 146.609 155.734C146.109 156.359 145.734 156.82 145.484 157.117C145.25 157.414 145.016 157.719 144.781 158.031C144.547 158.344 144.172 158.844 143.656 159.531C143.484 159.781 143.195 160.187 142.789 160.75C142.367 161.312 141.969 161.859 141.594 162.391C141.203 162.906 140.969 163.25 140.891 163.422C140.703 163.734 140.461 164.008 140.164 164.242C139.867 164.477 139.516 164.594 139.109 164.594C139.109 164.578 139.078 164.453 139.016 164.219C138.953 164 138.898 163.766 138.852 163.516C138.789 163.281 138.75 163.156 138.734 163.141C138.828 162.953 138.898 162.766 138.945 162.578C138.992 162.406 139.125 162.234 139.344 162.062C139.406 161.859 139.586 161.523 139.883 161.055C140.18 160.57 140.523 160.055 140.914 159.508C141.305 158.945 141.672 158.43 142.016 157.961C142.344 157.492 142.563 157.172 142.672 157C142.875 156.797 143.172 156.445 143.563 155.945C143.938 155.445 144.313 154.945 144.688 154.445C145.078 153.93 145.359 153.562 145.531 153.344C145.672 152.922 145.961 152.398 146.398 151.773C146.852 151.133 147.328 150.484 147.828 149.828C148.344 149.156 148.766 148.578 149.094 148.094C149.25 147.844 149.383 147.625 149.492 147.437C149.602 147.25 149.719 147.047 149.844 146.828C149.969 146.703 150.078 146.562 150.172 146.406C150.234 146.172 150.203 145.992 150.078 145.867C149.969 145.742 149.922 145.578 149.938 145.375C150.219 144.844 150.492 144.508 150.758 144.367C151.039 144.211 151.313 143.953 151.578 143.594C151.766 143.469 151.914 143.375 152.023 143.312C152.18 143.234 152.328 143.125 152.469 142.984C152.688 142.766 153.008 142.711 153.43 142.82C153.867 142.914 154.125 143.047 154.203 143.219C154.219 143.312 154.219 143.437 154.203 143.594C154.188 143.672 154.172 143.75 154.156 143.828C154.141 143.906 154.125 143.984 154.109 144.062C154.078 144.203 154.047 144.336 154.016 144.461C153.984 144.586 153.953 144.711 153.922 144.836C153.891 144.945 153.859 145.07 153.828 145.211C153.797 145.336 153.766 145.469 153.734 145.609C153.672 145.953 153.617 146.281 153.57 146.594C153.523 146.906 153.625 147.203 153.875 147.484C153.844 147.641 153.852 147.828 153.898 148.047C153.945 148.266 154 148.469 154.063 148.656C154.125 149.656 154.305 150.648 154.602 151.633C154.898 152.617 155.219 153.516 155.563 154.328C155.563 154.484 155.586 154.641 155.633 154.797C155.68 154.953 155.734 155.109 155.797 155.266C155.891 156.266 155.797 157.258 155.516 158.242C155.375 158.727 155.234 159.211 155.094 159.695C154.969 160.18 154.844 160.656 154.719 161.125C154.531 161.437 154.375 161.797 154.25 162.203C154.141 162.562 153.984 162.859 153.781 163.094C153.625 163.344 153.484 163.625 153.359 163.938C153.234 164.25 152.984 164.5 152.609 164.688C152.406 164.75 152.195 164.75 151.977 164.688C151.773 164.625 151.578 164.625 151.391 164.688C151.25 164.703 151.109 164.742 150.969 164.805C150.859 164.852 150.734 164.875 150.594 164.875C150.188 164.953 149.852 164.914 149.586 164.758C149.352 164.633 149.031 164.531 148.625 164.453C148.625 164.359 148.578 164.289 148.484 164.242C148.391 164.195 148.313 164.141 148.25 164.078C148.141 163.609 148.016 163.25 147.875 163C147.766 162.781 147.672 162.547 147.594 162.297C147.5 161.937 147.453 161.602 147.453 161.289C147.453 160.945 147.375 160.609 147.219 160.281C147.094 160 147.039 159.828 147.055 159.766C147.07 159.703 147.078 159.609 147.078 159.484C147.078 159.078 147.055 158.633 147.008 158.148C146.961 157.648 147.156 157.25 147.594 156.953C147.766 156.828 147.883 156.664 147.945 156.461C148.008 156.289 148.141 156.109 148.344 155.922C148.406 155.859 148.508 155.828 148.648 155.828C148.758 155.828 148.859 155.844 148.953 155.875Z" fill="black"/>
<path d="M107.328 66.125C108.016 66.2344 108.609 66.3047 109.109 66.3359C109.625 66.3672 110.188 66.3281 110.797 66.2187L112.648 65.9609C113.148 65.8984 113.75 65.8281 114.453 65.75C114.641 65.7344 114.836 65.7344 115.039 65.75C115.148 65.7656 115.25 65.7812 115.344 65.7969C115.438 65.7969 115.531 65.7969 115.625 65.7969C116.031 65.7969 116.43 65.7812 116.82 65.75C117.211 65.7187 117.578 65.6875 117.922 65.6562C117.984 65.6406 118.039 65.625 118.086 65.6094C118.148 65.5937 118.203 65.5781 118.25 65.5625C118.344 65.5312 118.438 65.5312 118.531 65.5625C118.672 65.5625 118.813 65.5625 118.953 65.5625C119.094 65.5625 119.234 65.5547 119.375 65.5391C119.656 65.5234 119.906 65.625 120.125 65.8437C120.219 66.1562 120.25 66.3281 120.219 66.3594C120.172 66.4062 120.141 66.4531 120.125 66.5C120.094 66.9062 120.039 67.1094 119.961 67.1094C119.883 67.1094 119.844 67.1406 119.844 67.2031C119.594 67.2656 119.383 67.3203 119.211 67.3672C119.039 67.4141 118.906 67.5156 118.813 67.6719C118.281 67.7812 117.789 67.8047 117.336 67.7422C116.883 67.6641 116.422 67.7344 115.953 67.9531C115.719 68.0625 115.492 68.1797 115.273 68.3047C115.055 68.4453 114.766 68.4531 114.406 68.3281C114.094 68.3281 113.734 68.3437 113.328 68.375C112.922 68.4062 112.531 68.4375 112.156 68.4687C111.625 68.5156 111.023 68.5703 110.352 68.6328C109.695 68.6797 109.188 68.7109 108.828 68.7266C108.484 68.7422 107.992 68.7656 107.352 68.7969C106.711 68.8281 106.141 68.8437 105.641 68.8437C105.391 69.0469 105.227 69.3125 105.148 69.6406C105.07 69.9531 104.906 70.2031 104.656 70.3906C104.375 71.0156 104.172 71.4141 104.047 71.5859C103.906 71.7734 103.797 72.0156 103.719 72.3125C103.281 72.875 102.883 73.4609 102.523 74.0703C102.195 74.6328 101.781 75.2031 101.281 75.7812C101.219 76.125 101.102 76.4297 100.93 76.6953C100.773 76.9453 100.656 77.2969 100.578 77.75C100.25 78.1875 100 78.7031 99.8281 79.2969C99.75 79.5781 99.6563 79.8672 99.5469 80.1641C99.4531 80.4609 99.3438 80.7656 99.2188 81.0781C99.1563 81.3281 99.0859 81.5703 99.0078 81.8047C98.9297 82.0391 98.8438 82.2812 98.75 82.5312C98.6406 82.8125 98.4922 83.1016 98.3047 83.3984C98.2266 83.5234 98.1406 83.6641 98.0469 83.8203C97.9688 83.9609 97.8906 84.1094 97.8125 84.2656C97.75 84.3281 97.7188 84.4141 97.7188 84.5234C97.7188 84.6016 97.7031 84.6875 97.6719 84.7812C97.625 84.8906 97.5781 85 97.5313 85.1094C97.4844 85.2031 97.4375 85.2891 97.3906 85.3672C97.3281 85.4766 97.25 85.6406 97.1563 85.8594C97.1094 85.9687 97.0703 86.1328 97.0391 86.3516C97.0078 86.5703 96.9688 86.7344 96.9219 86.8437C96.9063 86.8906 96.8906 86.9375 96.875 86.9844C96.8594 87.0312 96.8438 87.0703 96.8281 87.1016C96.8125 87.1328 96.7969 87.1719 96.7813 87.2187C96.7656 87.2656 96.75 87.3125 96.7344 87.3594C96.6406 87.7969 96.6406 88.0937 96.7344 88.25C96.8281 88.4062 96.9063 88.5625 96.9688 88.7187C97 88.8125 97.0313 88.8984 97.0625 88.9766C97.0938 89.0547 97.125 89.1328 97.1563 89.2109C97.2344 89.3516 97.2813 89.5 97.2969 89.6562C97.375 89.6875 97.4531 89.7187 97.5313 89.75C97.6094 89.7812 97.6797 89.8125 97.7422 89.8437C97.8672 89.9062 98.0156 89.9375 98.1875 89.9375C98.3906 89.9687 98.5938 89.8828 98.7969 89.6797C99.0156 89.4609 99.2031 89.3437 99.3594 89.3281C99.5469 89.2656 99.7578 89.2344 99.9922 89.2344C100.195 89.2344 100.375 89.1875 100.531 89.0937C100.625 89.0156 100.711 88.9375 100.789 88.8594C100.867 88.7812 100.938 88.7031 101 88.625C101.094 88.4844 101.266 88.375 101.516 88.2969C102.016 88.1719 102.281 88.0703 102.313 87.9922C102.328 87.9297 102.438 87.8125 102.641 87.6406C102.75 87.5625 102.852 87.4844 102.945 87.4062C103.055 87.3281 103.148 87.2578 103.227 87.1953C103.352 87.0859 103.563 86.9375 103.859 86.75C104.172 86.5937 104.352 86.5 104.398 86.4687C104.445 86.4375 104.578 86.3281 104.797 86.1406C104.953 86.0625 105.094 85.9844 105.219 85.9062C105.359 85.8125 105.484 85.7187 105.594 85.625C105.766 85.4687 106.016 85.2969 106.344 85.1094C106.719 84.9531 106.922 84.8594 106.953 84.8281C107 84.7812 107.031 84.7266 107.047 84.6641C107.063 84.6016 107.234 84.4687 107.563 84.2656C107.672 84.0312 107.813 83.8281 107.984 83.6562C108.063 83.5781 108.148 83.4922 108.242 83.3984C108.336 83.2891 108.438 83.1719 108.547 83.0469C108.75 82.8125 108.945 82.625 109.133 82.4844C109.352 82.3125 109.531 82.1562 109.672 82.0156C109.734 81.9687 109.813 81.8984 109.906 81.8047C110 81.7109 110.109 81.6562 110.234 81.6406C110.328 81.5625 110.406 81.4922 110.469 81.4297C110.547 81.3672 110.617 81.3047 110.68 81.2422C110.742 81.1797 110.813 81.1094 110.891 81.0312C110.984 80.9531 111.094 80.8594 111.219 80.75L111.453 80.5156C111.563 80.4062 111.641 80.3437 111.688 80.3281C111.828 80.3281 111.93 80.375 111.992 80.4687C112.07 80.5625 112.172 80.6094 112.297 80.6094C112.281 80.8125 112.266 80.9766 112.25 81.1016C112.25 81.2266 112.25 81.3203 112.25 81.3828C112.25 81.5078 112.219 81.625 112.156 81.7344C111.969 82.0312 111.758 82.1875 111.523 82.2031C111.289 82.2344 111.109 82.4062 110.984 82.7187C110.891 82.6562 110.773 82.6406 110.633 82.6719C110.492 82.7031 110.391 82.75 110.328 82.8125C110.391 82.9219 110.422 83.0312 110.422 83.1406C110.422 83.2031 110.438 83.3125 110.469 83.4687C109.891 84.0469 109.516 84.5 109.344 84.8281C108.953 85.2344 108.75 85.4609 108.734 85.5078L108.688 85.5781L108.313 85.9531C107.875 86.2969 107.547 86.625 107.328 86.9375C107.125 87.2344 106.797 87.5156 106.344 87.7812C106 88.0312 105.766 88.2187 105.641 88.3437C105.578 88.4062 105.5 88.4844 105.406 88.5781C105.313 88.6562 105.203 88.75 105.078 88.8594C105 88.9375 104.883 89.0703 104.727 89.2578C104.57 89.4453 104.438 89.5781 104.328 89.6562C104.125 89.8125 103.914 89.9531 103.695 90.0781C103.523 90.1719 103.344 90.3281 103.156 90.5469C102.703 90.75 102.367 91 102.148 91.2969C101.945 91.5625 101.641 91.8281 101.234 92.0938C100.953 92.2813 100.57 92.5156 100.086 92.7969C99.6016 93.0781 99.1875 93.2813 98.8438 93.4063C98.7969 93.4219 98.75 93.4375 98.7031 93.4531C98.6563 93.4688 98.6172 93.4844 98.5859 93.5C98.5547 93.5156 98.5156 93.5313 98.4688 93.5469C98.4219 93.5625 98.375 93.5781 98.3281 93.5938C98.0781 93.4375 97.8359 93.2813 97.6016 93.125C97.3672 92.9688 97.1719 92.75 97.0156 92.4688C96.7188 92.25 96.4922 92.0938 96.3359 92C96.1484 91.8906 95.9844 91.7656 95.8438 91.625C95.6875 91.3594 95.5234 91.0937 95.3516 90.8281C95.1797 90.5625 94.9922 90.2969 94.7891 90.0312C94.3828 89.4844 94.0781 88.8906 93.875 88.25C93.8281 88.1719 93.7891 88.0391 93.7578 87.8516L93.6875 87.4062C93.6563 87.2812 93.625 87.1641 93.5938 87.0547C93.5625 86.9453 93.5313 86.8437 93.5 86.75C93.4375 86.5937 93.4219 86.3594 93.4531 86.0469C93.4531 85.8281 93.4844 85.625 93.5469 85.4375C93.5781 85.3281 93.6094 85.2187 93.6406 85.1094C93.6719 84.9844 93.7031 84.8594 93.7344 84.7344C93.7969 84.5312 93.8672 84.3359 93.9453 84.1484C94.0234 83.9453 94.1016 83.75 94.1797 83.5625C94.3672 83.1406 94.5 82.7344 94.5781 82.3437C94.7656 81.6875 94.9688 81.0625 95.1875 80.4687C95.2344 80.3594 95.2734 80.2109 95.3047 80.0234C95.3203 79.8828 95.4063 79.7812 95.5625 79.7187C95.6875 79.0937 95.8906 78.4922 96.1719 77.9141C96.4531 77.3359 96.7344 76.7812 97.0156 76.25C97.1875 75.9219 97.3516 75.5937 97.5078 75.2656C97.6641 74.9219 97.8203 74.5781 97.9766 74.2344C98.1328 73.8906 98.2891 73.5547 98.4453 73.2266C98.6016 72.8828 98.7656 72.5469 98.9375 72.2187C98.9531 71.875 99.0781 71.5625 99.3125 71.2812C99.3281 70.9687 99.4531 70.6328 99.6875 70.2734C99.9219 69.9141 100.078 69.5781 100.156 69.2656C99.8125 69.1719 99.4297 69.1641 99.0078 69.2422C98.5859 69.3203 98.2188 69.3906 97.9063 69.4531C97.3438 69.4687 96.75 69.4687 96.125 69.4531C96.0156 69.4375 95.9063 69.4219 95.7969 69.4062C95.7031 69.375 95.6016 69.3516 95.4922 69.3359C95.2891 69.2891 95.0938 69.2656 94.9063 69.2656C94.625 69.2812 94.4141 69.2578 94.2734 69.1953C94.1172 69.1172 93.9688 69.1094 93.8281 69.1719C93.3906 68.7969 92.9453 68.4687 92.4922 68.1875C92.0234 67.9062 91.7188 67.5469 91.5781 67.1094C91.5781 67.0156 91.625 66.9375 91.7188 66.875C91.8438 66.7812 91.9219 66.7187 91.9531 66.6875C92.2188 66.6094 92.5 66.5859 92.7969 66.6172C93.0938 66.6328 93.3438 66.5781 93.5469 66.4531C94 66.5156 94.4609 66.4844 94.9297 66.3594C95.3516 66.2344 95.7969 66.1875 96.2656 66.2187C96.3281 66.2187 96.4219 66.2344 96.5469 66.2656C96.6719 66.2969 96.7656 66.3125 96.8281 66.3125C96.9844 66.3281 97.1172 66.3281 97.2266 66.3125C97.2891 66.2969 97.3516 66.2812 97.4141 66.2656C97.4766 66.25 97.5469 66.2344 97.625 66.2187C97.8125 66.1875 98.0156 66.1875 98.2344 66.2187C98.4531 66.25 98.6719 66.25 98.8906 66.2187C99.3438 66.1875 99.8359 66.2266 100.367 66.3359C100.945 66.4453 101.453 66.4219 101.891 66.2656C101.969 66.0469 102.047 65.8281 102.125 65.6094C102.219 65.375 102.32 65.1484 102.43 64.9297C102.648 64.4766 102.813 64.0312 102.922 63.5937C103.047 63.4062 103.172 63.1953 103.297 62.9609C103.422 62.7266 103.516 62.5 103.578 62.2812L104.023 61.5312C104.086 61.4375 104.148 61.3437 104.211 61.25C104.273 61.1562 104.344 61.0625 104.422 60.9687C104.641 60.5156 104.805 60.0859 104.914 59.6797C104.977 59.4609 105.039 59.2422 105.102 59.0234C105.18 58.7891 105.266 58.5469 105.359 58.2969C105.563 58.0781 105.766 57.8359 105.969 57.5703C106.172 57.3047 106.375 57.0156 106.578 56.7031C106.813 56.7344 106.992 56.6719 107.117 56.5156C107.258 56.3594 107.469 56.375 107.75 56.5625C107.75 56.6562 107.789 56.7422 107.867 56.8203C107.945 56.8984 107.953 57.0156 107.891 57.1719C108.203 57.4844 108.406 57.7656 108.5 58.0156C108.563 58.2656 108.539 58.5547 108.43 58.8828C108.32 59.2109 108.344 59.5156 108.5 59.7969C108.563 59.9375 108.578 60.0859 108.547 60.2422C108.516 60.4141 108.531 60.5469 108.594 60.6406C108.672 60.8125 108.758 60.9687 108.852 61.1094C108.961 61.2656 109.016 61.4687 109.016 61.7187C109.016 61.8125 108.992 61.9297 108.945 62.0703C108.898 62.2109 108.844 62.3594 108.781 62.5156C108.672 62.9844 108.578 63.3125 108.5 63.5C108.469 63.5937 108.438 63.6953 108.406 63.8047C108.375 63.8984 108.344 64 108.313 64.1094C108.094 64.375 107.984 64.5391 107.984 64.6016C107.984 64.6484 107.969 64.7187 107.938 64.8125C107.891 64.9062 107.844 65.0156 107.797 65.1406C107.75 65.25 107.695 65.3672 107.633 65.4922C107.57 65.6172 107.516 65.7344 107.469 65.8437C107.422 65.9531 107.375 66.0469 107.328 66.125ZM109.531 88.4375C110.234 87.8281 110.898 87.1484 111.523 86.3984C111.836 86.0391 112.156 85.6719 112.484 85.2969C112.813 84.9219 113.156 84.5469 113.516 84.1719C113.672 84.0156 113.828 83.8281 113.984 83.6094C114.141 83.3906 114.297 83.1562 114.453 82.9062C114.578 82.7187 114.734 82.5391 114.922 82.3672C115.125 82.1797 115.281 82.0156 115.391 81.875C115.484 81.7187 115.602 81.5937 115.742 81.5C115.82 81.4531 115.891 81.4062 115.953 81.3594C116.031 81.2969 116.109 81.2344 116.188 81.1719C116.344 81.0156 116.484 80.8828 116.609 80.7734C116.734 80.6641 116.875 80.5469 117.031 80.4219C117.172 80.3125 117.305 80.2031 117.43 80.0937C117.57 79.9687 117.703 79.8516 117.828 79.7422C118.078 79.5078 118.375 79.3125 118.719 79.1562C118.906 79.125 119.047 79.0547 119.141 78.9453C119.203 78.8672 119.313 78.75 119.469 78.5937C119.656 78.625 119.797 78.6094 119.891 78.5469C119.953 78.5156 120.016 78.4844 120.078 78.4531C120.156 78.4219 120.234 78.3906 120.313 78.3594C120.75 78.4531 121.102 78.625 121.367 78.875C121.633 79.125 121.891 79.375 122.141 79.625C122.359 79.7187 122.531 79.8047 122.656 79.8828C122.781 79.9609 122.906 80.0469 123.031 80.1406C123.156 80.3906 123.266 80.625 123.359 80.8437C123.453 81.0625 123.5 81.3125 123.5 81.5937C123.5 81.7187 123.484 81.9062 123.453 82.1562C123.438 82.25 123.422 82.3437 123.406 82.4375C123.391 82.5312 123.375 82.625 123.359 82.7187C123.234 83.0937 123.188 83.2969 123.219 83.3281C123.25 83.3594 123.266 83.4062 123.266 83.4687C123.297 83.75 123.211 84.0078 123.008 84.2422C122.805 84.4922 122.75 84.7656 122.844 85.0625C122.875 85.1875 122.836 85.4219 122.727 85.7656C122.617 86.1094 122.578 86.3437 122.609 86.4687C122.672 86.6406 122.703 86.8828 122.703 87.1953C122.703 87.5078 122.781 87.7187 122.938 87.8281C123.266 87.9531 123.484 88.0156 123.594 88.0156H123.922C124.297 87.8281 124.766 87.5078 125.328 87.0547C125.891 86.6016 126.313 86.2187 126.594 85.9062C126.75 85.7812 126.898 85.6562 127.039 85.5312C127.18 85.4062 127.313 85.2891 127.438 85.1797C127.734 84.9141 128.078 84.6875 128.469 84.5C128.875 84.2187 129.125 84.0234 129.219 83.9141L129.828 83.2344C129.922 83.1406 130.039 83.0469 130.18 82.9531C130.32 82.8594 130.453 82.75 130.578 82.625C130.828 82.375 131.078 82.2031 131.328 82.1094H131.867C132.086 82.1094 132.234 82.1719 132.313 82.2969C132.375 82.5469 132.375 82.7656 132.313 82.9531C132.25 83.1406 132.172 83.3125 132.078 83.4687C131.969 83.6406 131.828 83.8125 131.656 83.9844C131.531 84.2187 131.391 84.4219 131.234 84.5937C131.156 84.6719 131.07 84.7578 130.977 84.8516C130.898 84.9297 130.813 85.0234 130.719 85.1328C130.531 85.3516 130.313 85.5156 130.063 85.625C129.984 85.7187 129.906 85.8047 129.828 85.8828C129.766 85.9609 129.695 86.0391 129.617 86.1172L129.172 86.5625C129 86.7344 128.859 86.9062 128.75 87.0781C128.641 87.25 128.5 87.4219 128.328 87.5937C128.156 87.7344 127.984 87.875 127.813 88.0156C127.656 88.1562 127.492 88.2891 127.32 88.4141C126.992 88.6641 126.688 88.9687 126.406 89.3281C126.266 89.3906 126.141 89.4609 126.031 89.5391C125.969 89.5859 125.859 89.6562 125.703 89.75C125.313 89.8594 124.914 90.0859 124.508 90.4297C124.117 90.7734 123.711 91.0937 123.289 91.3906C122.883 91.6719 122.453 91.7969 122 91.7656C121.656 91.9219 121.359 91.9297 121.109 91.7891C120.859 91.6484 120.609 91.5 120.359 91.3437C120.016 91.125 119.688 90.875 119.375 90.5937C119.063 90.3125 118.875 89.9219 118.813 89.4219C118.75 88.6094 118.844 87.8437 119.094 87.125C119.359 86.3906 119.547 85.6719 119.656 84.9687C119.656 84.8906 119.703 84.6094 119.797 84.125C119.906 83.625 119.922 83.2969 119.844 83.1406C119.797 83.0781 119.758 82.9687 119.727 82.8125C119.711 82.6562 119.578 82.5 119.328 82.3437C119.188 82.2656 119.125 82.25 119.141 82.2969C119.156 82.3594 119.031 82.3906 118.766 82.3906C118.5 82.4844 118.281 82.6094 118.109 82.7656C118.016 82.8437 117.914 82.9219 117.805 83C117.711 83.0781 117.609 83.1562 117.5 83.2344C117.219 83.5625 116.867 83.875 116.445 84.1719C116.07 84.4375 115.734 84.7656 115.438 85.1562C115.188 85.4375 114.953 85.7187 114.734 86C114.547 86.25 114.297 86.5312 113.984 86.8437C113.109 87.8437 112.25 88.7656 111.406 89.6094C111.297 89.7344 111.188 89.8594 111.078 89.9844C110.984 90.1094 110.891 90.2344 110.797 90.3594C110.703 90.4844 110.602 90.6094 110.492 90.7344C110.398 90.8594 110.297 90.9844 110.188 91.1094C109.813 91.5781 109.406 92.0313 108.969 92.4688C108.781 92.7813 108.516 93.0781 108.172 93.3594C107.828 93.6406 107.484 93.8438 107.141 93.9688C107.047 93.9063 106.945 93.9063 106.836 93.9688C106.727 94.0313 106.625 94.0625 106.531 94.0625C106.344 93.9844 106.195 93.9219 106.086 93.875C105.977 93.8438 105.906 93.8203 105.875 93.8047C105.813 93.7734 105.766 93.7031 105.734 93.5938C105.422 93.4063 105.305 93.1016 105.383 92.6797C105.461 92.2578 105.531 91.8906 105.594 91.5781C105.75 90.875 105.938 90.1719 106.156 89.4687C106.375 88.7656 106.617 88.0703 106.883 87.3828C107.148 86.6953 107.391 86.0078 107.609 85.3203C107.828 84.6328 108.016 83.9531 108.172 83.2812C108.328 82.75 108.484 82.2578 108.641 81.8047C108.797 81.3516 108.984 80.875 109.203 80.375C109.438 79.875 109.586 79.4297 109.648 79.0391C109.711 78.6484 109.859 78.2031 110.094 77.7031C110.234 77.4531 110.344 77.2187 110.422 77C110.516 76.7344 110.609 76.5 110.703 76.2969C111.063 75.6562 111.391 74.8828 111.688 73.9766C112 73.0547 112.328 72.2344 112.672 71.5156C113.047 70.5156 113.438 69.5469 113.844 68.6094C114.25 67.6719 114.703 66.75 115.203 65.8437C115.5 64.6406 115.984 63.5156 116.656 62.4687C116.969 62.0625 117.18 61.7344 117.289 61.4844C117.43 61.1719 117.563 60.9375 117.688 60.7812C118.063 60.3281 118.484 59.9766 118.953 59.7266C119.406 59.4766 119.813 59.125 120.172 58.6719C120.438 58.5469 120.68 58.4531 120.898 58.3906C121.023 58.3594 121.141 58.3281 121.25 58.2969C121.359 58.25 121.469 58.2031 121.578 58.1562C121.672 58.25 121.719 58.4375 121.719 58.7187C121.781 58.7187 121.797 58.8125 121.766 59C121.734 59.1875 121.734 59.3437 121.766 59.4687C121.766 59.9062 121.727 60.2187 121.648 60.4062L121.438 60.9219C121.406 61.1719 121.391 61.3359 121.391 61.4141C121.391 61.5234 121.375 61.6562 121.344 61.8125C121.25 62.1094 121.211 62.2734 121.227 62.3047C121.242 62.3359 121.25 62.3906 121.25 62.4687C121.25 62.5312 121.234 62.6719 121.203 62.8906C121.172 63.1094 121.156 63.2656 121.156 63.3594C121.141 63.6719 121.055 64.0312 120.898 64.4375C120.773 64.7812 120.656 65.125 120.547 65.4687C120.359 65.6875 120.25 65.8594 120.219 65.9844C120.188 66.1094 120.125 66.1875 120.031 66.2187C119.938 66.4844 119.844 66.75 119.75 67.0156C119.672 67.2656 119.594 67.5156 119.516 67.7656C119.359 68.25 119.125 68.7187 118.813 69.1719C118.703 69.5 118.539 69.8359 118.32 70.1797C118.211 70.3359 118.109 70.5 118.016 70.6719C117.938 70.8281 117.859 70.9844 117.781 71.1406L117.57 71.5859C117.477 71.7734 117.406 71.9219 117.359 72.0312C117.141 72.4375 116.914 72.8516 116.68 73.2734C116.445 73.6953 116.172 74.0781 115.859 74.4219C115.297 75.6094 114.703 76.8047 114.078 78.0078C113.453 79.2109 112.844 80.375 112.25 81.5C112.141 81.6719 112.047 81.8359 111.969 81.9922C111.891 82.1328 111.828 82.2656 111.781 82.3906C111.703 82.5625 111.648 82.7578 111.617 82.9766C111.586 83.1641 111.5 83.3281 111.359 83.4687C111.313 83.6094 111.266 83.75 111.219 83.8906C111.172 84.0156 111.133 84.1406 111.102 84.2656C111.039 84.5156 110.922 84.75 110.75 84.9687C110.641 85.5781 110.445 86.1641 110.164 86.7266C109.898 87.2578 109.688 87.8281 109.531 88.4375ZM129.828 81.6406C130.031 81.5312 130.281 81.2969 130.578 80.9375C130.875 80.5625 131.164 80.2031 131.445 79.8594C131.727 79.5 131.938 79.2969 132.078 79.25C132.172 79.0937 132.258 78.9609 132.336 78.8516C132.414 78.7422 132.531 78.6406 132.688 78.5469C132.938 78.0937 133.266 77.7109 133.672 77.3984C134.094 77.0703 134.484 76.7187 134.844 76.3437C135.141 76.2187 135.438 76.0781 135.734 75.9219C136.047 75.7656 136.352 75.5859 136.648 75.3828C137.258 74.9766 137.938 74.7656 138.688 74.75C139.031 74.9062 139.367 74.9531 139.695 74.8906C140.008 74.8281 140.313 74.9062 140.609 75.125C140.781 75.4219 140.922 75.6016 141.031 75.6641C141.141 75.7266 141.234 75.8125 141.313 75.9219C141.438 76.3125 141.531 76.5703 141.594 76.6953C141.672 76.8203 141.719 76.9531 141.734 77.0937C141.75 77.3281 141.766 77.5312 141.781 77.7031C141.797 77.8594 141.813 77.9922 141.828 78.1016C141.844 78.3047 141.844 78.5 141.828 78.6875C141.734 79.4844 141.578 80.2812 141.359 81.0781C141.328 81.1719 141.297 81.2656 141.266 81.3594C141.234 81.4531 141.203 81.5547 141.172 81.6641C141.109 81.8672 141.031 82.0469 140.938 82.2031C140.703 82.5 140.539 82.7422 140.445 82.9297C140.305 83.1797 140.203 83.3437 140.141 83.4219C139.953 83.6094 139.773 83.7812 139.602 83.9375C139.445 84.0937 139.297 84.2344 139.156 84.3594C139.016 84.4375 138.875 84.5234 138.734 84.6172C138.594 84.6953 138.453 84.7812 138.313 84.875C138.047 85.0469 137.734 85.1719 137.375 85.25L136.953 85.5078C136.813 85.6016 136.656 85.6562 136.484 85.6719C136.203 85.875 135.891 86.0391 135.547 86.1641C135.391 86.2266 135.227 86.2891 135.055 86.3516C134.898 86.4141 134.734 86.4844 134.563 86.5625C134.328 86.6562 134.125 86.7656 133.953 86.8906C133.781 87.0156 133.563 87.1406 133.297 87.2656C133.156 87.3125 132.93 87.3672 132.617 87.4297C132.32 87.4766 132.109 87.5312 131.984 87.5937C132.141 87.9062 132.203 88.2969 132.172 88.7656C132.156 89.2031 132.234 89.5937 132.406 89.9375C132.813 90.0312 133.258 90.1016 133.742 90.1484C134.227 90.1953 134.688 90.1875 135.125 90.125C135.203 90.1094 135.281 90.0859 135.359 90.0547C135.453 90.0234 135.547 89.9922 135.641 89.9609C135.734 89.9297 135.828 89.8984 135.922 89.8672C136.016 89.8359 136.109 89.8125 136.203 89.7969C136.547 89.7344 136.883 89.6562 137.211 89.5625C137.539 89.4687 137.828 89.3437 138.078 89.1875C138.984 88.875 139.859 88.4531 140.703 87.9219C141.547 87.3906 142.281 86.8125 142.906 86.1875C143.281 85.9375 143.695 85.5937 144.148 85.1562C144.602 84.7187 144.953 84.3125 145.203 83.9375C145.672 83.4375 146.086 83.0469 146.445 82.7656C146.805 82.4844 147.141 82.3594 147.453 82.3906C147.703 82.3906 147.945 82.5391 148.18 82.8359C148.414 83.1328 148.391 83.4531 148.109 83.7969C147.813 83.9844 147.484 84.2656 147.125 84.6406C146.781 85.0156 146.422 85.2812 146.047 85.4375C145.781 85.6094 145.43 85.9531 144.992 86.4687C144.57 86.9531 144.219 87.3281 143.938 87.5937C143.875 87.6562 143.805 87.7266 143.727 87.8047C143.648 87.8828 143.555 87.9609 143.445 88.0391C143.242 88.1953 143.078 88.3594 142.953 88.5312C142.469 88.9375 142 89.2812 141.547 89.5625C141.375 89.5 141.234 89.5312 141.125 89.6562C140.984 89.8281 140.859 89.9531 140.75 90.0312C140.703 90.0625 140.656 90.0937 140.609 90.125C140.563 90.1562 140.508 90.1875 140.445 90.2187C140.383 90.25 140.328 90.2812 140.281 90.3125C140.234 90.3437 140.188 90.375 140.141 90.4062C139.891 90.625 139.617 90.8437 139.32 91.0625C139.023 91.2812 138.719 91.4687 138.406 91.625C138.094 91.8125 137.781 91.9844 137.469 92.1406C137.156 92.3125 136.844 92.4609 136.531 92.5859C136.219 92.7109 135.906 92.8594 135.594 93.0313C135.297 93.2031 135 93.3906 134.703 93.5938L134.188 93.6641C134.109 93.6797 134.031 93.6875 133.953 93.6875C133.875 93.7031 133.797 93.7188 133.719 93.7344C133.547 93.7969 133.383 93.8281 133.227 93.8281C133.07 93.8281 132.875 93.7969 132.641 93.7344C131.609 93.4531 130.766 92.9531 130.109 92.2344C130.016 92.1406 129.914 92.0547 129.805 91.9766C129.711 91.8828 129.609 91.7969 129.5 91.7187C129.25 91.5312 129.078 91.3594 128.984 91.2031C128.844 90.9687 128.703 90.6016 128.563 90.1016C128.406 89.6016 128.273 89.0937 128.164 88.5781C128.055 88.0469 128 87.6406 128 87.3594C128.094 87.1719 128.195 86.8516 128.305 86.3984C128.414 85.9297 128.508 85.4687 128.586 85.0156C128.664 84.5469 128.703 84.2187 128.703 84.0312C128.766 83.9687 128.891 83.7656 129.078 83.4219C129.25 83.0625 129.414 82.7031 129.57 82.3437C129.742 81.9687 129.828 81.7344 129.828 81.6406ZM137.375 78.6406C137.156 78.9219 136.938 79.1875 136.719 79.4375C136.5 79.6875 136.25 79.9219 135.969 80.1406C135.781 80.4844 135.563 80.7969 135.313 81.0781C135.063 81.3594 134.813 81.625 134.563 81.875C134.438 82.125 134.297 82.3203 134.141 82.4609C133.984 82.6016 133.813 82.75 133.625 82.9062C133.422 83.25 133.172 83.5781 132.875 83.8906C132.578 84.2031 132.516 84.5625 132.688 84.9687C133.031 85.0312 133.375 84.9844 133.719 84.8281C134.063 84.6719 134.359 84.5312 134.609 84.4062C134.734 84.3281 134.859 84.2578 134.984 84.1953C135.125 84.1328 135.258 84.0703 135.383 84.0078C135.508 83.9453 135.633 83.8828 135.758 83.8203C135.883 83.7578 136 83.6875 136.109 83.6094L137.328 82.3906C137.516 82.2187 137.703 82.0156 137.891 81.7812C137.969 81.6719 138.047 81.5625 138.125 81.4531C138.219 81.3281 138.313 81.2031 138.406 81.0781C138.484 80.7344 138.609 80.4141 138.781 80.1172C138.969 79.8047 139.047 79.4844 139.016 79.1562C139 79.0156 138.945 78.8516 138.852 78.6641C138.758 78.4766 138.703 78.3281 138.688 78.2187C138.359 78.2187 138.117 78.2734 137.961 78.3828C137.883 78.4453 137.789 78.5 137.68 78.5469C137.586 78.5781 137.484 78.6094 137.375 78.6406Z" fill="black"/>
</svg>
